<svg width="12" height="12" viewBox="0 0 12 12" fill="none" xmlns="http://www.w3.org/2000/svg">
<path d="M5.5 9.5V10C5.5 10.1326 5.44732 10.2598 5.35355 10.3536C5.25979 10.4473 5.13261 10.5 5 10.5H4V11C4 11.2652 3.89464 11.5196 3.70711 11.7071C3.51957 11.8946 3.26522 12 3 12H1C0.734784 12 0.48043 11.8946 0.292893 11.7071C0.105357 11.5196 0 11.2652 0 11V9.707C5.66374e-05 9.4418 0.105451 9.18749 0.293 9L4.162 5.1305C3.92461 4.32479 3.94688 3.4648 4.22564 2.67246C4.50441 1.88012 5.02553 1.19563 5.71512 0.716063C6.40471 0.236493 7.22776 -0.0138294 8.06759 0.000589725C8.90742 0.0150089 9.72139 0.293438 10.3941 0.796398C11.0668 1.29936 11.5641 2.00133 11.8155 2.80277C12.067 3.60422 12.0597 4.46447 11.7948 5.26155C11.5299 6.05863 11.0208 6.7521 10.3396 7.24362C9.65852 7.73514 8.83995 7.99977 8 8H7V9C7 9.13261 6.94732 9.25979 6.85355 9.35355C6.75979 9.44732 6.63261 9.5 6.5 9.5H5.5ZM9 4C9.26522 4 9.51957 3.89464 9.70711 3.70711C9.89464 3.51957 10 3.26522 10 3C10 2.73478 9.89464 2.48043 9.70711 2.29289C9.51957 2.10536 9.26522 2 9 2C8.73478 2 8.48043 2.10536 8.29289 2.29289C8.10536 2.48043 8 2.73478 8 3C8 3.26522 8.10536 3.51957 8.29289 3.70711C8.48043 3.89464 8.73478 4 9 4Z" fill="#ECBA58"/>
</svg>
