<svg width="224" height="120" viewBox="0 0 224 120" fill="none" xmlns="http://www.w3.org/2000/svg">
    <mask id="mask0_1176_51719" style="mask-type:luminance" maskUnits="userSpaceOnUse" x="3" y="3" width="217" height="113">
        <path d="M219.886 3.90967H3.78412V115.254H219.886V3.90967Z" fill="white"/>
    </mask>
    <g mask="url(#mask0_1176_51719)">
        <path d="M73.8478 27.0028C72.8753 26.4637 71.6176 27.1419 71.6176 28.3287L78.0531 67.9243C78.0531 68.8938 78.9391 69.6241 79.8899 69.4458C85.0634 68.4894 95.6872 65.9505 115.775 65.9505V61.438L73.8478 27.0028Z" fill="#FBC04C"/>
        <path d="M117.183 4.6966C116.884 4.14448 116.323 3.90538 115.778 3.90973C115.229 3.90973 114.672 4.14448 114.373 4.6966L95.0711 40.2621L115.778 55.4214L136.468 40.2361L117.183 4.6966Z" fill="#FBC04C"/>
        <path d="M153.499 67.9242L159.934 28.3286C159.934 27.0505 158.465 26.3419 157.475 27.1418L115.781 61.4424V65.9549C135.874 65.9549 146.493 68.4937 151.666 69.4502C152.613 69.624 153.503 68.8936 153.503 67.9286L153.499 67.9242Z" fill="#EAA43F"/>
        <path d="M10.989 94.5648L18.9156 109.785H23.5098L31.3889 94.6561V109.785H38.5937V79.436H31.3457L21.2148 98.2337L11.0797 79.436H3.78412V109.785H10.989V94.5648Z" fill="white"/>
        <path d="M72.3886 82.9835H63.2778L56.5527 98.595L50.2469 82.9835H41.1361L52.1529 108.88L49.4084 115.254H58.5668L72.3886 82.9835Z" fill="white"/>
        <path d="M95.0913 99.3687H97.2519L106.35 109.789H115.314L105.858 99.0075C108.321 98.4646 110.257 97.3381 111.666 95.6344C113.076 93.93 113.784 91.8346 113.784 89.3609C113.784 86.4004 112.794 84.0094 110.81 82.1791C108.826 80.3532 106.203 79.4403 102.931 79.4403H87.6616V109.789H95.0913V99.3687ZM95.0913 85.8221H102.115C103.437 85.8221 104.496 86.1526 105.291 86.8177C106.086 87.4829 106.484 88.3567 106.484 89.4435C106.484 90.5303 106.086 91.452 105.291 92.1171C104.496 92.7823 103.437 93.1127 102.115 93.1127H95.0913V85.8179V85.8221Z" fill="white"/>
        <path d="M130.946 110.533C135.009 110.533 138.453 109.22 141.275 106.589C144.097 103.96 145.511 100.569 145.511 96.4122C145.511 92.2564 144.097 88.9176 141.275 86.2875C138.449 83.6574 135.004 82.3445 130.946 82.3445C126.887 82.3445 123.326 83.6574 120.482 86.2875C117.638 88.9176 116.216 92.2912 116.216 96.4122C116.216 100.533 117.638 103.96 120.482 106.589C123.326 109.22 126.814 110.533 130.946 110.533ZM126.339 91.4304C127.644 90.1349 129.183 89.4872 130.946 89.4872C132.709 89.4872 134.135 90.1349 135.424 91.4304C136.711 92.7259 137.359 94.3866 137.359 96.4122C137.359 98.4381 136.724 100.099 135.454 101.395C134.183 102.69 132.684 103.338 130.95 103.338C129.217 103.338 127.604 102.69 126.317 101.395C125.029 100.099 124.381 98.4381 124.381 96.4122C124.381 94.3866 125.034 92.7259 126.343 91.4304H126.339Z" fill="white"/>
        <path d="M176.45 82.9835H167.34L160.611 98.595L154.309 82.9835H145.198L156.215 108.88L153.471 115.254H162.625L176.45 82.9835Z" fill="white"/>
        <path d="M179.998 106.616C182.523 109.263 185.587 110.585 189.187 110.585C192.541 110.585 195.298 109.607 197.45 107.655V109.784H205.926V83.0356H197.45V85.1658C195.298 83.2095 192.541 82.2357 189.187 82.2357C185.587 82.2357 182.523 83.5703 179.998 86.2309C177.475 88.8958 176.208 92.2867 176.208 96.4083C176.208 100.53 177.47 103.963 179.998 106.611V106.616ZM186.33 91.4303C187.532 90.1348 189.066 89.4871 190.937 89.4871C192.705 89.4871 194.23 90.1435 195.518 91.4564C196.807 92.7693 197.45 94.4213 197.45 96.4121C197.45 98.4038 196.807 100.099 195.518 101.395C194.23 102.689 192.701 103.338 190.937 103.338C189.066 103.338 187.532 102.699 186.33 101.42C185.128 100.143 184.527 98.4732 184.527 96.4121C184.527 94.3517 185.128 92.7258 186.33 91.4303Z" fill="white"/>
        <path d="M219.884 79.4099H211.409V109.784H219.884V79.4099Z" fill="white"/>
    </g>
</svg>
