<svg width="24" height="24" viewBox="0 0 24 24" fill="none" xmlns="http://www.w3.org/2000/svg">
    <g clip-path="url(#clip0_5556_16408)">
        <path d="M23.3907 9.401C23.6507 9.25214 24.0007 9.4407 24.0007 9.75826L22.2507 20.3769C22.2507 20.6349 22.0107 20.8334 21.7507 20.7838C20.3408 20.5258 17.4608 19.8509 12.001 19.8509V18.6402L23.3907 9.401Z"
              fill="#FBC04C"/>
        <path d="M11.6198 3.4169C11.6998 3.26804 11.8498 3.2085 11.9998 3.2085C12.1498 3.2085 12.2998 3.26804 12.3798 3.4169L17.6296 12.9538L11.9998 17.0227L6.37988 12.9538L11.6198 3.4169Z"
              fill="#FBC04C"/>
        <path d="M1.74995 20.367L0 9.74833C0 9.40099 0.39999 9.21244 0.669983 9.43076L11.9997 18.6303V19.841C6.53983 19.841 3.64991 20.5258 2.24994 20.7739C1.98995 20.8235 1.74995 20.625 1.74995 20.367Z"
              fill="#EAA43F"/>
    </g>
    <defs>
        <clipPath id="clip0_5556_16408">
            <rect width="24" height="18" fill="white" transform="translate(0 3)"/>
        </clipPath>
    </defs>
</svg>
