<svg width="24" height="24" viewBox="0 0 24 24" fill="none" xmlns="http://www.w3.org/2000/svg">
    <path d="M17.7073 11.793C17.5198 11.6055 17.2655 11.5002 17.0003 11.5002C16.7352 11.5002 16.4809 11.6055 16.2933 11.793L14.6993 13.387C13.9603 13.167 12.5813 12.667 11.7073 11.793C10.8333 10.919 10.3333 9.54 10.1133 8.801L11.7073 7.207C11.8948 7.01947 12.0001 6.76517 12.0001 6.5C12.0001 6.23484 11.8948 5.98053 11.7073 5.793L7.70733 1.793C7.61455 1.70006 7.50434 1.62632 7.38303 1.57601C7.26171 1.5257 7.13167 1.4998 7.00033 1.4998C6.869 1.4998 6.73896 1.5257 6.61764 1.57601C6.49633 1.62632 6.38612 1.70006 6.29333 1.793L3.58133 4.505C3.20133 4.885 2.98733 5.407 2.99533 5.94C3.01833 7.364 3.39533 12.31 7.29333 16.208C11.1913 20.106 16.1373 20.482 17.5623 20.506H17.5903C18.1183 20.506 18.6173 20.298 18.9953 19.92L21.7073 17.208C21.8948 17.0205 22.0001 16.7662 22.0001 16.501C22.0001 16.2358 21.8948 15.9815 21.7073 15.794L17.7073 11.793ZM17.5803 18.505C16.3323 18.484 12.0623 18.149 8.70733 14.793C5.34133 11.427 5.01533 7.142 4.99533 5.919L7.00033 3.914L9.58633 6.5L8.29333 7.793C8.1758 7.91045 8.08938 8.05534 8.04189 8.21457C7.9944 8.3738 7.98733 8.54236 8.02133 8.705C8.04533 8.82 8.63233 11.547 10.2923 13.207C11.9523 14.867 14.6793 15.454 14.7943 15.478C14.9569 15.5131 15.1256 15.5066 15.285 15.4592C15.4444 15.4119 15.5893 15.3251 15.7063 15.207L17.0003 13.914L19.5863 16.5L17.5803 18.505Z" fill="white"/>
</svg>
