<svg width="24" height="25" fill="none" xmlns="http://www.w3.org/2000/svg"><path d="M16.122 14.287c-.226-.114-1.324-.65-1.53-.727-.205-.073-.354-.111-.503.114-.147.22-.578.724-.71.87-.13.147-.26.159-.482.06-.226-.115-.947-.35-1.802-1.117-.668-.594-1.113-1.327-1.245-1.552-.132-.223-.015-.35.096-.46.103-.103.226-.258.34-.393.109-.135.144-.226.223-.372.073-.158.035-.281-.02-.393-.056-.11-.504-1.215-.692-1.655-.179-.436-.366-.38-.504-.38-.129-.013-.278-.013-.427-.013a.847.847 0 00-.598.27c-.206.225-.785.764-.785 1.854 0 1.093.802 2.15.914 2.309.114.146 1.579 2.396 3.826 3.363.536.226.952.36 1.277.472.536.17 1.026.146 1.412.09.428-.07 1.324-.542 1.512-1.069.19-.53.19-.97.135-1.069-.056-.102-.202-.158-.427-.258l-.01.056zm-4.075 5.525h-.012c-1.33 0-2.646-.36-3.794-1.034l-.27-.16-2.812.732.756-2.737-.182-.281a7.406 7.406 0 01-1.137-3.943c0-4.084 3.343-7.415 7.456-7.415a7.4 7.4 0 015.268 2.182 7.345 7.345 0 012.183 5.244c-.006 4.081-3.346 7.412-7.454 7.412h-.002zm6.342-13.725A9.102 9.102 0 0012.035 3.5c-4.937 0-8.956 4.002-8.96 8.92 0 1.571.411 3.103 1.196 4.46L3 21.5l4.752-1.24a9.073 9.073 0 004.283 1.088h.003c4.94 0 8.96-4.003 8.962-8.924a8.839 8.839 0 00-2.622-6.308l.011-.03z" fill="#1ED747"/></svg>