<svg xmlns="http://www.w3.org/2000/svg" width="48" height="49" viewBox="0 0 48 49" fill="currentColor">
    <path
            d="M24 44.1744C23.8 44.1744 23.6167 44.1411 23.45 44.0744C23.2833 44.0077 23.1167 43.8911 22.95 43.7244L11.05 31.8244C10.75 31.5244 10.6 31.1744 10.6 30.7744C10.6 30.3744 10.75 30.0244 11.05 29.7244C11.35 29.4244 11.7 29.2744 12.1 29.2744C12.5 29.2744 12.85 29.4244 13.15 29.7244L22.5 39.0744V6.27441C22.5 5.84108 22.6417 5.48275 22.925 5.19941C23.2083 4.91608 23.5667 4.77441 24 4.77441C24.4333 4.77441 24.7917 4.91608 25.075 5.19941C25.3583 5.48275 25.5 5.84108 25.5 6.27441V39.0744L34.85 29.7244C35.1167 29.4577 35.4583 29.3161 35.875 29.2994C36.2917 29.2827 36.65 29.4244 36.95 29.7244C37.25 30.0244 37.4 30.3744 37.4 30.7744C37.4 31.1744 37.25 31.5244 36.95 31.8244L25.05 43.7244C24.8833 43.8911 24.7167 44.0077 24.55 44.0744C24.3833 44.1411 24.2 44.1744 24 44.1744Z"
            fill="currentColor"/>
</svg>