<svg xmlns="http://www.w3.org/2000/svg" width="40" height="40" viewBox="0 0 40 40" fill="currentColor">
    <path d="M25 33.3333C21.2778 33.3333 18.125 32.0417 15.5417 29.4583C12.9584 26.875 11.6667 23.7222 11.6667 20C11.6667 16.2778 12.9584 13.125 15.5417 10.5417C18.125 7.95832 21.2778 6.66666 25 6.66666C28.7222 6.66666 31.875 7.95832 34.4584 10.5417C37.0417 13.125 38.3334 16.2778 38.3334 20C38.3334 23.7222 37.0417 26.875 34.4584 29.4583C31.875 32.0417 28.7222 33.3333 25 33.3333ZM24.9902 30.8333C27.9968 30.8333 30.5556 29.781 32.6667 27.6764C34.7778 25.5719 35.8334 23.0163 35.8334 20.0098C35.8334 17.0033 34.7811 14.4444 32.6765 12.3333C30.5719 10.2222 28.0164 9.16666 25.0098 9.16666C22.0033 9.16666 19.4445 10.2189 17.3334 12.3235C15.2222 14.4281 14.1667 16.9836 14.1667 19.9902C14.1667 22.9967 15.219 25.5555 17.3236 27.6667C19.4281 29.7778 21.9837 30.8333 24.9902 30.8333ZM29.25 25.9583L31 24.2083L26.2917 19.4583L26.25 13.3333H23.75V20.5L29.25 25.9583ZM3.33335 14.5833V12.0833H10V14.5833H3.33335ZM1.66669 21.25V18.75H10V21.25H1.66669ZM3.33335 27.9167V25.4167H10V27.9167H3.33335Z" />
</svg>
