<svg width="24" height="24" viewBox="0 0 24 24" fill="currentColor" xmlns="http://www.w3.org/2000/svg">
    <path d="M20.6266 4.84546H3.37345C3.21077 4.84565 3.05482 4.91037 2.93981 5.02543C2.8248 5.14048 2.76014 5.29646 2.76001 5.45914V6.6937C2.76001 6.75058 2.82169 6.81586 2.87209 6.84226L11.9407 12.0222C11.964 12.0355 11.9903 12.0423 12.017 12.0421C12.0444 12.0422 12.0713 12.0349 12.0948 12.021L20.8894 6.8473C20.9388 6.8197 21.0698 6.74674 21.119 6.71314C21.1786 6.67258 21.24 6.63586 21.24 6.56314V5.4589C21.2398 5.29626 21.1751 5.14034 21.0601 5.02534C20.9451 4.91034 20.7892 4.84565 20.6266 4.84546Z" fill="currentColor"/>
    <path d="M21.1632 8.55521C21.1395 8.54175 21.1128 8.53475 21.0856 8.53492C21.0584 8.53508 21.0318 8.54242 21.0084 8.55617L16.0315 11.4844C16.0116 11.496 15.9947 11.5118 15.9818 11.5309C15.969 11.5499 15.9605 11.5715 15.9572 11.5942C15.9539 11.6169 15.9557 11.6401 15.9625 11.662C15.9693 11.6839 15.981 11.704 15.9967 11.7208L20.9743 17.0865C20.9885 17.102 21.0059 17.1143 21.0252 17.1228C21.0445 17.1312 21.0653 17.1355 21.0864 17.1354C21.127 17.1354 21.166 17.1192 21.1947 17.0905C21.2235 17.0617 21.2397 17.0227 21.2397 16.9821V8.68841C21.2398 8.66143 21.2328 8.63491 21.2194 8.61152C21.2059 8.58812 21.1865 8.5687 21.1632 8.55521Z" fill="currentColor"/>
    <path d="M14.5974 12.4676C14.5737 12.4419 14.542 12.425 14.5074 12.4199C14.4729 12.4147 14.4376 12.4216 14.4075 12.4393L12.4126 13.6131C12.2958 13.6807 12.1633 13.7166 12.0283 13.7175C11.8934 13.7184 11.7605 13.6842 11.6427 13.6182L9.88712 12.6152C9.85878 12.5991 9.82603 12.5924 9.79363 12.5961C9.76122 12.5998 9.73084 12.6137 9.70688 12.6359L3.04016 18.8197C3.02268 18.836 3.00926 18.8562 3.00097 18.8787C2.99268 18.9011 2.98975 18.9252 2.99241 18.949C2.99506 18.9727 3.00324 18.9956 3.01628 19.0156C3.02932 19.0357 3.04687 19.0524 3.06752 19.0645C3.1712 19.1255 3.27128 19.1545 3.37304 19.1545H20.4498C20.4796 19.1546 20.5089 19.1458 20.5338 19.1294C20.5588 19.113 20.5784 19.0896 20.5902 19.0621C20.6021 19.0348 20.6058 19.0046 20.6008 18.9752C20.5958 18.9458 20.5822 18.9185 20.5618 18.8967L14.5974 12.4676Z" fill="currentColor"/>
    <path d="M8.24017 11.9044C8.25783 11.8881 8.2714 11.8679 8.27979 11.8453C8.28818 11.8228 8.29115 11.7986 8.28846 11.7747C8.28578 11.7508 8.27751 11.7279 8.26432 11.7078C8.25114 11.6876 8.23341 11.6709 8.21257 11.6589L2.98873 8.67524C2.96542 8.662 2.93904 8.65512 2.91223 8.65528C2.88542 8.65543 2.85913 8.66263 2.83597 8.67614C2.81281 8.68965 2.79361 8.709 2.78028 8.73226C2.76695 8.75552 2.75996 8.78187 2.76001 8.80868V16.6375C2.75984 16.6674 2.76845 16.6967 2.78475 16.7217C2.80106 16.7468 2.82436 16.7665 2.85177 16.7785C2.87918 16.7904 2.90949 16.7941 2.93895 16.789C2.96841 16.7839 2.99573 16.7703 3.01753 16.7498L8.24017 11.9044Z" fill="currentColor"/>
</svg>
