<svg width="40" height="40" viewBox="0 0 20 20" preserveAspectRatio="xMidYMid meet" xmlns="http://www.w3.org/2000/svg">
    <g clip-path="url(#clip0_5559_13037)">
        <g clip-path="url(#clip1_5559_13037)">
            <path d="M10.001 1.66846C5.39929 1.66846 1.66846 5.39929 1.66846 10.001C1.66846 14.1593 4.71512 17.606 8.69929 18.2335V12.4101H6.58262V10.001H8.69929V8.16512C8.69929 6.07512 9.94346 4.92262 11.846 4.92262C12.7576 4.92262 13.7126 5.08512 13.7126 5.08512V7.13429H12.6593C11.626 7.13429 11.3026 7.77762 11.3026 8.43679V9.99929H13.6118L13.2426 12.4085H11.3026V18.2318C15.2868 17.6076 18.3335 14.1601 18.3335 10.001C18.3335 5.39929 14.6026 1.66846 10.001 1.66846V1.66846Z"
                  fill="white"/>
        </g>
    </g>
    <defs>
        <clipPath id="clip0_5559_13037">
            <rect width="20" height="20" fill="white"/>
        </clipPath>
        <clipPath id="clip1_5559_13037">
            <rect width="20" height="20" fill="white"/>
        </clipPath>
    </defs>
</svg>
