<svg width="24" height="25" viewBox="0 0 24 25" fill="currentColor" xmlns="http://www.w3.org/2000/svg">
    <g clip-path="url(#clip0)">
        <path d="M7.2 9.48922L7.84 9.96922C7.92914 9.85036 7.98343 9.70903 7.99677 9.56106C8.01011 9.41309 7.98198 9.26433 7.91554 9.13145C7.8491 8.99856 7.74697 8.8868 7.62058 8.8087C7.4942 8.73059 7.34857 8.68922 7.2 8.68922V9.48922ZM4.8 12.6892L4.16 12.2092C4.07086 12.3281 4.01657 12.4694 4.00323 12.6174C3.98989 12.7653 4.01802 12.9141 4.08446 13.047C4.1509 13.1799 4.25303 13.2916 4.37942 13.3697C4.5058 13.4478 4.65143 13.4892 4.8 13.4892V12.6892ZM20.3776 5.25562L20.9888 5.77242L20.3776 5.25562ZM3.2 10.2892H7.2V8.68922H3.2V10.2892ZM6.56 9.00922L4.16 12.2092L5.44 13.1692L7.84 9.96922L6.56 9.00922ZM4.8 13.4892H5.6V11.8892H4.8V13.4892ZM5.6 15.0892H3.2V16.6892H5.6V15.0892ZM6.4 14.2892C6.4 14.5014 6.31571 14.7049 6.16569 14.8549C6.01566 15.0049 5.81217 15.0892 5.6 15.0892V16.6892C6.23652 16.6892 6.84697 16.4364 7.29706 15.9863C7.74714 15.5362 8 14.9257 8 14.2892H6.4ZM5.6 13.4892C5.81217 13.4892 6.01566 13.5735 6.16569 13.7235C6.31571 13.8736 6.4 14.077 6.4 14.2892H8C8 13.6527 7.74714 13.0422 7.29706 12.5922C6.84697 12.1421 6.23652 11.8892 5.6 11.8892V13.4892ZM12.8 8.68922H12V10.2892H12.8V8.68922ZM9.6 11.0892V12.6892H11.2V11.0892H9.6ZM9.6 12.6892V14.2892H11.2V12.6892H9.6ZM12 11.8892H10.4V13.4892H12V11.8892ZM14.4 14.2892C14.4 13.6527 14.1471 13.0422 13.6971 12.5922C13.247 12.1421 12.6365 11.8892 12 11.8892V13.4892C12.2122 13.4892 12.4157 13.5735 12.5657 13.7235C12.7157 13.8736 12.8 14.077 12.8 14.2892H14.4ZM12 16.6892C12.6365 16.6892 13.247 16.4364 13.6971 15.9863C14.1471 15.5362 14.4 14.9257 14.4 14.2892H12.8C12.8 14.5014 12.7157 14.7049 12.5657 14.8549C12.4157 15.0049 12.2122 15.0892 12 15.0892V16.6892ZM12 15.0892C11.7878 15.0892 11.5843 15.0049 11.4343 14.8549C11.2843 14.7049 11.2 14.5014 11.2 14.2892H9.6C9.6 14.9257 9.85286 15.5362 10.3029 15.9863C10.753 16.4364 11.3635 16.6892 12 16.6892V15.0892ZM12 8.68922C11.3635 8.68922 10.753 8.94207 10.3029 9.39216C9.85286 9.84225 9.6 10.4527 9.6 11.0892H11.2C11.2 10.877 11.2843 10.6736 11.4343 10.5235C11.5843 10.3735 11.7878 10.2892 12 10.2892V8.68922ZM19.2 11.0892V14.2892H20.8V11.0892H19.2ZM17.6 14.2892V11.0892H16V14.2892H17.6ZM18.4 15.0892C18.1878 15.0892 17.9843 15.0049 17.8343 14.8549C17.6843 14.7049 17.6 14.5014 17.6 14.2892H16C16 14.9257 16.2529 15.5362 16.7029 15.9863C17.153 16.4364 17.7635 16.6892 18.4 16.6892V15.0892ZM19.2 14.2892C19.2 14.5014 19.1157 14.7049 18.9657 14.8549C18.8157 15.0049 18.6122 15.0892 18.4 15.0892V16.6892C19.0365 16.6892 19.647 16.4364 20.0971 15.9863C20.5471 15.5362 20.8 14.9257 20.8 14.2892H19.2ZM18.4 10.2892C18.6122 10.2892 18.8157 10.3735 18.9657 10.5235C19.1157 10.6736 19.2 10.877 19.2 11.0892H20.8C20.8 10.4527 20.5471 9.84225 20.0971 9.39216C19.647 8.94207 19.0365 8.68922 18.4 8.68922V10.2892ZM18.4 8.68922C17.7635 8.68922 17.153 8.94207 16.7029 9.39216C16.2529 9.84225 16 10.4527 16 11.0892H17.6C17.6 10.877 17.6843 10.6736 17.8343 10.5235C17.9843 10.3735 18.1878 10.2892 18.4 10.2892V8.68922ZM12 23.0892C9.24175 23.0892 6.59647 21.9935 4.64609 20.0431C2.69571 18.0927 1.6 15.4475 1.6 12.6892H0C0 15.8718 1.26428 18.9241 3.51472 21.1745C5.76516 23.4249 8.8174 24.6892 12 24.6892V23.0892ZM22.4 12.6892C22.4 14.055 22.131 15.4073 21.6083 16.6691C21.0857 17.9309 20.3196 19.0774 19.3539 20.0431C18.3882 21.0089 17.2417 21.7749 15.9799 22.2976C14.7181 22.8202 13.3657 23.0892 12 23.0892V24.6892C15.1826 24.6892 18.2348 23.4249 20.4853 21.1745C22.7357 18.9241 24 15.8718 24 12.6892H22.4ZM12 0.689216C8.8174 0.689216 5.76516 1.9535 3.51472 4.20393C1.26428 6.45437 0 9.50662 0 12.6892H1.6C1.6 9.93096 2.69571 7.28568 4.64609 5.33531C6.59647 3.38493 9.24175 2.28922 12 2.28922V0.689216ZM21.6 5.48922C21.8122 5.48922 22.0157 5.5735 22.1657 5.72353C22.3157 5.87356 22.4 6.07704 22.4 6.28922H24C24 5.6527 23.7471 5.04225 23.2971 4.59216C22.847 4.14207 22.2365 3.88922 21.6 3.88922V5.48922ZM21.6 7.08922C21.3878 7.08922 21.1843 7.00493 21.0343 6.8549C20.8843 6.70487 20.8 6.50139 20.8 6.28922H19.2C19.2 6.92573 19.4529 7.53619 19.9029 7.98627C20.353 8.43636 20.9635 8.68922 21.6 8.68922V7.08922ZM20.8 6.28922C20.8 6.09242 20.8704 5.91322 20.9888 5.77242L19.768 4.73882C19.4144 5.15642 19.2 5.69882 19.2 6.28922H20.8ZM20.9888 5.77242C21.0638 5.68344 21.1574 5.61198 21.263 5.56305C21.3686 5.51412 21.4836 5.48892 21.6 5.48922V3.88922C20.864 3.88922 20.2064 4.22042 19.768 4.73882L20.9888 5.77242ZM12 2.28922C15.0944 2.28922 17.8736 3.63962 19.7792 5.78682L20.976 4.72442C19.8512 3.45423 18.4692 2.43761 16.9218 1.74193C15.3743 1.04626 13.6966 0.68743 12 0.689216V2.28922ZM21.3664 8.16122C22.0288 9.53082 22.4 11.0652 22.4 12.6892H24C24 10.8172 23.5712 9.04602 22.8064 7.46522L21.3664 8.16282V8.16122ZM22.4 6.28922C22.4002 6.45906 22.3464 6.62457 22.2463 6.76178C22.1462 6.89899 22.005 7.00078 21.8432 7.05242L22.3296 8.57562C22.8145 8.42088 23.2376 8.116 23.5379 7.70501C23.8382 7.29401 24 6.7982 24 6.28922H22.4ZM21.8432 7.05242C21.7645 7.07715 21.6825 7.08956 21.6 7.08922V8.68922C21.8475 8.68973 22.0936 8.65195 22.3296 8.57722L21.8432 7.05242Z"
              fill="currentColor"/>
    </g>
    <defs>
        <clipPath id="clip0">
            <rect width="24" height="24" fill="white" transform="translate(0 0.689209)"/>
        </clipPath>
    </defs>
</svg>
