<svg xmlns="http://www.w3.org/2000/svg" id="Brand_Bar" width="1267.04" height="247.86" viewBox="0 0 1267.04 247.86"><defs><style>.cls-1{fill:#fff}</style></defs><path d="M1033.18 190.07c0-1.78 1.36-3.05 3.2-3.05 1.02 0 1.87.37 2.42 1.04l-.88.81q-.6-.68-1.48-.69c-1.1 0-1.89.78-1.89 1.89s.78 1.89 1.89 1.89q.89 0 1.48-.7l.88.81a3 3 0 0 1-2.43 1.05c-1.83 0-3.19-1.27-3.19-3.05m7.13-2.95h1.36v4.78h2.95v1.11h-4.32zm5.63 3.3v-3.3h1.36v3.25c0 1.12.49 1.58 1.31 1.58s1.31-.46 1.31-1.58v-3.25h1.35v3.3c0 1.74-.99 2.7-2.67 2.7s-2.67-.96-2.67-2.7Zm12.67.99c0 1.02-.81 1.61-2.36 1.61h-3.05v-5.9h2.88c1.47 0 2.23.61 2.23 1.53 0 .59-.3 1.04-.78 1.3.66.21 1.08.72 1.08 1.46m-4.05-3.26v1.39h1.36q1.01 0 1.03-.7c.02-.7-.36-.69-1.03-.69zm2.68 3.12q-.01-.74-1.09-.73h-1.59V192h1.59q1.08.02 1.09-.72Zm11.63-4.15-2.55 5.9h-1.35l-2.54-5.9h1.47l1.79 4.21 1.82-4.21zm5.09 4.63h-2.74l-.52 1.26h-1.4l2.63-5.9h1.35l2.63 5.9h-1.43zm-.43-1.04-.93-2.26-.93 2.26zm3.21-.64c0-1.78 1.36-3.05 3.2-3.05 1.02 0 1.87.37 2.42 1.04l-.88.81q-.6-.68-1.48-.69c-1.1 0-1.89.78-1.89 1.89s.78 1.89 1.89 1.89q.89 0 1.48-.7l.88.81a3 3 0 0 1-2.43 1.05c-1.83 0-3.19-1.27-3.19-3.05m11.01 1.68h-2.74l-.52 1.26h-1.4l2.63-5.9h1.35l2.63 5.9h-1.43zm-.43-1.04-.93-2.26-.93 2.26zm4.81-2.48h-1.89v-1.11h5.13v1.11h-1.89v4.78h-1.36zm4.57-1.11h1.36v5.9h-1.36zm2.98 2.95c0-1.75 1.36-3.05 3.22-3.05s3.22 1.29 3.22 3.05-1.37 3.05-3.22 3.05-3.22-1.3-3.22-3.05m5.07 0c0-1.12-.79-1.89-1.84-1.89s-1.84.77-1.84 1.89.79 1.89 1.84 1.89 1.84-.77 1.84-1.89m8.4-2.95v5.9h-1.12l-2.94-3.58v3.58h-1.35v-5.9h1.13l2.93 3.58v-3.58zm1.52 5.32.46-1.03c.5.36 1.24.61 1.94.61.81 0 1.14-.27 1.14-.63 0-1.1-3.43-.35-3.43-2.54 0-1 .81-1.84 2.48-1.84.74 0 1.5.18 2.05.52l-.42 1.04a3.3 3.3 0 0 0-1.63-.46c-.81 0-1.12.3-1.12.67 0 1.09 3.43.34 3.43 2.5 0 .99-.82 1.83-2.5 1.83-.93 0-1.88-.28-2.4-.68Zm-25.05-13.56c-.5.45-1.37.68-2.37.8-1.4.16-2.35.39-2.35 1.36 0 .76.74 1.18 1.63 1.18.72 0 1.38-.25 1.86-.71.5-.49.85-1.17 1.05-1.93zm1.45-6.66c.53-2.46 3-2.04 3-2.04l-1.74 8.2c-.35 1.65-.82 2.82-1.58 3.67a5.5 5.5 0 0 1-4.23 1.67c-2.15 0-3.76-.97-3.76-2.6 0-1.11.7-1.88 2.19-2.25a2.5 2.5 0 0 1-.64-1.69c0-.49.12-1.07.23-1.64l.67-3.15c.57-2.7 3.03-2.21 3.03-2.21l-1.15 5.44c-.1.47-.61 2.26 1.01 2.26 1.81 0 2.23-2.26 2.48-3.44zm-10.4-.43a1.3 1.3 0 0 0-.58-.14c-2.26 0-3.68 2.72-3.68 4.7q0 1.68 1.3 1.69a1.8 1.8 0 0 0 1.42-.62c.35-.41.56-1.01.72-1.71zm2.73-.88-1.83 8.89h-.34c-.78 0-1.46-.27-1.69-1-.52.57-1.45 1-2.61 1-1.94 0-3.13-1.28-3.13-3.36a6.36 6.36 0 0 1 9.6-5.53m-9.02-5.9-3.05 14.79h-.34c-.78 0-1.46-.28-1.68-.99-.54.57-1.45.99-2.61.99-1.95 0-3.23-1.3-3.23-3.38a6.34 6.34 0 0 1 7.32-6.31c-.02.11.41-1.92.63-3.08.47-2.38 2.76-2.05 2.96-2.02m-3.94 6.79a2 2 0 0 0-.76-.15c-1.98 0-3.59 2.43-3.59 4.69 0 1.11.52 1.71 1.39 1.71.62 0 1.05-.23 1.4-.62.35-.41.58-1.01.74-1.71zm48.5-1.78c-1.23 0-2.28.56-2.96 1.3 0 0-.09-1.87-2.56-1.13.45 1.31.2 1.77-.3 4.41l-.52 2.55c-.09.44-.67 2.64 1.66 2.64h.34l.92-4.44c.25-1.19.73-3.44 2.53-3.44.89 0 1.35.56 1.07 1.92l-.68 3.31c-.1.42-.68 2.65 1.65 2.65h.35l1.25-6.06c.56-2.59-.79-3.73-2.74-3.73m-77.42-3.56-.79 3.8-4.29.85 1.26-6.1c-.39-.07-2.52-.24-2.95 1.98l-2.1 10.17c-.1.49-.67 2.64 1.65 2.64h.36l1.24-6 4.29-.85-.87 4.21c-.09.43-.67 2.64 1.65 2.64h.35l3.17-15.36s-2.46-.44-2.96 2.01m66.89 3.56c-1.23 0-2.28.56-2.96 1.3 0 0-.09-1.87-2.56-1.13.45 1.31.2 1.77-.3 4.41l-.52 2.55c-.09.44-.67 2.64 1.66 2.64h.34l.92-4.44c.25-1.19.73-3.44 2.53-3.44.89 0 1.35.56 1.07 1.92l-.68 3.31c-.1.42-.68 2.65 1.65 2.65h.34l1.25-6.06c.56-2.59-.79-3.73-2.74-3.73m-9.08-3.67-2.23 10.81c-.12.52-.63 2.65 1.65 2.65h.35l3.16-15.36c-.6-.11-2.51-.09-2.93 1.9m-48.63 7.11c0-1.01-.39-1.73-1.41-1.73-.64 0-1.21.37-1.63.92a6.6 6.6 0 0 0-1.21 3.71c0 1.01.41 1.73 1.44 1.73.64 0 1.18-.37 1.61-.92a6.6 6.6 0 0 0 1.2-3.71m2.61-.02c0 2.05-.84 3.99-2.28 5.15a5.4 5.4 0 0 1-3.48 1.21c-2.16 0-3.71-1.17-3.71-3.44 0-2.04.84-3.97 2.27-5.13a5.4 5.4 0 0 1 3.48-1.21c2.15 0 3.71 1.15 3.71 3.42m6.75-1.3c-.51 2.4-1.04 5.02-1.04 5.02-.09.43-.67 2.64 1.66 2.64h.34l1.98-9.62c-.09-.01-2.44-.41-2.94 1.95m-3.62-5.15-2.1 10.17c-.1.43-.67 2.64 1.65 2.64h.35l3.05-14.79s-2.45-.45-2.95 1.98m6.11-.8c-.9 0-1.77.82-1.77 1.73 0 .68.48 1.15 1.14 1.15.9 0 1.79-.82 1.79-1.73 0-.68-.51-1.15-1.17-1.15m19.97-26.39c-.37 1.36-.75 2.84-1.18 4.54a124 124 0 0 0-2.48 15.08c-.22.1-.84.18-1.15.18-.98 0-2.14-.6-2.21-2.17-.09-1.94 1.04-9.09 2.74-15.72l.16-.62q-3.31 1.14-6.08 2.34a85 85 0 0 0-1.94 12.18c-.07.07-.71.17-1.03.17-1.17 0-1.99-.78-1.98-2.11.01-2.6.59-6.01 1.08-8.47a71 71 0 0 0-5.37 2.87 2.4 2.4 0 0 1-.2-1.2c.06-.39.29-1.25 1.24-1.91a52 52 0 0 1 5.06-3.08 62 62 0 0 1 3.31-10.12c.69-1.5 1.58-2.07 3.1-2.07.4 0 .95.09 1.24.19a70 70 0 0 0-3.66 10.08q2.82-1.23 6.15-2.33c1.08-3.77 2.05-6.47 2.96-8.18a3 3 0 0 1 2.35-1.61c.75-.09 1.41 0 1.99.16a89 89 0 0 0-3.13 8.4q2.3-.61 4.81-1.14c.91-.19 4.23-.78 4.84 2.43a67 67 0 0 0-10.64 2.12m100.28 46.73-.87-.23c-1.06-.3-1.69-.75-1.69-1.73 0-1.08.96-1.85 2.3-1.85 1.09 0 1.91.47 2.33 1.14l-.48.51a2.1 2.1 0 0 0-1.87-1.03c-.71 0-1.21.34-1.21.92 0 .53.33.76 1.08.96l.87.24c1.04.28 1.7.76 1.7 1.74 0 1.25-1.08 2.01-2.43 2.01-1.14 0-2.15-.51-2.62-1.34l.5-.47a2.4 2.4 0 0 0 2.12 1.15c.77 0 1.36-.32 1.36-1 0-.59-.41-.82-1.11-1.02Zm8.52-3.73v3.85c0 1.68-1.05 2.55-2.54 2.55-1.68 0-2.66-.94-2.66-2.54v-3.86h1.17v3.76c0 1.22.59 1.91 1.65 1.91s1.62-.61 1.62-1.91v-3.76zm2.72 6.31h-1.17v-6.31h1.17zm3.5-5.68h-2.38v-.63h5.93v.63h-2.38v5.68h-1.17zm4.67-.63h4.5v.64h-3.32v2.09h2.44v.64h-2.44v2.29h3.47v.65h-4.64zm8.08 3.73-.87-.23c-1.06-.3-1.69-.75-1.69-1.73 0-1.08.96-1.85 2.3-1.85 1.09 0 1.91.47 2.33 1.14l-.48.51a2.1 2.1 0 0 0-1.87-1.03c-.71 0-1.21.34-1.21.92 0 .53.33.76 1.08.96l.87.24c1.04.28 1.7.76 1.7 1.74 0 1.25-1.08 2.01-2.43 2.01-1.14 0-2.15-.51-2.62-1.34l.5-.47a2.4 2.4 0 0 0 2.12 1.15c.77 0 1.36-.32 1.36-1 0-.59-.41-.82-1.11-1.02Zm-62.78-17.12c1.79 0 3.21.78 4.04 2.23l-.78.83c-.64-1.16-1.56-1.99-3.05-1.99-2 0-3.36 1.49-3.36 4.11s1.55 4.11 3.34 4.13c1.49 0 2.42-.68 3.08-1.9l.77.59a4.4 4.4 0 0 1-4.11 2.42c-2.84 0-5.2-1.99-5.2-5.13s2.34-5.3 5.27-5.3Zm11.12 7.47h-4.08l-1.2 2.83h-1.19l4.44-10.2h.78l4.47 10.2h-1.98zm-3.68-.94h3.27l-1.66-3.78zm15.94-6.38h1.22v10.17h-.74l-6.6-8.04v8.01h-1.22v-10.14h1.81l5.53 6.78zm3.87 10.14v-10.14h3.34c3.47 0 5.75 1.84 5.75 5.03 0 3.35-2.36 5.11-5.56 5.11zm3.2-9.17h-1.32v8.2h1.43c2.34 0 3.75-1.32 3.75-4.14 0-2.56-1.4-4.06-3.86-4.06m7.69-.97h1.88v9.1h5.12v1.04h-7zm8.99 0h7.22v1.03h-5.34v3.36h3.92v1.03h-3.92v3.68h5.57v1.04h-7.45zm15.44 3.71-2.3 6.49h-.77l-3.89-10.2h1.94l2.72 7.43 1.78-5.2-.8-2.23h1.9l2.42 7.29 2.59-7.29h1.19l-3.7 10.2h-.77l-2.3-6.49Zm12.59-3.86c2.91 0 5.17 2.25 5.17 5.22s-2.26 5.22-5.17 5.22-5.17-2.25-5.17-5.22 2.24-5.22 5.17-5.22m0 9.49c1.97 0 3.05-1.61 3.05-4.27s-1.09-4.29-3.05-4.29-3.05 1.61-3.05 4.29 1.07 4.27 3.05 4.27m11.44-9.49c2.91 0 5.17 2.25 5.17 5.22s-2.26 5.22-5.17 5.22-5.17-2.25-5.17-5.22 2.24-5.22 5.17-5.22m0 9.49c1.97 0 3.05-1.61 3.05-4.27s-1.09-4.29-3.05-4.29-3.05 1.61-3.05 4.29 1.07 4.27 3.05 4.27m6.96.8v-10.14h3.34c3.47 0 5.75 1.84 5.75 5.03 0 3.35-2.36 5.11-5.56 5.11zm3.2-9.17h-1.32v8.2h1.43c2.34 0 3.75-1.32 3.75-4.14 0-2.56-1.4-4.06-3.86-4.06m-48.07-24.99a8.73 8.73 0 1 0 0 17.47 8.73 8.73 0 0 0 0-17.47m-.24 15.65s.97-1.48.97-2.82c0-2.58-1.82-3.93-2.09-4.6-.03-.07-1.23.46-1.41 2.22 0 0-1.01-1.55-.73-3.44.55-3.71 4.57-5.29 4.57-5.29s-.82.93-.82 2.28c0 2.42 3.35 3.62 3.35 7.02 0 2.65-2.84 4.23-3.84 4.63m-270.93-10.73h-1.54l-4.72 12.77-.05.14h1.62l1.38-3.86h4.52l1.08 3.79.02.08h2.18zm-2.68 7.73.54-1.51c.41-1.12.87-2.37 1.23-3.72.5 1.95 1.01 3.72 1.51 5.21h-3.27Zm11.43-2.07-2.66-5.87-.04-.08-2.16.62 3.63 7v5.59h1.88v-5.59l4.2-7.28-1.62-.33zm8.81 23.49h1.39v-6.25h-1.39zm-10.23-2.37c0 .58-.07.76-.16.94a1 1 0 0 1-.69.37c-.28 0-.57-.15-.68-.37-.1-.19-.18-.36-.18-.94v-3.88h-1.31v3.88c0 .58 0 1.26.54 1.82q.75.8 1.62.79c.87-.01 1.11-.26 1.62-.79.53-.56.53-1.24.53-1.82v-3.88h-1.3zm-26.09-21.22c-1.72-1.16-2.43-1.93-2.43-2.67s.75-1.54 1.82-1.54c.48 0 .88.21 1.29.43q.4.22.87.39l.09.03.64-.97-.04-.06a3.5 3.5 0 0 0-2.85-1.43c-2.01 0-3.7 1.44-3.7 3.15s.91 2.43 1.88 3.13l.36.27q.3.28.71.61c.9.74 2.01 1.66 2.01 2.89s-.68 1.81-2.09 1.81q-1.33 0-2.4-1.07l-.09-.1-.97 1.3.07.07a5.3 5.3 0 0 0 3.67 1.41c1.74 0 3.7-1.46 3.7-3.42 0-1.77-.97-2.93-2.53-4.23Zm12.72 19.6c-.47-.21-.81-.31-.86-.63a.6.6 0 0 1 .09-.42q.16-.22.46-.17a.6.6 0 0 1 .51.54v.16h1.39c0-.48-.19-1.07-.54-1.42a2 2 0 0 0-1.37-.57c-1.16 0-1.92.72-1.92 1.85 0 .46.22.93.54 1.23.27.24.74.53 1.25.74.48.22.84.43.86.92.03.63-.38.77-.67.77-.37 0-.54-.19-.63-.41-.06-.16-.1-.42-.11-.62h-1.38v.1c.05 1.26.97 2.15 2.14 2.15.58 0 1.11-.21 1.47-.6.36-.36.56-.86.53-1.41a2.4 2.4 0 0 0-.65-1.55 4 4 0 0 0-1.11-.69Zm.56-25.14h-9.59v1.6h3.86v11.31h1.87v-11.31h3.86zm48.95 0h-3.7v12.91h3.41c3.87 0 6.18-2.51 6.18-6.72 0-2.86-1.54-6.19-5.9-6.19Zm-.28 11.31h-1.54v-9.7h1.82q4.01.01 4.02 4.58c0 3.35-1.49 5.12-4.3 5.12m-10.91-7.88c0-2.15-1.28-3.43-3.42-3.43h-3.69v12.91h1.88v-5.23h1.75l2.73 5.45.05.09 1.87-.63-3.05-5.55c1.05-.79 1.9-1.64 1.9-3.62Zm-4.25 2.64h-.99v-4.46h1.26c.63 0 2.1.2 2.1 2.09 0 .67-.43 2.37-2.36 2.37Zm25.35 19.08c-.46-.21-.8-.31-.85-.63q-.04-.26.08-.42.19-.22.46-.17c.25.03.49.25.52.54l.01.16h1.4a2.3 2.3 0 0 0-.55-1.42 2 2 0 0 0-1.37-.57c-1.17 0-1.91.72-1.91 1.85 0 .46.22.93.53 1.23.28.24.75.53 1.25.74.48.22.85.43.87.92.03.63-.39.77-.67.77-.37 0-.55-.19-.64-.41a2 2 0 0 1-.11-.62h-1.38v.1a2.13 2.13 0 0 0 2.14 2.15c.59 0 1.11-.21 1.47-.6.35-.36.55-.86.53-1.41a2.4 2.4 0 0 0-.64-1.55 4 4 0 0 0-1.12-.69Zm11.69-13.83v-4.45h4.13v-1.34h-4.13v-3.9h4.13v-1.61h-6.02v12.91h6.85v-1.6zm-25.91 17.83h3.49v-1.23h-2.01v-1.27h2.01v-1.23h-2.01v-1.28h2.01v-1.23h-3.49zm-4.08-16.23h1.88v-12.91h-1.88zm23.7-1.55c-.52.23-1.06.23-2.09.23-2.22 0-4.02-2.31-4.02-5.12 0-3.12 1.68-5.13 4.29-5.13 1.11 0 2.16.55 2.68 1.07l.11.11.65-1.31-.06-.06a4.8 4.8 0 0 0-3.39-1.41c-4.01 0-6.17 3.47-6.17 6.74 0 4.09 2.31 6.73 5.9 6.73 1.03 0 2.07-.3 2.98-.57q.48-.15.9-.25l.08-.02v-5.45h-1.87v4.46Zm-38.72-5.52c.92-.38 2.02-1.24 2.02-3.24 0-1.43-1.41-2.6-3.15-2.6h-3.98v12.91h3.42c2.49 0 4.53-1.65 4.53-3.7s-1.38-3.15-2.84-3.38Zm-3.22-4.23h1.27c.95 0 2.09.27 2.09 1.54 0 1.35-1.4 2.37-2.64 2.37h-.71zm1.53 9.7h-1.53v-4.45h1.27c1.27 0 2.64.74 2.64 2.36q0 2.09-2.37 2.09Zm8.77 12.81h1.13v5.02h1.48v-5.02h1.13v-1.23h-3.74z" class="cls-1"/><path d="M898.68 147.4h-9.04v8.14h9.04zm98.98 24.64c-48.71-10.31-89.52-1.98-98.94.25v-14.78h-3.64v22.16h3.64v-5.56c8.47-2.06 49.64-10.79 98.94-.27v5.83h3.64v-22.16h-3.64zm-108.02 7.63h3.62V157.5h-3.62zm108.08-24.13h9.05v-8.14h-9.05zm5.41 24.13h3.64V157.5h-3.64zm-278.19-16.5h3.73c.19 0 .33.15.33.33v15.51c0 .19-.14.33-.33.33H725a.34.34 0 0 1-.34-.33v-15.58c0-.15.12-.27.27-.27m19.51 15.14a7 7 0 0 1-4.49 1.5c-4.77 0-8.58-3.82-8.58-8.49s3.81-8.45 8.58-8.45c1.63 0 3.17.44 4.49 1.5v-11.22c0-.19.15-.33.33-.33h3.71c.19 0 .33.15.33.33v25.88c0 .18-.15.33-.33.33h-3.71a.33.33 0 0 1-.33-.33zm-4.49-11.42c-2.45 0-4.46 2.05-4.46 4.43s2.01 4.46 4.46 4.46 4.49-2.05 4.49-4.46-2.01-4.43-4.49-4.43m-13.1-8.64c-1.54 0-2.74-1.2-2.74-2.74s1.2-2.7 2.74-2.7 2.74 1.16 2.74 2.7-1.18 2.74-2.74 2.74m-32.12 20.06a7 7 0 0 1-4.49 1.5c-4.77 0-8.58-3.82-8.58-8.49s3.81-8.45 8.58-8.45c1.63 0 3.17.44 4.49 1.5v-.86c0-.18.15-.33.33-.33h3.66c.18 0 .33.15.33.33v15.52c0 .18-.15.33-.33.33h-3.66a.33.33 0 0 1-.33-.33zm-4.49-11.46c-2.45 0-4.46 2.05-4.46 4.43s2.01 4.46 4.46 4.46 4.49-2.05 4.49-4.46-2.01-4.43-4.49-4.43m29.99-6.44-10.6 13.27-5.65-7.19a.45.45 0 0 0-.67-.04l-2.88 2.71c-.1.1-.11.25-.02.36l7.67 9.77q.2.23.49.24h2.11q.3 0 .49-.24l12.5-15.9a.3.3 0 0 0-.03-.37l-2.8-2.66a.4.4 0 0 0-.61.04m61.49-10.42 2.15 5.41h-4.29zm-1.58-2.58-5.58 13.67h2.78l1.26-3.21h6.23l1.27 3.21h2.86l-5.56-13.67zm8.83.01v2.5h4.47v11.16h2.68V149.9h4.47v-2.5zm31.99 0-2.98 10.62-3.24-10.62h-2.98l-3.24 10.62-2.98-10.62h-2.78l4.08 13.66h3.26l3.13-9.98 3.12 9.98h3.25l4.1-13.66zm5.75 0v13.66h10.56v-2.46h-7.89v-3.2h6.63v-2.46h-6.63v-3.08h7.8v-2.46zm14.54 0v13.66h9.72v-2.5h-7.04V147.4zm12.92 0v13.66h9.73v-2.5h-7.05V147.4zm-64.23 21.88a8 8 0 0 0-4.04-1.16c-1.66 0-2.86.63-2.86 1.69s1.12 1.34 2.96 1.6l.86.13c2.46.36 4.56 1.42 4.56 3.82 0 3-2.73 4.45-5.8 4.45-2.07 0-4.4-.61-5.91-1.78l1.4-2.15a8 8 0 0 0 4.51 1.47c1.66 0 2.96-.61 2.96-1.73 0-.94-1.16-1.33-3.08-1.59l-.94-.13c-2.41-.34-4.35-1.41-4.35-3.85 0-2.77 2.5-4.4 5.68-4.4 2.24 0 3.82.57 5.33 1.47zm16.54 4.79c0 3.79-2.51 5.72-5.98 5.72s-5.96-1.93-5.96-5.72v-8.19h2.68v8.04c0 2.29 1.34 3.3 3.28 3.3s3.3-1.01 3.3-3.3v-8.04h2.68zm4.44-8.19h2.68v13.67h-2.68zm6.47 0v2.51h4.47v11.16h2.68v-11.16H829v-2.51zm14.97 0v13.67h10.56v-2.46h-7.88v-3.2h6.63v-2.46h-6.63v-3.08h7.79v-2.47zm23.61 3.4a8 8 0 0 0-4.04-1.16c-1.66 0-2.86.63-2.86 1.69s1.12 1.34 2.96 1.6l.86.13c2.46.36 4.56 1.42 4.56 3.82 0 3-2.73 4.45-5.8 4.45-2.07 0-4.4-.61-5.91-1.78l1.4-2.15a8 8 0 0 0 4.51 1.47c1.66 0 2.96-.61 2.96-1.73 0-.94-1.16-1.33-3.08-1.59l-.94-.13c-2.41-.34-4.35-1.41-4.35-3.85 0-2.77 2.5-4.4 5.68-4.4 2.24 0 3.82.57 5.33 1.47zm-701.29-8.3h-.05a.3.3 0 0 1-.24-.28 15.7 15.7 0 0 1 3.87-10.34 13.6 13.6 0 0 0-8.17-3.42.3.3 0 0 1-.27-.24.3.3 0 0 1 .19-.31c5.36-1.79 9.9-.02 11.02.49 2.04-4.29.74-8.79.73-8.84a.3.3 0 0 1 .14-.33.3.3 0 0 1 .35.09 15.6 15.6 0 0 1 2.94 10.65c4.7.62 8.58-2.01 8.62-2.04a.3.3 0 0 1 .36.03c.1.1.11.25.03.36-3.28 4.6-8 5.84-9.2 6.09.87 4.67 4.56 7.55 4.6 7.58.11.08.14.23.08.36a.3.3 0 0 1-.34.14 15.6 15.6 0 0 1-8.63-6.88c-4.17 2.27-5.76 6.67-5.78 6.72a.3.3 0 0 1-.27.19Zm-40.81 9.32v9.32h-1.29v-9.32zm4.83 9.32v-9.32h5.51c.85 0 1.6.26 2.1.78q.6.6.62 1.57-.01.61-.29 1.09-.25.42-.67.68v.08q.66.3 1.04.84.47.66.48 1.52c0 .78-.33 1.46-.85 1.94-.56.51-1.35.82-2.17.82h-5.75Zm6.55-7.88a1.7 1.7 0 0 0-1.15-.39h-4.11v2.72h4.36q.6-.02.96-.44a1.4 1.4 0 0 0-.06-1.89m.59 3.96a1.8 1.8 0 0 0-1.37-.59h-4.48v3.45h4.42c.56 0 1.04-.19 1.35-.51q.45-.46.47-1.21 0-.7-.39-1.13Zm5.8-5.41h7.88v1.09h-6.59v2.77h5.94l-.31 1.09h-5.63v3.29h6.81v1.09h-8.1v-9.32Zm17.05 0q1.64.02 2.58.96c.51.54.81 1.29.81 2.24a3.1 3.1 0 0 1-2.18 2.98l1.97 3.14h-1.43l-1.77-2.94h-3.58v2.94h-1.29v-9.32zm1.61 1.73q-.54-.62-1.61-.64h-3.61v4.21h3.58c.64 0 1.2-.2 1.57-.59q.55-.54.56-1.52 0-.9-.48-1.46Zm6.68-.59a5.3 5.3 0 0 1 3.72-1.31 5.4 5.4 0 0 1 3.62 1.2 4.8 4.8 0 0 1 1.38 3.64q-.02 2.11-1.1 3.36c-.82.96-2.28 1.48-3.89 1.48-1.47 0-2.89-.45-3.71-1.27-.84-.82-1.29-2.04-1.29-3.56s.45-2.7 1.27-3.53Zm6.47.68c-.61-.59-1.66-.9-2.75-.9s-2.17.31-2.76.93q-.94.94-.95 2.81 0 1.75.84 2.7c.59.68 1.71 1.04 2.87 1.04s2.28-.36 2.89-1.06q.8-.96.82-2.69-.02-1.88-.96-2.84Zm16.6-1.82h9.22v1.09h-3.97v8.24h-1.29v-8.24h-3.96zm15.82 0 4.22 9.32h-1.37l-.82-1.82h-5.66l-.82 1.82h-1.32l4.22-9.32zm-3.14 6.42h4.7l-2.3-5.22h-.1zm15.39-6.42q1.64.02 2.58.96c.51.54.81 1.29.81 2.24a3.1 3.1 0 0 1-2.18 2.98l1.97 3.14h-1.43l-1.77-2.94h-3.58v2.94h-1.29v-9.32zm1.61 1.73q-.54-.62-1.61-.64h-3.61v4.21h3.58c.64 0 1.2-.2 1.57-.59q.55-.54.56-1.52 0-.9-.48-1.46Zm-39.7-1.07c.76-.57 1.96-.82 3.51-.82 1.4 0 2.34.19 3.52.65v1.08q-1.79-.63-3.49-.63c-1.7 0-2.08.16-2.59.5q-.51.32-.51.89 0 .52.39.78.47.33 1.41.45l2.2.36c1.23.2 2.13.45 2.69.98.42.42.64.95.64 1.72q0 1.36-1.12 2.08c-.82.53-1.97.81-3.65.81-1.4 0-2.49-.25-3.72-.68v-1.1c1.16.41 2.65.66 3.69.66 1.18 0 2.16-.12 2.83-.54q.66-.38.68-1.26c0-1.07-.98-1.27-2.19-1.46l-2.41-.37q-1.3-.18-1.99-.71c-.69-.53-.74-.89-.74-1.59q.02-1.18.85-1.79Zm-53.13 19.86v-4.13h2.21q.58 0 .93.34.26.26.27.69 0 .27-.13.48a1 1 0 0 1-.3.3v.03q.29.13.46.37.21.29.21.67-.01.53-.38.86c-.25.23-.6.36-.96.36h-2.32Zm2.67-3.49a1 1 0 0 0-.51-.17h-1.59v1.2h1.7q.26-.01.43-.19.15-.17.15-.41c0-.24-.06-.32-.18-.43m.26 1.75a.8.8 0 0 0-.6-.26h-1.76v1.53h1.73a.8.8 0 0 0 .6-.23.8.8 0 0 0 .21-.54.7.7 0 0 0-.17-.5Zm2.35-2.39h3.26v.48h-2.69v1.22h2.4v.48h-2.4v1.46h2.79v.48h-3.36zm7.4 0 1.87 4.13h-.6l-.36-.8h-2.57l-.36.8h-.58l1.87-4.13h.75Zm-1.46 2.84h2.14l-1.02-2.31h-.11zm5.12-2.41q.64-.5 1.64-.5c.52 0 1.04.1 1.42.3l-.19.42a3 3 0 0 0-1.22-.23q-.82.01-1.28.41a1.6 1.6 0 0 0-.53 1.24q0 .7.43 1.13c.31.33.81.52 1.38.52q.7-.01 1.22-.23l.19.41c-.38.19-.9.3-1.42.3-.73 0-1.35-.21-1.77-.61q-.59-.55-.6-1.53a2 2 0 0 1 .73-1.64Zm8.28-.43v4.13h-.56v-1.97h-2.56v1.97h-.57v-4.13h.57v1.68h2.56v-1.68zm4.98 0v.48h-2.6v1.31h2.31v.48h-2.31v1.86h-.57v-4.13zm3.55 0q.73 0 1.14.43.35.36.36.99a1.4 1.4 0 0 1-.97 1.32l.87 1.39h-.63l-.78-1.3h-1.45v1.3h-.57v-4.13zm.71.76a1 1 0 0 0-.71-.28h-1.46v1.86h1.45q.44 0 .69-.26a1 1 0 0 0 .25-.67 1 1 0 0 0-.21-.65Zm2.79-.25a2 2 0 0 1 1.56-.58c.62 0 1.15.19 1.51.53q.6.55.61 1.61a2.2 2.2 0 0 1-.49 1.49q-.55.65-1.63.65-1-.01-1.55-.56-.56-.55-.57-1.57c-.01-1.02.2-1.2.56-1.56Zm2.69.3q-.4-.4-1.13-.4c-.73 0-.87.14-1.13.41q-.41.41-.42 1.24 0 .77.37 1.2.4.46 1.18.46c.78 0 .92-.16 1.19-.47q.35-.42.36-1.19 0-.83-.43-1.26Zm6.39-.81v4.13h-.57l-2.66-3.31v3.31h-.55v-4.13h.56l2.66 3.29v-3.29zm1.49 0h3.98v.48h-1.71v3.64h-.57v-3.64h-1.7zm10.23 0q.73 0 1.14.43.35.36.36.99a1.4 1.4 0 0 1-.97 1.32l.87 1.39h-.63l-.78-1.3h-1.45v1.3h-.57v-4.13zm.71.76a1 1 0 0 0-.71-.28h-1.46v1.86h1.45q.44 0 .69-.26a1 1 0 0 0 .25-.67 1 1 0 0 0-.21-.65Zm2.42-.76h3.26v.48h-2.69v1.22h2.4v.48h-2.4v1.46h2.79v.48h-3.36zm5.18.29q.52-.37 1.55-.36c.62 0 1.04.08 1.56.29l-.16.43c-.46-.15-.88-.23-1.38-.23s-.92.07-1.15.22q-.23.14-.23.39 0 .23.17.34.21.14.62.2l.98.16c.54.09.94.2 1.19.43q.28.27.28.76 0 .6-.49.92c-.36.23-.87.36-1.61.36-.62 0-1.15-.1-1.69-.29l.15-.44c.49.16 1.06.23 1.52.23.52 0 .95-.05 1.25-.24q.3-.18.3-.56c0-.47-.43-.56-.97-.65l-1.06-.17a2 2 0 0 1-.88-.32.8.8 0 0 1-.33-.7q.01-.52.38-.79Zm5.41.22a2 2 0 0 1 1.56-.58c.62 0 1.15.19 1.51.53q.6.55.61 1.61a2.2 2.2 0 0 1-.49 1.49q-.55.65-1.63.65-1-.01-1.55-.56-.56-.55-.57-1.57c-.01-1.02.2-1.2.56-1.56Zm2.69.3q-.4-.4-1.13-.4c-.73 0-.87.14-1.13.41q-.41.41-.42 1.24 0 .77.37 1.2.4.46 1.18.46c.78 0 .92-.16 1.19-.47q.35-.42.36-1.19 0-.83-.43-1.26Zm4.65-.81q.73 0 1.14.43.35.36.36.99a1.4 1.4 0 0 1-.97 1.32l.87 1.39h-.63l-.78-1.3h-1.45v1.3h-.57v-4.13zm.71.76a1 1 0 0 0-.71-.28h-1.46v1.86h1.45q.44 0 .69-.26a1 1 0 0 0 .25-.67 1 1 0 0 0-.21-.65Zm2.08-.76h3.98v.48h-1.71v3.64h-.57v-3.64h-1.7zm5.71.29q.52-.37 1.55-.36c.62 0 1.04.08 1.56.29l-.16.43c-.46-.15-.88-.23-1.38-.23s-.92.07-1.15.22q-.23.14-.23.39 0 .23.17.34.21.14.62.2l.98.16c.54.09.94.2 1.19.43q.28.27.28.76 0 .6-.49.92c-.36.23-.87.36-1.61.36-.62 0-1.15-.1-1.69-.29l.15-.44c.49.16 1.06.23 1.52.23.52 0 .95-.05 1.25-.24q.3-.18.3-.56c0-.47-.43-.56-.97-.65l-1.06-.17a2 2 0 0 1-.88-.32.8.8 0 0 1-.33-.7q.01-.52.38-.79Zm382.75-20.79v2.43h3.59v5.77c0 1.69-1.29 2.68-2.88 2.68s-2.61-1.06-2.61-2.52v-15.39c0-1.41 1.21-2.52 2.75-2.52s2.75 1.06 2.75 2.52v3.83h2.83v-3.57c0-3-2.26-5.25-5.57-5.25-3.13 0-5.57 2.25-5.57 5.25v15.14c0 3 2.07 5.26 5.2 5.26 1.83 0 3.11-1.18 3.76-2.63l.48 2.31h1.71V166.2h-6.41Zm55.08 8.01c0 .61.1 3.17-2.41 3.17s-2.41-2.69-2.41-3.17v-5.58h7.65v-6.45c0-3.53-2.04-5.54-5.24-5.54s-5.24 2.01-5.24 5.5v12.16c0 3.35 1.76 5.51 5.24 5.51s5.24-2.39 5.24-5.51v-.78h-2.83zm-4.82-12.07c0-1.15.29-3.06 2.41-3.06 2.23 0 2.41 2 2.41 3.06v4.06h-4.82zm-35.9-5.49c-3.37 0-5.01 2.58-5.01 5.18v1.17h2.83v-1.13c0-1.8.81-2.72 2.13-2.72s2.14.86 2.14 2.72v4.09c-1.12.25-2.52.58-3.27.81a5.7 5.7 0 0 0-3.96 4.08c-.43 1.63-.49 3.82.02 5.51.63 2.09 2.25 3.48 4.48 3.48 1.98 0 2.96-1.44 3.42-2.63l.44 2.31h1.7v-17.67c0-2.78-1.55-5.18-4.93-5.18Zm-.5 20.44c-.9-.06-1.59-.56-1.9-1.57a8 8 0 0 1 .02-4.04 4 4 0 0 1 2.11-2.52 17 17 0 0 1 2.36-.88v6.29c0 2.04-1.21 2.81-2.6 2.72Zm14.58-17.88c.81.29.99 1.18.99 1.98v1.81h2.83v-2.2c0-2.97-1.4-3.98-3.05-4.13a3.7 3.7 0 0 0-3.23 1.34 9 9 0 0 0-1.2 1.75l-.11-2.85h-2.36v22.58h2.83v-16.06c0-1.79.47-2.82 1.23-3.55.54-.52 1.34-.94 2.08-.67Zm38.33 0c.81.29.99 1.18.99 1.98v1.81h2.83v-2.2c0-2.97-1.4-3.98-3.05-4.13a3.7 3.7 0 0 0-3.23 1.34 9 9 0 0 0-1.2 1.75l-.11-2.85h-2.36v22.58h2.83v-16.06c0-1.79.47-2.82 1.23-3.55.54-.52 1.34-.94 2.08-.67Zm-25.98 0c.81.29.99 1.18.99 1.98v18.3h2.83v-18.69c0-2.97-1.4-3.98-3.05-4.13a3.7 3.7 0 0 0-3.23 1.34 9 9 0 0 0-1.2 1.75l-.11-2.85h-2.36v22.58h2.83v-16.06c0-1.79.47-2.82 1.23-3.55.54-.52 1.34-.94 2.08-.67Zm-196.41-2.85q.4 0 .68-.26.27-.28.38-.7l.06-.26c-.18.16-.5.25-.86.29-.51.06-.85.14-.85.49 0 .27.27.43.59.43Zm-6.63 3.87c-.3 0-.71.07-.95.17l-.59 2.8-.26 1.22c.14.06.41.09.64.09 1.42 0 2.37-1.5 2.37-3.06q.01-1.23-1.21-1.23Zm3.36-5.39q.34 0 .52-.23t.26-.62l.3-1.42-.22-.06c-.82 0-1.34.99-1.34 1.71q0 .6.48.61Zm-10.75.01q.35-.02.59-.33c.29-.37.44-.95.44-1.35 0-.37-.14-.63-.52-.63a.8.8 0 0 0-.59.33 2.4 2.4 0 0 0-.44 1.35c0 .37.15.63.52.63m7.07-.01q.33 0 .51-.23.19-.24.27-.62l.3-1.43a1 1 0 0 0-.28-.05c-.72 0-1.31.88-1.31 1.7q.02.61.52.62Zm9.93 6.08c0-.41-.26-.69-.72-.69-.99 0-1.76 1.02-2.01 1.89.19.06.64.12.94.12 1.13 0 1.79-.51 1.79-1.32m-65.19 18.89h38.33V153.9c-4.92.17-9.48.85-14.01 2.07a122 122 0 0 0-3.93 21 5 5 0 0 1-1.12.16c-1.55 0-2.43-.62-2.43-2.09 0-3.56 1.4-10.99 3.16-17.76a73 73 0 0 0-6.49 2.57 89 89 0 0 0-2.08 13.1c-.2.1-.75.17-1.09.17-1.24 0-2.1-.82-2.1-2.23 0-2.37.46-5.66 1.17-9.09q-2.77 1.41-5.65 3.06a2 2 0 0 1-.21-1.15c.06-.41.32-1.3 1.3-2 1.92-1.38 3.01-1.91 5.28-3.13a64 64 0 0 1 3.43-10.61c.73-1.58 1.67-2.19 3.28-2.19.43 0 1.01.1 1.32.2a71 71 0 0 0-3.8 10.53 68 68 0 0 1 6.54-2.54 54 54 0 0 1 3.13-8.68 3 3 0 0 1 2.86-1.76c.63 0 1.32.1 1.72.25a86 86 0 0 0-3.32 8.9 64 64 0 0 1 13.03-1.95v-9.22h-38.33z" class="cls-1"/><path d="M408.3 141.5v38.29h38.34V141.5zm32.28 11.73q.18-.88.17-1.3h.71l.08.41c.24-.27.63-.47 1.08-.47.71 0 1.21.41 1.01 1.35l-.47 2.2h-.12c-.85 0-.64-.8-.6-.96l.25-1.2c.1-.49-.07-.7-.39-.7-.65 0-.81.82-.91 1.25l-.33 1.55h-.93zm-3.61-1.3h.71l.09.41c.24-.27.63-.47 1.08-.47.71 0 1.21.41 1.01 1.35l-.47 2.2h-.13c-.85 0-.63-.8-.6-.96l.25-1.2c.1-.49-.07-.7-.39-.7-.65 0-.81.82-.9 1.25l-.33 1.55h-.93l.45-2.13q.18-.88.17-1.3Zm-2.18 2.55.95-4.53h.93l-1.15 5.49h-.13c-.85 0-.64-.81-.6-.96m-4.48-.58.42-1.95h.93l-.42 1.98c-.03.17-.22.82.37.82.66 0 .81-.82.9-1.25l.33-1.55h.93l-.64 2.98q-.18.88-.57 1.33a2 2 0 0 1-1.54.61c-.78 0-1.37-.35-1.37-.95q-.01-.6.8-.82a1 1 0 0 1-.23-.61q0-.28.09-.59m-1.66-2.01q.67.01 1.21.34l-.68 3.18h-.13c-.28 0-.53-.13-.59-.37-.2.23-.56.4-.98.4-.71 0-1.14-.47-1.14-1.22a2.3 2.3 0 0 1 2.31-2.33m-3.71 0c.13 0 .28.01.36.04l.39-1.82h.94l-1.14 5.31h-.13c-.28 0-.52-.13-.59-.37-.2.23-.56.4-.98.4-.71 0-1.17-.47-1.17-1.23a2.3 2.3 0 0 1 2.31-2.32Zm-2.62-1.39a.4.4 0 0 1 .42.42c0 .33-.33.63-.65.63a.4.4 0 0 1-.42-.42c0-.33.32-.63.64-.63Zm-1.31 3.98.54-2.53h.93l-.74 3.49h-.13c-.85 0-.64-.81-.6-.96m-1.82 0 .78-3.75h.93l-.99 4.71h-.13c-.85 0-.64-.81-.6-.96Zm-1.56-2.59c.78 0 1.35.42 1.35 1.24 0 .74-.3 1.45-.83 1.87q-.51.43-1.26.44c-.79 0-1.35-.42-1.35-1.25 0-.74.3-1.44.83-1.86q.5-.43 1.27-.44Zm-6.68 1.46a.7.7 0 0 1 .37-.42l.44-.21.58-2.8h.93l-.42 2.01-.08.41c.51-.14 1.04-.27 1.75-.4l.42-2.01h.93l-1.15 5.49h-.13c-.84 0-.64-.81-.6-.96l.36-1.7v-.04c-.68.13-1.22.26-1.74.4l-.48 2.31H412c-.84 0-.64-.81-.6-.96l.23-1.08-.66.25a.4.4 0 0 1 0-.27Zm3.92 11.81h-2.79c-1.09 0-.82-1.05-.78-1.25l1.32-6.38h4.44q-.01.13-.06.25c-.18.49-.47.59-.97.6h-2.38l-.5 2.34h2.6q-.01.13-.06.25c-.18.48-.47.58-.95.59h-1.77l-.56 2.75h3.47l-.06.25c-.18.49-.47.59-.97.6Zm5.55.09q-.51 0-.83-.3a2 2 0 0 1-.43-.72l-.5-1.17-1.73 2.09h-1.06l2.47-2.87-1.18-2.76h1.2l.87 2.06 1.64-2.06h1.05l-2.36 2.82.75 1.76.03.06.44 1.04q-.18.05-.36.05m2.88 0c-.27 0-.62-.05-.87-.11l-.49 2.31h-.15c-1.03 0-.78-.99-.74-1.18l.66-3.1.35-1.65.38-1.82c1.52-.33 2.19-.29 2.19-.29 1.27 0 2.13.63 2.13 1.96 0 2.02-1.36 3.88-3.46 3.88m5.13-2.56-.28 1.31-.25 1.16h-.15c-1.04 0-.78-.99-.74-1.18l.11-.48.68-3.17c.09-.57.07-.82.07-.82h.85v.87c.32-.56.84-.98 1.56-.98.12 0 .31.02.4.05l-.21.94-.36-.03c-.4 0-.67.13-.9.35-.42.42-.59 1.17-.77 1.99Zm3.98 1.75c.64 0 1.42-.29 1.88-.59l-.17.86a4 4 0 0 1-2 .53c-1.27 0-2.19-.74-2.19-2.04 0-1.84 1.45-3.8 3.38-3.8.92 0 1.76.46 1.76 1.46 0 1.15-1.1 2.1-2.8 2.1-.35 0-.84-.06-1.15-.15l-.02.34c0 .81.48 1.29 1.31 1.29m4.18.8c-.6 0-1.29-.14-1.79-.45l.18-.81c.46.34 1.1.49 1.67.49.83 0 1.29-.37 1.29-.85 0-.42-.34-.61-1.1-.96-.68-.3-1.3-.7-1.3-1.51 0-1.03 1.01-1.74 2.4-1.74.5 0 1.14.14 1.49.31l-.16.78a3 3 0 0 0-1.38-.32c-.77 0-1.26.36-1.26.81 0 .37.38.6.99.88.88.42 1.43.79 1.43 1.58 0 1.14-1.02 1.8-2.44 1.8Zm6.97-4.75a3 3 0 0 0-1.38-.32c-.77 0-1.26.36-1.26.81 0 .37.38.6.99.88.88.42 1.43.79 1.43 1.58 0 1.14-1.03 1.8-2.44 1.8-.6 0-1.29-.14-1.79-.45l.18-.81c.46.34 1.1.49 1.68.49.82 0 1.29-.37 1.29-.85 0-.42-.34-.61-1.11-.96-.67-.3-1.3-.7-1.3-1.51 0-1.03 1.01-1.74 2.4-1.74.5 0 1.14.14 1.49.31l-.16.78Zm81.77 18.39c-.5.45-1.37.68-2.37.8-1.4.16-2.35.39-2.35 1.36 0 .76.74 1.19 1.63 1.19.72 0 1.38-.25 1.86-.71.5-.49.85-1.17 1.05-1.93l.17-.7Zm1.45-6.66c.53-2.46 3-2.04 3-2.04l-1.74 8.2c-.35 1.65-.82 2.82-1.58 3.67a5.5 5.5 0 0 1-4.23 1.67c-2.15 0-3.76-.97-3.76-2.6 0-1.11.7-1.88 2.19-2.25a2.5 2.5 0 0 1-.64-1.69c0-.49.12-1.07.23-1.64l.67-3.15c.58-2.7 3.03-2.21 3.03-2.21l-1.15 5.44c-.1.47-.61 2.26 1.01 2.26 1.81 0 2.23-2.26 2.48-3.44zm-10.4-.43a1.3 1.3 0 0 0-.58-.14c-2.26 0-3.68 2.72-3.68 4.71q0 1.68 1.3 1.69a1.8 1.8 0 0 0 1.42-.62c.35-.41.56-1.01.72-1.71zm2.73-.88-1.83 8.89h-.34c-.78 0-1.46-.27-1.69-1-.52.57-1.45 1-2.61 1-1.94 0-3.13-1.28-3.13-3.37a6.36 6.36 0 0 1 9.6-5.53m-9.02-5.91-3.05 14.8h-.34c-.78 0-1.46-.28-1.68-.99-.54.57-1.45.99-2.61.99-1.95 0-3.23-1.3-3.23-3.38a6.34 6.34 0 0 1 7.32-6.31c-.02.11.41-1.92.63-3.08.47-2.38 2.76-2.05 2.96-2.02m-3.94 6.8a2 2 0 0 0-.76-.15c-1.98 0-3.59 2.43-3.59 4.69 0 1.11.52 1.71 1.39 1.71.62 0 1.05-.23 1.4-.62.35-.41.58-1.01.74-1.71zm48.5-1.78c-1.23 0-2.28.56-2.96 1.3 0 0-.09-1.87-2.56-1.13.45 1.31.2 1.77-.3 4.41l-.52 2.55c-.09.44-.67 2.65 1.66 2.65h.34l.92-4.44c.25-1.19.73-3.45 2.53-3.45.89 0 1.35.56 1.07 1.92l-.68 3.31c-.1.42-.68 2.65 1.65 2.65h.35l1.25-6.06c.56-2.59-.79-3.73-2.74-3.73m-77.42-3.56-.79 3.8-4.29.85 1.26-6.11c-.39-.07-2.52-.24-2.95 1.98l-2.1 10.17c-.1.49-.67 2.65 1.65 2.65h.36l1.24-6 4.29-.85-.87 4.21c-.09.43-.67 2.65 1.65 2.65h.35l3.17-15.36s-2.46-.44-2.96 2.01m66.89 3.56c-1.23 0-2.28.56-2.96 1.3 0 0-.09-1.87-2.56-1.13.45 1.31.2 1.77-.3 4.41l-.52 2.55c-.09.44-.67 2.65 1.66 2.65h.34l.92-4.44c.25-1.19.73-3.45 2.53-3.45.89 0 1.35.56 1.07 1.92l-.68 3.31c-.1.42-.68 2.65 1.65 2.65h.34l1.25-6.06c.56-2.59-.79-3.73-2.74-3.73m-9.08-3.67-2.23 10.81c-.12.52-.63 2.65 1.65 2.65h.35l3.16-15.36c-.6-.11-2.51-.09-2.93 1.9m-48.63 7.11c0-1.01-.39-1.73-1.41-1.73-.64 0-1.21.37-1.63.92a6.6 6.6 0 0 0-1.21 3.71c0 1.01.41 1.73 1.44 1.73.64 0 1.18-.37 1.61-.92a6.6 6.6 0 0 0 1.2-3.71m2.61-.02c0 2.05-.84 3.99-2.28 5.16a5.4 5.4 0 0 1-3.48 1.21c-2.16 0-3.71-1.17-3.71-3.44 0-2.04.84-3.97 2.27-5.13a5.4 5.4 0 0 1 3.48-1.21c2.15 0 3.71 1.15 3.71 3.42m6.74-1.3c-.51 2.4-1.04 5.02-1.04 5.02-.09.43-.67 2.65 1.66 2.65h.34l1.98-9.62c-.09-.01-2.44-.41-2.94 1.95m-3.62-5.15-2.1 10.17c-.1.43-.67 2.65 1.65 2.65h.35l3.05-14.8s-2.45-.45-2.95 1.98m6.11-.8c-.9 0-1.77.82-1.77 1.73 0 .68.48 1.15 1.14 1.15.9 0 1.79-.82 1.79-1.73 0-.68-.51-1.15-1.17-1.15m19.99-26.44c-.37 1.36-.75 2.84-1.18 4.54a124 124 0 0 0-2.48 15.08c-.22.1-.84.18-1.15.18-.98 0-2.14-.6-2.21-2.17-.09-1.94 1.04-9.09 2.74-15.72l.16-.62q-3.31 1.14-6.08 2.34a85 85 0 0 0-1.94 12.18c-.07.07-.71.17-1.03.17-1.17 0-1.99-.78-1.98-2.11.01-2.6.59-6.01 1.08-8.47a75 75 0 0 0-5.37 2.87 2.4 2.4 0 0 1-.2-1.2c.06-.39.29-1.25 1.24-1.91a52 52 0 0 1 5.06-3.08c.95-3.87 2.23-7.8 3.31-10.13.69-1.5 1.58-2.07 3.1-2.07.4 0 .95.09 1.24.19a70 70 0 0 0-3.66 10.08q2.82-1.23 6.15-2.33c1.08-3.77 2.05-6.47 2.96-8.19a3 3 0 0 1 2.35-1.61c.75-.09 1.41 0 1.99.16a90 90 0 0 0-3.13 8.4q2.3-.61 4.81-1.14c.91-.19 4.23-.78 4.84 2.43a67 67 0 0 0-10.64 2.12M276.95 179.8v-17.11h10.42v2.66h-7.51v4.48h6.78v2.57h-6.78v4.74h7.51v2.66zm31.52-17.11h-3.24l-4.78 11.18-4.8-11.18h-3.33l7.8 17.11h.58zm15.7 17.11v-2.66h-7.51v-4.74h6.78v-2.57h-6.78v-4.48h7.51v-2.66h-10.42v17.11zm21.08 0v-17.11h-2.91v10.81l-10.25-10.81h-.77v17.11h2.91v-10.97l10.39 10.97zm-83.93-17.11h-4.37v17.11h4.37zm-7.29 6.57h-4.37v17.11h4.37zm-7.29-6.57h-4.37v17.11h4.37zm-7.29 2.92h-4.37v17.11h4.37zm-165.88-5.13h-1.29v-12.92l1.16.01 6.44 9.33v-9.33h1.29v12.91h-1.16l-6.44-9.33zm-14.7 0-3.19-12.92 2.13.01 2.29 10.09 2.4-10.09h1.02l2.2 9.39 2.16-9.39h1.18l-3.19 12.91h-1.06l-2.26-9.67-2.35 9.67zm-24.34-5.81h.98v.02l3.7 5.82h2.15l-4.25-6.16.07-.02c1.93-.46 3.03-1.77 3.03-3.58a3 3 0 0 0-1.48-2.64c-.97-.54-1.86-.54-3.22-.54h-3.03v12.94h2.05zm.01-6.13h.85q.47 0 .94.03.45.03.86.24c.54.29.88 1.15.88 2.18q0 2.82-2.83 2.83h-.71zm-6.11 10.39.59.86-.05.03c-.97.56-2.06.86-3.18.87a4.8 4.8 0 0 1-3.98-1.95 7.8 7.8 0 0 1-1.34-4.63c0-3.34 1.73-6.7 5.61-6.7h.09q1.46 0 2.77.64l.05.03-.49.9-.06-.03a5 5 0 0 0-2.14-.54c-2.06 0-3.5 2.32-3.5 5.65 0 3.87 1.74 5.64 3.36 5.64a4.5 4.5 0 0 0 2.21-.72l.06-.04Zm19.95 1.77c3.17 0 5.22-2.68 5.22-6.82q0-3.43-1.65-5.12a4.7 4.7 0 0 0-3.36-1.36 4.8 4.8 0 0 0-3.67 1.64c-1.04 1.18-1.59 2.91-1.59 4.99v.03c0 4.03 1.98 6.63 5.06 6.63Zm-2.77-6.62c0-3.62 1.09-5.78 2.92-5.78s2.78 1.98 2.78 5.74c0 5.43-2.39 5.7-2.87 5.7-1.31 0-2.83-1.48-2.83-5.64zM92 159.45v1.03h-6.8v-12.92l6.72.01v1.01h-4.64v4.6h4.34v1.01h-4.34v5.26zm-54.09 8.06c-.91-.59-1.91-.64-3.45-.64h-3.41v12.92h2.08v-5.71h1.64c3.28 0 4.45-2 4.45-3.86 0-.69-.17-1.96-1.3-2.72Zm-3.57 5.58h-1.22v-5.26h1.32l.81.02q.45.03.86.22c.54.28.88 1.13.88 2.17q0 2.84-2.65 2.85m36.88-5.39-6.27 11.01h6.61v1.09h-9.04v-.81l6.32-11.07h-5.93v-1.04h8.31zm-15.18-.82h-1.06l-4.5 12.92h1.27l1.48-4.54h3.56l1.52 4.54h2.26zm-2.33 7.48 1.47-4.59 1.44 4.59zm-9.76 4.4h4.58v1.04h-6.65v-12.92h2.07zm34.03-11.88-4.5 12.92h1.27l1.48-4.54h3.56l1.52 4.54h2.26l-4.54-12.92h-1.06Zm-1.27 7.48 1.47-4.59 1.44 4.59h-2.9Zm630.51-86.23-8.98-13h-2.13v16.7h2.12v-12.9l8.98 12.9h2.13v-16.7h-2.12zm-82.05-13h2.12v16.69h-2.12zm-5.76 0-7.98 8.34v-8.34h-2.12v16.69h2.12v-5.18l2.72-2.85 4.81 6.61s.95 1.42 2.38 1.42h1.07v-2.14h-1.03c-.39 0-.78-.64-.78-.64l-4.95-6.81 6.76-7.09zm37.35 8.8h-3.47v-6.66h3.47c2.09 0 3.79 1.25 3.79 3.34s-1.7 3.32-3.79 3.32m0-8.8h-5.58v16.69h2.12v-5.75h3.47c3.27 0 5.93-2.2 5.93-5.46s-2.66-5.48-5.93-5.48m7.2 2.2h5.26v14.5h2.14v-14.5h5.26v-2.2h-12.66zm21.27 12.49c-3.38 0-6.13-2.84-6.13-6.33s2.75-6.36 6.13-6.36 6.15 2.85 6.15 6.36-2.76 6.33-6.15 6.33m0-14.89c-4.59 0-8.33 3.84-8.33 8.56s3.74 8.54 8.33 8.54 8.33-3.83 8.33-8.54-3.74-8.56-8.33-8.56m-45.98 8.99-6.51-8.79h-2.21v16.7h2.12V78.91l6.03 7.96h1.14l6.04-7.96v12.92h2.12v-16.7h-2.21zm388.86 3.19c-.76 1.29-3.3 2.66-5.55 2.33-2.54-.4-4.93-2.23-4.93-6.57 0-1.71.27-3.03.68-4.05 1.18-2.55 3.31-3.1 4.28-3.1 1.44 0 2.31.44 2.52.71-.41.2-.75.57-.91 1.05a2 2 0 0 0 1.12 2.59 2.1 2.1 0 0 0 2.65-1.19c.33-.68.07-1.54-.36-2.08-.47-.54-1.78-1.87-4.86-1.87-5.88 0-9.11 4.21-9.11 8.44v.02c0 4.73 3.56 8.64 7.94 8.64s6.49-2.87 6.97-4.67zM986.6 75.14v.57c3.16.3 2 3.02 1.14 5.32-.66 1.76-1.67 4.21-2.18 5.43l-3.33-8.19c-.33-.84-.9-2.57 1.05-2.57v-.56h-7.56v.56c.62 0 1.47-.14 2.26 1.75 0 0 .26.4 6.09 14.26h.4l1.54-3.81 2.73-6.74c1.07-2.51 1.88-3.86 2.55-4.6.83-.91 1.43-.87 2.04-.87v-.56zm15.67 15.83c-2.75 0-4.06-1.42-4.13-7.45.08-5.99 1.39-7.65 4.13-7.65s4.01 1.66 4.08 7.65c-.07 6.02-1.36 7.45-4.09 7.45m8.2-7.45c0-4.65-2.98-8.6-8.2-8.6s-8.19 3.94-8.2 8.6v.02c0 4.68 2.97 8.38 8.2 8.38s8.2-3.69 8.2-8.38zm29.26 7.45c-2.75 0-4.06-1.42-4.13-7.45.08-5.99 1.39-7.65 4.13-7.65s4.01 1.66 4.08 7.65c-.07 6.02-1.36 7.45-4.09 7.45m8.2-7.45c0-4.58-2.88-8.46-7.95-8.59h-.5c-5.07.13-7.94 4.01-7.95 8.59v.02c0 4.68 2.97 8.38 8.2 8.38s8.2-3.69 8.2-8.38zm-833.96-8.35h-16.72v.4c.36.26 2.11.95 2.11 3.49v8.72h-.02l-9.58-12.61h-3.53v.4c.38.1 2.61 1.31 2.61 3.73v8.6c0 2.54-1.76 3.23-2.11 3.49v.4h4.74v-.4c-.36-.26-2.11-.95-2.11-3.49v-9.14h.05l10.08 13.28h.4V79.08a3.5 3.5 0 0 1 3.61-3.38h2.37v13.63c0 1.59-1.76 2.07-2.11 2.07v.4h6.6v-.4c-.36 0-2.11-.48-2.11-2.07V75.7h2.09c2.63 0 3.84 2.95 4.06 3.47h.26l-.66-3.99ZM185.69 87.8c-.21.52-1.42 3.47-4.06 3.47h-4.18V83.5h1.68c2.63 0 2.49 1.07 2.92 2.3h.26v-5.13h-.26c-.43 1.24-.28 2.3-2.92 2.3h-1.68v-7.29h2.75c2.63 0 3.84 2.94 4.06 3.47h.26l-.66-3.99h-10.89v.4c.36 0 2.11.71 2.11 2.3v11.21c0 1.59-1.28 2.3-2.11 2.3v.4h12.31l.66-3.99h-.26Zm-14.73-4.08h-4.48v.45c.93 0 2.11.19 2.11 1.54v5.18c-.78.33-1.85.62-3.49.62-4.39 0-5.72-4.37-5.72-8.26s1.57-7.79 5.72-7.79c2.18 0 4.32 1.78 5.05 4.13h.24l-.43-3.71a14 14 0 0 0-4.86-.95c-4.93 0-8.26 3.63-8.26 8.31 0 4.92 3.08 8.79 8.26 8.79 2.09 0 3.87-.69 4.72-.69.36 0 .64.17.71.45h.43zm-15.11 4.08c-.21.52-1.42 3.47-4.06 3.47h-4.18V83.5h1.68c2.63 0 2.49 1.07 2.92 2.3h.26v-5.13h-.26c-.43 1.23-.28 2.3-2.92 2.3h-1.68v-7.29h2.75c2.63 0 3.84 2.95 4.06 3.47h.26l-.66-3.99h-10.89v.4c.36 0 2.11.71 2.11 2.3v11.21c0 1.59-.57 2.26-1.64 2.3-.64 0-1.68.21-3.89-2.18l-4.77-5.11c2.04-.33 4.39-1.54 4.39-4.27 0-3.3-2.63-4.66-5.6-4.66h-7.33v.4c.36 0 2.11.71 2.11 2.3v11.21c0 1.59-1.76 2.3-2.11 2.3v.4h6.6v-.4c-.36 0-2.11-.71-2.11-2.3v-4.89h.17c1.61.21 2.23 1.35 6.48 5.98 1.64 1.78 3.3 1.57 6.07 1.61h11.84l.66-3.99h-.26Zm-24.96-4.13v-7.98h2.85c1.8 0 3.18 1.76 3.18 4.06s-1.38 3.92-3.18 3.92zm-110.3 23.48c.03-.09.14-.07.14 0 .06 1.18.66 1.92 1.73 1.92s1.68-.62 1.68-1.42c0-1.01-.66-1.43-1.8-2-.9-.45-1.7-1.11-1.67-2.31.02-1.12.87-1.87 2.23-1.87.51 0 .92.08 1.15.16.31.11.47.27.44.69-.01.17-.09.64-.11.9-.01.1-.14.06-.14 0-.07-.75-.52-1.46-1.48-1.46-.82 0-1.41.44-1.41 1.31s.61 1.36 1.37 1.74c1.55.77 2.18 1.41 2.15 2.56-.04 1.21-1.07 1.99-2.47 1.99-.65 0-1.1-.12-1.41-.26-.27-.12-.49-.36-.51-.66-.04-.4.03-.95.11-1.3m9.44.68c.04 1.03.14 1.17.87 1.23.1 0 .1.13 0 .13-.45-.01-.96-.04-1.32-.04s-.89.02-1.29.04c-.1 0-.09-.13 0-.13.61-.08.77-.16.8-1.23a158 158 0 0 0 0-4.72c-.04-1.26-.24-1.26-.8-1.34-.09 0-.11-.13 0-.13.34.01.92.04 1.29.04l1.13-.04c.1 0 .09.12 0 .13-.54.1-.69.11-.71 1.34l-.01 2.52zm7-2.03c-.5.75-1.16 1.87-1.51 2.5-.27.5-.29.68.37.75.09 0 .11.13 0 .13l-1.11-.04-1.17.04c-.09 0-.09-.12 0-.13.44-.04.75-.13 1.16-.7.64-.86 1.4-1.97 2.02-2.93-.65-1.02-1.39-2.16-1.93-2.96-.35-.51-.51-.63-1-.68-.09 0-.11-.13 0-.13.39.01.86.04 1.17.04q.58 0 1.27-.04c.11 0 .09.13 0 .13-.56.06-.56.24-.35.63q.59 1.05 1.36 2.33.7-1.11 1.25-2.15c.36-.72.27-.74-.18-.81-.09 0-.11-.13 0-.13l1.07.04.94-.04c.1 0 .1.13 0 .13-.36.05-.6.07-1.05.7a54 54 0 0 0-1.78 2.6c.62.97 1.6 2.49 2.18 3.29.36.5.6.64 1.01.68.09 0 .1.13 0 .13-.4-.01-.86-.04-1.17-.04q-.54 0-1.18.04c-.1 0-.09-.13 0-.13.49-.05.47-.24.25-.63-.32-.57-1.05-1.68-1.62-2.62m11.63 1.36c.03-.09.14-.07.14 0 .06 1.18.66 1.92 1.73 1.92s1.68-.62 1.68-1.42c0-1.01-.66-1.43-1.8-2-.9-.45-1.7-1.11-1.67-2.31.02-1.12.87-1.87 2.23-1.87.51 0 .92.08 1.15.16.31.11.47.27.44.69-.01.17-.09.64-.11.9-.01.1-.14.06-.14 0-.07-.75-.52-1.46-1.48-1.46-.82 0-1.41.44-1.41 1.31s.61 1.36 1.37 1.74c1.55.77 2.18 1.41 2.15 2.56-.04 1.21-1.07 1.99-2.47 1.99-.65 0-1.1-.12-1.41-.26-.27-.12-.49-.36-.51-.66-.04-.4.03-.95.11-1.3m9.4.86c.03.73.17.77.82.78h1.05c1.05-.02 1.25-.67 1.4-1.43.01-.09.15-.1.15 0 0 .46 0 1.18-.06 1.48-.05.27.39.36-.09.36-.62 0-1.76-.05-2.94-.05-.27 0-1.63.02-2.06.04-.1 0-.09-.13 0-.13.66-.07.8-.18.82-1.23q.04-1.27.03-2.56c0-.74 0-1.4-.03-2.16-.02-1.01-.04-1.23-.86-1.32-.09 0-.11-.13 0-.13.41.01 1.05.04 1.46.04.79 0 1.96-.03 2.62-.04.36 0 .56.01.54.3-.02.32-.07.75-.14 1.17-.01.08-.16.08-.15 0-.01-.61-.21-1.01-.85-1.06-.61-.05-1.02-.05-1.72-.04l-.01 3.04c.51.02 1.32.04 2.08-.01.36-.02.35-.13.44-.12.05.01.01.06-.01.3a7 7 0 0 1-.12.74c-.03.09-.15.09-.15 0 0-.49-.31-.49-.82-.51h-1.41c-.01.6 0 1.79.03 2.55m14.09 1.04c0 .22-.01.26-.04.27-.06.02-.1-.01-.27-.21-.8-.89-1.63-1.77-3.16-3.27-1.2-1.18-2.16-2.15-2.68-2.62.01.94.03 3.26.11 4.96.03.49.24.8 1 .88.09 0 .11.13 0 .13l-1.32-.04-.99.04c-.1 0-.09-.13 0-.13.45-.08.61-.19.66-.81.1-1.35.12-3.28.12-4.28l-.01-2.16c0-.18 0-.23.05-.24.04-.01.09.01.26.19.92 1 1.94 2.04 3.18 3.26 1.09 1.06 2 1.97 2.67 2.58 0-1.43.03-3-.06-4.69-.05-.89-.15-1.02-.85-1.12-.09 0-.1-.13 0-.13l1.14.04.94-.04c.1 0 .08.13 0 .13-.47.07-.6.4-.62.96-.08 1.87-.12 3.66-.12 6.32m4.51-1.92c.03-.09.14-.07.14 0 .06 1.18.66 1.92 1.73 1.92s1.68-.62 1.68-1.42c0-1.01-.66-1.43-1.8-2-.9-.45-1.7-1.11-1.67-2.31.03-1.12.87-1.87 2.23-1.87.51 0 .92.08 1.15.16.31.11.47.27.44.69-.01.17-.09.64-.11.9-.01.1-.14.06-.14 0-.08-.75-.52-1.46-1.49-1.46-.82 0-1.41.44-1.41 1.31s.61 1.36 1.37 1.74c1.55.77 2.18 1.41 2.15 2.56-.04 1.21-1.07 1.99-2.47 1.99-.65 0-1.1-.12-1.41-.26-.27-.12-.49-.36-.51-.66-.04-.4.03-.95.11-1.3m9.42.86c.03.73.18.77.82.78h1.05c1.05-.02 1.25-.67 1.4-1.43.01-.09.15-.1.15 0 0 .46 0 1.18-.06 1.48-.05.27-.26.36-.74.36-.62 0-1.76-.05-2.95-.05l-1.41.04c-.1 0-.09-.13 0-.13.66-.07.8-.18.82-1.23q.02-1.27.02-2.56c0-.74 0-1.4-.02-2.16-.03-1.01-.04-1.23-.86-1.32-.09 0-.11-.13 0-.13.41.01 1.05.04 1.46.04.79 0 1.96-.03 2.62-.04.36 0 .56.01.54.3-.03.32-.07.75-.14 1.17-.01.08-.16.08-.15 0-.01-.61-.21-1.01-.85-1.06-.61-.05-1.02-.05-1.72-.04l-.01 3.04c.51.02 1.32.04 2.08-.01.36-.02.35-.13.44-.12.05.01.01.06-.01.3-.03.29-.09.62-.13.74-.02.09-.15.09-.15 0 0-.49-.31-.49-.82-.51h-1.41c-.01.6 0 1.79.02 2.55m6.96-.86c.03-.09.14-.07.14 0 .06 1.18.66 1.92 1.73 1.92s1.68-.62 1.68-1.42c0-1.01-.66-1.43-1.8-2-.9-.45-1.7-1.11-1.67-2.31.03-1.12.87-1.87 2.23-1.87q.78.02 1.15.16c.31.11.47.27.44.69-.01.17-.09.64-.11.9-.01.1-.14.06-.14 0-.08-.75-.52-1.46-1.49-1.46-.82 0-1.41.44-1.41 1.31s.61 1.36 1.37 1.74c1.55.77 2.18 1.41 2.15 2.56-.04 1.21-1.07 1.99-2.47 1.99-.65 0-1.1-.12-1.41-.26-.27-.12-.49-.36-.51-.66-.04-.4.03-.95.11-1.3M81.49 91.53s0 .05.06.01c0 0-.03-.04-.06-.01m-.67.38.11-.02-.02-.01zm-.16.12c-.08.08-.27.09-.29.18.08-.06.25-.11.37-.18l-.08-.02zm-.53.46.06-.03h.01c-.15.03-.06 0-.07.03m.06-.03s.07-.03 0 0m-.26.15.05-.05h-.09s-.05.07.04.05m-.09-.07h-.05zm.05-.01h-.05.1s-.07-.03-.05 0m.1-.09c.09 0 .04.02 0 .06.16-.05.17-.11 0-.06m.37-.33-.04.05s.08-.05.11-.05zm-1 .65.09-.06h-.07s-.03.05-.02.06m-.08-.08h.1s-.02-.02-.1 0m.47-.21h-.03.2zm-.81.35.11.04-.06-.03h-.05Zm-.21.03a.4.4 0 0 1-.2.03q.08.03.19.04c-.05-.02.05-.05 0-.07m.33-.07q.07-.03.07-.06h-.04zm-.05-.04.08-.01zm.44-.23c-.1.06.02.06.08.07-.09-.01-.03-.05-.08-.07m-.18.12-.1.03h.11z" class="cls-1"/><path d="m79.13 92.67.04-.01-.06-.01zm-.48.09-.18.02q.09 0 .15.02c.07 0 .04-.03.03-.04m-.73.01v-.01zm.74-.02s-.01 0 0 0h.11q-.03-.02-.1 0m-.3.05-.08.02c0 .01.06 0 .08-.02m.47-.03h-.08l.06.02zm-.82.05.15-.05h-.24q0 .02.09.05" class="cls-1"/><path d="M78.38 92.8s-.07-.01-.01-.02h-.19q.1 0 .2.03Z" class="cls-1"/><path d="m78.38 92.79.1-.02h-.11c.15-.03-.11-.06.09-.05-.08-.02-.04-.05-.16-.05-.06.05.04.07.07.11v.02Zm.93-.34v-.01q-.03 0 0 .01m-.07.04s-.06.08-.07.12l.15-.11h.02c.08-.04 0-.04-.02-.05 0 .01.04.01 0 .04q-.06.02-.07 0m-.6.15h.16c-.01-.02 0-.04-.09-.03v-.02zm-.82.12.09.08-.02-.05zm-.2 0 .06.03v-.04zm-3.77-3.48s.03.07.08.13l-.03-.11h-.05Zm1.64 2.56.14.07q-.01-.05-.14-.07m1.63-7.61-.05-.01q0 .02.05.01m-1.63 7.61-.11-.1-.03-.01q.04.08.14.11m1.32.73s.04.02 0 0m.1.03h-.04zm-.16-.06.06.02h.01zm-2.54-2.38.03.04zm3.06 2.53h-.09l.09.04v-.03m.93-.14v-.02h-.04q-.07.01.04.03m-.67.02h.01q-.1-.05-.14 0c.07.03.14.07.13 0m.09.01-.06-.01q.07.04.06.01m-.91-.07s0-.05-.02-.05c-.16-.09.04.11.02.05m.74-.03.03-.04h-.06zm-.38-.12-.11-.02q.01.03.13.04-.03 0-.02-.03m.02.04.08.03zm-1.25-.61.09.08q.03 0-.02-.06t-.07-.02m5.81-.46-.01.07.05-.09zm-.14.06-.05.06h.08zM67.75 70.91s.04-.04-.03-.05c0 0-.01.05.03.05m.66.17.08.04-.09-.06zm.28.07c.12 0 .25.13.33.08-.1 0-.26-.1-.39-.13l.04.07h.02Zm.71.04-.06-.02h-.02c.14.07.05.04.08.02m-.06-.02c.05 0-.07-.03 0 0m.29.08h-.08l.07.06c.06 0 .09-.01 0-.06m.06.14-.04-.03zm-.08-.05c0 .05.02.03.04.03l-.08-.06s.04.06.04.04m-.1-.06c-.15-.08-.2-.04-.04.04-.07-.06 0-.04.04-.04m-.58-.02.04.04h.07s-.09-.02-.11-.04m1.21.28-.11-.02.05.05zm.01.1-.07-.07s0 .03.07.07m-.46-.16-.15-.13.12.12.03.02Zm.79.31-.05-.1.02.06zm.33.24-.1-.16c.02.04-.07 0-.06.04q.11.04.16.12m-.43-.29q-.07-.03-.09 0l.03.02h.06Zm-.06.01.07.05zm-.41-.09c.12.03.03-.06 0-.11.05.08-.01.06 0 .11m.21.03.09.05-.08-.09s0 .03-.02.04m.13.09v-.02l-.03-.02zm.4.25.14.11-.1-.12c-.05-.04-.04 0-.05 0m.51.51.01.01v-.01zm-.51-.5h.01l-.07-.07q0 .04.06.07m.24.17.07.04zm-.34-.31s.01 0 0 0m-.01.01.05.06-.03-.06zm.61.53-.14-.07.03.03.14.14-.02-.1m-.27-.23-.09-.06.07.08c-.12-.08.04.12-.09-.03.04.06-.01.06.07.15.08.01.02-.07.03-.13zs.04.06 0 .03l.13.14zm-.91-.42s-.02-.04.02-.03q.05.03.05.06.08 0 .14-.04c0 .01-.11 0-.18-.03-.08-.04-.04.01-.02.04m.52.3h-.02l.09.04-.11-.12c0 .02-.04.03.04.08m.72.41-.02.05.03.07v-.11m.09.21.04.03-.01-.06zm.11 5.09s.03-.07.04-.15q0 .05-.06.1l.03.04Zm.74-2.92-.05-.15c-.04.03.01.08.05.15m-6.75 4.16.02.04zm6.75-4.16v.14l.01.03q.03-.1-.01-.17m-.39-1.44s-.02-.04 0 0m-.04-.08.02.03zm.07.14-.03-.06.04.07m-.2-.4-.04-.09s0 .02-.02.02zm-.23-.09c-.02-.07-.05-.14-.09-.09s.05.11.09.09m-.14-.16.04.05q-.02-.06-.04-.05m.58.68s-.04.02-.02.05c.05.17.06-.1.02-.05m-.59-.49.04.05.02-.06zm.23.35.06.09-.06-.12zm0-.04-.03-.08zm.4 1.24s.02.07.03.06v-.12q-.02 0-.03.06m-4.4-3.69.04.01.06-.04zm.26.06-.05-.06-.02.07h.08m-20.15 1.04s0-.05-.06-.01c0 0 .03.04.06.01m.56-.36.02.01.09-.03zm.27-.14c.08-.08.27-.09.29-.18-.08.06-.25.11-.37.18l.08.02zm.53-.46-.06.03-.01.01c.15-.05.06 0 .07-.04m-.06.03s-.07.03 0 0m.26-.15s-.04.03-.05.06h.09q.08-.07-.04-.06m.09.07h.05zm-.05.01h.05-.1s.07.03.06 0m-.12.09c-.09 0-.04-.03 0-.06-.16.05-.16.11 0 .06m-.36.33.05-.05s-.07.05-.11.05zm1-.65-.09.07h.07s.03-.05.02-.07m.08.08h-.1s.02.02.1 0m-.47.21h.03-.2zm.81-.35-.11-.04.06.03h.05Zm.21-.03a.4.4 0 0 1 .19-.03l-.19-.04c.05.02-.05.05 0 .07m-.32.07q-.07.04-.07.06h.04zm-.03.05.08-.02zm-.36.22c.1-.06-.02-.06-.08-.07.09.02.03.05.08.07m.18-.12.1-.03h-.12zm.1-.03.05.01-.02-.02zm.51-.1.18-.02q-.09 0-.15-.02c-.06 0-.03.03-.03.04m.72-.01" class="cls-1"/><path d="M50.4 70.81s.02 0 .01-.01h-.11q.03.02.1 0m.29-.04.08-.02zm-.47.04h.08l-.06-.02zm.82-.06-.15.05h.24q0-.02-.09-.05m-.36.02s.07.01 0 .02zl-.1.02h.11c-.14.03.11.06-.09.05.07.02.04.05.16.06.06-.05-.04-.07-.07-.11h.19l-.2-.03Zm-.93.34v.01q.03 0 0-.01" class="cls-1"/><path d="M49.82 71.07s.06-.08.07-.12c.01 0-.07.07-.15.11h-.02c-.08.04 0 .04.02.05 0-.01-.04-.01 0-.04zm.61-.15h-.16c.01.02 0 .05.09.03v.02l.08-.04Zm.81-.12-.09-.07.02.05zm.14.01.06-.01-.06-.04zm3.75 3.34s.03.06.03.11h.05s-.03-.06-.08-.11m-1.56-2.43-.14-.07q.02.05.14.07m-1.63 7.61s.02.02.05.02q0-.02-.05-.02m1.63-7.61.11.1.03.01q-.05-.08-.14-.11m-1.32-.73s-.04-.02 0 0m-.1-.03h.04zm.16.06-.06-.02h-.01zm-.52-.15h.09l-.1-.04v.03m-.92.14v.02h.04q.07-.02-.04-.03m.68-.02q.1.05.14 0c-.07-.03-.14-.06-.13 0m-.1-.01.06.01q-.07-.04-.06-.01m.91.07s-.01.05.02.05c.16.09-.04-.11-.02-.05m-.78.07h.06l-.02-.04zm.41.08.11.02q-.01-.02-.13-.04zm-.02-.03-.08-.03zm1.26.61-.09-.08q-.03 0 .02.06t.07.02m-5.85.48.03-.02.01-.07zm.17-.08.05-.06h-.08zM56 65.1s.04-.03.01-.06c0 0-.05 0-.01.06m-.36-.61.01-.02-.03-.08zm-.32-.54c.06.07.12.24.18.36l.02-.07h-.02c-.08-.09-.09-.27-.18-.29m-.3-.23.03.06h.01c-.05-.13 0-.05-.04-.06m.03.05s.03.06 0 0m-.15-.25s.03.04.06.05v-.09q-.08-.08-.06.04m.08-.09v-.05zm0 0v.1s.03-.07 0-.05c.03-.04 0-.04 0-.04m.04.14c.05.16.11.16.06 0 .01.09-.02.03-.06 0m.4.35-.05-.05s.05.08.05.11zm-.6-.88v-.07s-.05-.03-.07-.02c.02 0 .05.06.07.09m0-.06s.03-.02 0-.1zm.22.36v-.03.2zm-.36-.75v-.05l-.03.11zm-.05-.44-.04.18c.01-.05.05.05.07 0q-.05-.1-.03-.19m.15.58v-.04l-.06-.03q.04.07.06.07m0-.04-.02-.08zm.15.43c.01-.09.05-.03.07-.08-.07-.1-.06.02-.07.08m-.09-.23.04-.01-.03-.1zm0-.15.01.03.01-.05zm-.09-.46-.02-.18q0 .08-.02.15c0 .06.03.04.04.03m.01.01v.11q.02-.03 0-.1m-.06-.3-.02-.08q-.01.02.02.08m.04.46v-.07l-.02.06.01.01m-.05-.8.05.15v-.23q-.02 0-.06.09" class="cls-1"/><path d="m54.69 62 .02.1v-.11c.03.14.06-.11.05.08.02-.07.05-.04.06-.16-.05-.06-.07.04-.11.07h-.02s0 .01 0 0 0-.07.02-.01v-.19l-.03.2Zm.36.92q0-.03-.01 0" class="cls-1"/><path d="M55.05 62.92s-.01.04-.04 0v-.07l-.13-.07c0-.01.08.07.11.14.04.09.04.02.05 0m-.18-.65v.16c.02-.01.05 0 .03-.08h.02zm-.12-.8-.08.09.05-.02zm-.04-.14h.04l-.01-.05zm3.61-3.72s-.07.03-.13.08l.12-.03v-.05Zm-2.63 1.59-.07.13q.05-.01.07-.13m7.82 1.59s.02-.02.01-.05zm-7.82-1.59.1-.11.02-.03q-.1.05-.12.14m-.75 1.29s-.02.04 0 0m-.02.1v-.04zm.05-.16-.02.06v.01zm-.15.51v-.09l-.04.09zm.13.9h.02v-.04c0-.06-.03-.02-.03.04m-.01-.78c-.03.07-.07.13 0 .12.02-.05.05-.11 0-.12m-.01.15s-.04.06-.01.06zm.11-.85c.1-.16-.11.04-.05.02-.01-.02.05.01.05-.02m-.02.75.05.03v-.06zm.15-.47-.05.12q0-.02.03-.02zm-.08.2.03-.08zm.64-1.24s.04-.06.02-.06l-.08.09q0 .02.06-.02m.5 5.63-.01-.03-.07-.02zm-.13-.23v.08l.06-.03zm7.44 23.07s.04.04.05-.03c0 0-.05 0-.05.03m-.16.65-.04.08.06-.09zm-.07.27c0 .11-.13.25-.07.32 0-.1.09-.25.13-.38l-.07.03zm-.04.69.02-.06v-.02c-.07.14-.04.05-.02.08m.03-.06s.03-.06 0 0m-.08.21-.06.07q0 .1.06 0c-.02.02 0-.05 0-.07m-.12.09-.03.04zm.03-.04c-.05 0-.03.02-.03.04l.06-.08s-.06.04-.04.04m.06-.1q.1-.25-.04-.04c.06-.07.05 0 .04.04m.01-.57-.04.05v.07s.02-.09.04-.11m-.3 1.12.03.06q-.02-.05.02-.11zm-.08.07.08-.07s-.03 0-.08.07m.18-.48v.03l.12-.14-.12.12m-.33.79.11-.05-.06.02-.04.02Zm-.12.17a.3.3 0 0 1-.12.15l.16-.1c-.04.02 0-.07-.04-.05m.18-.27q.03-.08 0-.09l-.02.03v.06Zm-.06.01.04-.06zm.25-.47c-.08.05-.06-.01-.11 0-.03.11.06.03.11 0m-.15.21-.05.09.09-.07s-.03 0-.04-.02m-.09.12h.02l.02-.03zm-.25.39-.11.14q.05-.06.12-.09c.05-.05 0-.05 0-.05m-.01-.01v.01l.07-.08zm-.17.24-.04.07zm.31-.34s0 .02 0 0m0-.01-.06.04.06-.03zm-.54.6.07-.14-.03.03h.01l-.15.13z" class="cls-1"/><path d="M62.24 91.12s-.05.04-.02 0zl.06-.08-.08.07c.08-.12-.12.04.02-.1-.07.04-.06-.01-.15.07 0 .08.08.02.13.03l-.14.13zm.41-.89q0 .03 0 0m-.03.07q0 .08.04.14c-.01 0 0-.11.02-.18h.01c.03-.09-.03-.04-.05-.03.01.01.04-.02.03.02q-.03.05-.05.05m-.27.45-.02-.02-.02.09.12-.11c-.02 0-.03-.04-.08.04m-.53.72.12-.01-.05-.02zm-.14.14.07-.02-.04-.03zm-5.19.13s.07.03.15.03q-.05 0-.11-.06l-.04.02Zm3.01.68.15-.04c-.03-.03-.08.01-.15.04m-4.37-6.5-.05.02zm4.37 6.5h-.15l-.03.01q.1.03.18-.02m1.47-.38s.05-.02 0 0m.09-.05-.03.02zm-.15.07.06-.03v-.01zm.47-.25s-.03.04-.07.06l.09-.04s-.02 0-.02-.02m.56-.73v-.02l-.05.02q-.04.06.05 0m-.55.56c.07-.02.14-.05.09-.09q-.11.04-.1.09m.18-.13-.05.03q.07-.02.05-.03m-.75.56c-.18.05.11.05.05.02-.01.02-.03-.04-.05-.02m.51-.53.05.01-.01-.05zm-.27.19h-.03l-.09.06zm-1.27.4s-.07.02-.06.03h.12c.02-.02-.03-.02-.06-.03m3.72-4.3.04.06-.03-.09zm-.06.22.06-.06-.07-.02v.07m-18.84.41s.04.04.05-.03c0 0-.05 0-.05.03m-.16.65-.04.08.06-.09zm-.07.27c0 .11-.13.25-.07.32 0-.1.1-.25.13-.38l-.07.04zm-.03.7.02-.06v-.02c-.07.14-.04.05-.02.08m.02-.07s.03-.06 0 0m-.08.21-.06.07q0 .1.06 0c-.02.02 0-.05 0-.08m-.11.1-.03.04zm.02-.04c-.05 0-.03.02-.03.04l.06-.08s-.06.04-.03.04m.05-.1q.1-.25-.04-.04c.06-.07.04 0 .04.04m.01-.57-.04.05v.06s.02-.09.04-.11m-.3 1.13s.02.06.04.06q-.02-.04.01-.11zm-.07.07.07-.07s-.03 0-.07.07m.17-.48v.03l.12-.14-.12.12m-.32.8.11-.05-.06.03zm-.12.16a.3.3 0 0 1-.12.15l.16-.1c-.04.02 0-.07-.05-.05m.18-.27q.02-.07 0-.09l-.02.03V91Zm-.06.01.05-.06zm.25-.47c-.08.05-.06-.01-.11 0-.03.12.06.03.11 0m-.15.21-.05.09.09-.08s-.03 0-.04-.02m-.09.13h.03l.02-.03zm-.25.39-.11.14.12-.09c.04-.05 0-.04 0-.05m-.01-.01v.01l.08-.07zm-.16.24-.04.07zm.31-.34s0 .02 0 0m-.01-.01-.06.05.06-.03zm-.54.6.07-.14-.03.02h.02l-.15.14.1-.02" class="cls-1"/><path d="M43.31 91.48s-.05.04-.02 0zl.06-.08-.08.07c.08-.12-.12.04.02-.1-.07.04-.06 0-.15.07-.01.07.08.02.13.03l-.14.13zm.41-.89q0 .03 0 0m-.02.07q0 .08.04.14c-.01 0 0-.11.03-.18h.01c.03-.09-.03-.04-.05-.03.01.01.04-.02.03.02q-.03.05-.05.05m-.29.45v-.02l-.04.09.12-.11c-.02 0-.03-.03-.08.04m-.53.72.12-.01-.05-.02zm-.13.14.06-.02-.03-.02zm-5.2.14s.07.03.15.03q-.05 0-.11-.06zm3.02.67.15-.04c-.02-.04-.08.01-.15.04m-4.37-6.5-.05.02zm4.37 6.5h-.15l-.03.01q.1.03.18-.02m3.9-5.02v.08zm-2.44 4.64s.04-.02 0 0m.09-.05-.03.02zm-.15.07.06-.03v-.01zm.47-.25s-.03.04-.07.06l.09-.04s-.02 0-.02-.02m.02-.17c.07-.02.14-.05.09-.08q-.11.03-.1.08m.18-.13s-.03.03-.05.03q.07-.02.05-.03m-.75.56c-.18.04.11.05.05.02 0 .02-.03-.04-.05-.02m.5-.53.05.02-.01-.06zm-.39.25.12-.06h-.03zm.12-.06.08-.03zm-1.27.4s-.07.02-.06.03h.12q0-.02-.06-.03m3.72-4.29.04.05-.03-.09zm-.05.22.06-.05-.07-.02s.01.05 0 .07m10.46-13.08v-.1h.1zm-.18-1.4-.08-.21.08-.22.02.14.04.02zm-.41-.88-.08-.13.06-.06-.07.04-.08-.12h.03c.06.02.24.16.26.18q-.02.04-.11.1m-.12 4.49v-.08l.02-.03.04-.02h-.03l.04-.06.02.04-.03.02q.07-.01.07.01l-.13.13m-.42-5.2s.05 0 .06-.02l.04.12-.09-.1m-1.03-.79.09.03q-.1-.02-.14-.1l.11.03c-.08-.05-.16-.03-.27-.1.04-.03-.03-.12.09-.12q.18.05.2.13c.04.06.07.12.21.19.02.03-.02-.09.11.02q.15.16.16.28a5 5 0 0 0-.54-.35m-.11-.32c.05.01.08.01 0 0m-5.78 6.17s0-.05.03.02zm8.15-1.82c.09-.16.04-.12.12-.32q-.06.1-.11-.04l.09-.13-.06-.03q.02-.09 0-.18 0 .03-.02.01c.09-.04.06-.28.09-.32-.09-.05 0-.17-.09-.2l.01-.08c.04.02.09.02.06-.03l-.05-.03q0-.1-.02-.15l.04.05-.04-.06v-.02.01q-.03-.04-.03-.12-.07-.13-.09-.31c-.02-.11-.04-.23-.14-.31l.04.08c-.07-.17-.22-.3-.24-.41h.05a1 1 0 0 0-.16-.33l.04-.03-.19-.27q-.11-.17-.22-.18c0-.06-.16-.15-.22-.22h-.05l-.19-.17c-.24-.09-.36-.28-.55-.39l-.17-.12c.03.06-.02-.04-.09-.06l-.24-.1-.13-.05c.13.08-.03.05-.06.09l-.07-.06c-.04 0 .04.05-.03.04-.04-.04-.2-.1-.24-.16l.06-.01-.02-.03c-.11-.02-.06-.03-.05-.05-.14.03-.2-.03-.31.03.15-.06-.27-.06-.18-.13-.11.06-.06 0-.13.04.13 0 .24.09.33.15l-.11.02c.04.09.22.02.27.07-.03-.03-.12-.03-.13-.02l.04-.05q.2.03.32.16c-.09-.01.09.07.01.09l-.07-.03v.02l-.35-.11h-.05l-.37-.08c0-.06-.17-.11-.11-.14-.07.02-.05.05-.18.02-.08-.04.11-.06.15-.07-.1-.04-.1-.05-.1-.07-.1.07-.16.2-.07.23q.11-.03.18.02a4.3 4.3 0 0 0-3.51 1.18l-.17.18c0-.07 0-.15-.08-.13l.06-.05c-.07-.03-.17.18-.25.17l-.1.24c-.02-.02-.07-.01-.05-.05-.04.05-.07.09-.05 0q-.18.42-.4.82a2 2 0 0 0-.26.85c-.01.04-.03.01-.04 0 .04.12-.05.1-.07.15l.07.17c-.04.06-.06 0-.08 0-.06.3.03.6-.01.84.04.07.07-.02.09.08-.05-.06-.06 0-.06.09s0 .17-.03.13c.11.08.08.36.21.29.04.11-.04.11-.06.08q.07.2.06.37c.03.03.07.19.14.34s.16.3.23.34c-.1-.04-.03.02-.01.11l-.09-.04.1.16q.02.05.03.04c.02.03.03-.02.08.04.07.11.05.13.07.2h-.02l.05.06s-.09-.22.06-.07c-.01.01 0 .16.07.18-.07-.08-.03-.1.01-.08l.1.11h-.09q.44.5 1.03.86c.03-.06.28.17.3.06h-.02c-.09-.06.07-.05.14 0-.1-.02.1.16-.11.07l.05.05.53.02c1.33 0 3.68-.31 4.55-2.38l.1.03s-.42 1.75-1.62 2.66l.14-.07c.08 0 .06.03.04.06.11-.11.41-.09.45-.15.1-.06 0-.07.02-.12.15-.06.05.14.21-.02h-.06c.07-.05.09-.28.18-.29l-.03.05c.15-.05.21-.3.29-.23l.02.05c.16-.21.1-.05.26-.26.09-.07.09-.16.18-.14l-.02.03c.1-.09.11-.11.2-.21q.05-.02.07-.08c.06.04.23-.24.26-.29-.07.09-.07.03-.07-.02q.11-.02.13-.15c.08.03.17.06.26-.09q-.04.04-.06.03c-.02-.01.03-.05.05-.06 0-.03-.05.02-.06-.01.13-.07.11-.18.21-.33-.05.04-.04-.01-.06-.04.09.02.02-.25.11-.15l.14-.57q.07-.3.04-.42c-.03-.04.04-.13.05-.19h-.04Zm6.47-17.08-.03-.02-.02-.04v.03l-.07-.04q0-.02.05-.02l.02.03q-.02-.06.01-.06l.13.13zm-.06 7.14s-.05 0 .02-.03zm-6.01-5.73.03-.09a.3.3 0 0 1-.1.14l.03-.11c-.05.08-.03.16-.1.27-.03-.04-.12.03-.13-.09.03-.13.08-.16.14-.2s.12-.07.2-.2c.03-.02-.09.02.02-.1q.16-.15.29-.16-.21.26-.36.53m-.32.1s.02-.07 0 0m1.24-1.19-.1.09q0-.04-.02-.05zm.53-.55s.07.05.1.11l-.13.08-.06-.06.04.07-.12.08-.01-.03c.02-.06.17-.24.18-.25m6.68 3.89s-.03.03-.03 0c.04-.06.08-.12.07-.28h-.02v-.26c-.08 0-.06-.11-.06-.23s0-.26-.09-.28c.04-.06 0-.25 0-.34l-.03-.01c.06-.12-.11-.27-.15-.38q0-.09.07-.04c-.11-.11-.09-.4-.15-.44-.06-.09-.07 0-.12-.02-.06-.15.14-.05-.02-.2 0 .02.03.07 0 .06-.05-.07-.29-.09-.3-.17l.05.03c-.05-.15-.31-.2-.24-.28l.05-.02c-.21-.15-.05-.1-.27-.25-.07-.08-.16-.08-.14-.17l.04.02c-.1-.1-.11-.1-.22-.19q-.02-.05-.08-.07c.04-.06-.25-.22-.3-.25.09.07.03.06-.01.07q-.02-.11-.16-.13.03-.06.02-.12a7 7 0 0 0-.77-.04c-1.33 0-3.68.31-4.55 2.38l-.1-.03s.38-1.57 1.44-2.51l-.06-.02.1-.01q.1-.1.21-.17l-.14.02q-.2.02-.31.14.05-.05.08-.03c-.17.07-.31.21-.42.24l-.02-.04-.32.15-.04-.04-.27.18q-.16.11-.18.22c-.06 0-.16.16-.23.21v.04q-.09.12-.18.18c-.09.23-.29.36-.4.54h.01l-.14.17c.06-.03-.05.02-.07.08a.4.4 0 0 0-.1.24l-.05.12c.09-.13.05.03.09.06l-.07.06c0 .04.05-.04.04.02-.05.04-.1.2-.16.24l-.01-.06-.03.02c-.02.1-.03.06-.05.05.03.14-.03.19.03.3-.07-.14-.06.27-.13.17.06.1 0 .06.04.13 0-.13.1-.24.15-.33l.02.11c.1-.04.02-.22.07-.27-.03.03-.04.12-.02.13l-.05-.04c.01-.14.1-.23.16-.31-.01.09.08-.09.09-.01l-.03.07h.02l-.11.35V61h-.01q-.05.18-.07.36c-.06 0-.11.16-.15.11.02.07.05.05.02.17-.05.08-.06-.11-.07-.14-.04.1-.05.1-.07.1.07.09.2.16.24.07q-.03-.1.02-.17a4 4 0 0 0 1.39 3.58c-.08 0-.15 0-.14.08l-.05-.06c-.03.07.19.17.18.25l.24.1c-.02.02 0 .07-.05.05.05.04.09.07 0 .05q.44.18.85.39.42.21.88.26c.04.01.01.03 0 .04.12-.04.1.05.16.07l.17-.07c.06.04 0 .06 0 .07.31.06.61-.03.86.01.08-.04-.02-.07.08-.09-.07.05 0 .06.09.06s.17-.01.13.03c.09-.11.37-.08.3-.21.12-.03.11.03.08.05q.2-.07.38-.06c.03-.03.19-.07.35-.13s.31-.15.35-.23c-.05.1.02.03.11.01l-.04.09.17-.1.04-.03c.03-.02-.02-.03.04-.08.11-.07.13-.05.21-.06v.02l.06-.05c.05-.04-.22.08-.07-.06.01.01.16 0 .18-.07-.08.07-.1.03-.08-.01l.12-.1v.09c.35-.27.62-.64.89-1.01-.06-.03.17-.27.06-.29v.02c-.07.09-.05-.07 0-.13-.02.1.17-.1.07.11l.13-.14c.11 0 .16-.11.2-.25q.04-.22.13-.42l-.03.02c.14-.22.09-.53.12-.58l-.05-.03c.11-.19.12-.22.11-.46m18.47 23.92.03.02s0 .05-.03-.02m-4.35 6.35h.03zm-1.38-.22q-.17-.05-.2-.13c-.04-.06-.07-.12-.21-.19-.02-.03.02.09-.11-.02a.5.5 0 0 1-.16-.28q.26.2.55.35l-.09-.03q.1.03.14.1l-.11-.03c.08.05.16.03.27.1-.04.03.03.12-.09.13m-.03.06c-.05 0-.08-.02 0 0m-1.19-1.1-.04-.12.09.1zm-.35-.45c-.06-.02-.24-.17-.26-.18q.03-.05.11-.09l.08.13-.06.06.07-.04.08.12zm-.02-4.76v.08l-.02.03-.04.02h.03l-.04.06-.02-.04.03-.02q-.06.02-.07-.01l.13-.13m-.53 4.04s0-.1-.02-.14l-.04-.02a.4.4 0 0 1 .07-.27l.08.21zm-.18-1.73h-.1l.1-.1zm8.67.63c.06-.3-.03-.6 0-.84-.04-.08-.07.02-.09-.08.05.06.06-.01.06-.09s0-.17.03-.13c-.11-.09-.08-.36-.22-.29-.03-.11.04-.11.06-.08q-.07-.2-.06-.37c-.03-.03-.07-.19-.14-.34s-.16-.31-.23-.34c.1.04.03-.02.01-.11l.09.04-.1-.16q-.02-.05-.03-.04c-.02-.03-.03.02-.08-.04-.07-.11-.05-.13-.06-.2H82l-.05-.06c-.04-.05.09.22-.06.07.01-.01 0-.16-.07-.18.07.08.03.1-.01.08l-.1-.11h.09a5 5 0 0 0-1.03-.86c-.03.05-.28-.17-.29-.06h.02c.09.06-.07.05-.14 0 .1.02-.1-.16.11-.07l-.05-.05-.53-.02c-1.33 0-3.68.31-4.55 2.38l-.1-.03s.42-1.75 1.62-2.66l-.14.07c-.08 0-.06-.03-.04-.06-.11.11-.41.09-.45.15-.09.06 0 .07-.02.12-.15.06-.05-.14-.21.02.03 0 .07-.03.06 0-.07.05-.09.28-.18.29l.03-.05c-.15.05-.21.3-.29.23l-.02-.05c-.16.21-.1.05-.25.26-.09.07-.09.16-.18.14l.02-.04c-.1.09-.11.11-.2.21q-.05.02-.07.08c-.06-.04-.23.24-.26.3.07-.09.07-.03.07.01q-.11.02-.13.16c-.08-.03-.17-.06-.26.09q.05-.04.06-.03-.01.04-.04.06c0 .02.05-.02.06.01-.13.07-.11.18-.21.33.05-.04.04 0 .06.04-.1-.02-.02.25-.11.15l-.14.57q-.08.3-.04.42c.03.04-.04.13-.05.18h.04c-.09.16-.04.12-.12.32q.06-.1.11.04l-.09.14.06.02q-.02.08 0 .18 0-.03.02-.01c-.09.03-.06.28-.09.32.09.05 0 .17.09.2l-.02.08c-.04-.02-.09-.02-.06.03l.05.03q0 .1.02.15 0-.02-.04-.05l.04.06v.02s.04.05.03.1q.07.13.09.31a.5.5 0 0 0 .11.26v-.04c.07.17.22.3.24.41h-.05q.06.2.16.33l-.04.04.19.27q.11.17.22.18c0 .06.16.15.22.22h.05q.13.1.19.17c.24.09.37.28.55.39l.17.12c-.03-.06.03.04.09.06.05.05.16.09.24.1l.13.05c-.13-.08.03-.05.06-.09l.06.07c.04 0-.04-.05.03-.04.04.04.2.1.24.16l-.06.01.02.03c.11.02.06.03.05.05.14-.03.19.03.31-.03-.15.06.27.06.18.13.11-.05.06 0 .13-.04-.13 0-.24-.09-.33-.15l.11-.02c-.05-.09-.22-.02-.27-.07.03.03.12.03.13.02l-.04.05a.5.5 0 0 1-.32-.16c.1.01-.09-.07-.01-.09l.07.03v-.02l.35.11h.05q.19.06.37.08c0 .06.17.11.12.15.07-.02.05-.05.18-.02.08.04-.11.06-.15.07.1.04.1.05.1.07.1-.07.16-.2.07-.23a4.3 4.3 0 0 0 3.33-1.2l.17-.18c0 .07 0 .15.07.13l-.06.05c.07.03.17-.18.25-.18l.1-.24c.01.02.07 0 .05.05.04-.05.07-.09.06 0q.18-.42.4-.82.21-.4.26-.85c.01-.04.03-.01.04 0-.04-.12.05-.1.07-.15l-.07-.17c.04-.06.06 0 .08 0M71.87 74.86a3 3 0 0 0-.12-.62l.04.07q-.05-.08-.03-.17l.05.1c-.02-.09-.09-.14-.11-.26.05 0 .07-.1.15-.02q.09.15.04.23-.05.07 0 .28c0 .03.05-.07.06.09q0 .2-.09.31m0 .77v-.13l.05.03zm-.13.74.04-.14h.08l-.08-.02.03-.14.03.01c.03.05.05.28.05.3q-.05.01-.15-.01m-.14.71.02.04-.24.14.1-.2.22-.1zm.31-3.16s.04.07 0 0m-1-1.28q.1.06.11.14zm-.44 5.73.08-.07q.03.05.07.07h-.14m-1.94 1.04h-.18l.06-.06h.06l.08-.03-.02.04h-.04q.06.03.04.05m-5.18-5.19v-.03s.03-.03 0 .03m8.83 1.39.01-.31-.04-.02v-.26c-.1-.23-.05-.45-.1-.65h-.01l-.02-.21c-.02.06.01-.05-.01-.1a.4.4 0 0 0-.1-.24l-.05-.13c.03.15-.06.01-.11.02v-.09c-.03-.02-.01.06-.05.01 0-.06-.07-.21-.05-.28q.02 0 .05.04s0-.02 0-.03c-.06-.09-.02-.06 0-.07-.12-.08-.11-.16-.23-.19.15.06-.15-.23-.03-.22-.11-.03-.04-.05-.13-.06.09.09.1.24.12.34l-.09-.06c-.04.09.14.17.14.24 0-.04-.06-.11-.08-.11h.07c.09.1.1.23.11.33-.06-.07.01.12-.06.07l-.02-.07-.02.01-.15-.3-.04-.06-.2-.31c.04-.05-.04-.19.03-.18-.06-.04-.07 0-.14-.11-.03-.09.12.03.16.05-.04-.09-.03-.1-.02-.12-.11-.02-.26.02-.22.11l-.11-.12q.06.04 0-.05h-.02l.02.05a4 4 0 0 0-1.41-1.01h-.17c-1.33 0-3.68.31-4.55 2.38l-.1-.03s.41-1.69 1.57-2.62h-.02q-.45.13-.81.42-.05.02-.03-.04c-.06.11-.11.03-.16.06l-.08.17c-.07.02-.04-.04-.06-.05-.26.17-.42.43-.63.58-.03.08.07.03 0 .12 0-.08-.05-.04-.11.02s-.12.12-.12.07c.02.14-.21.31-.06.35-.06.1-.11.05-.1.02q-.1.18-.23.3c0 .04-.09.18-.16.33s-.12.32-.09.4c-.04-.1-.04 0-.09.07l-.03-.09-.05.18q-.03.06-.01.05c0 .03.03 0 .03.08-.03.12-.06.12-.1.19v-.02l-.03.08c-.01.06.1-.21.09 0-.02 0-.12.11-.08.17.01-.11.05-.09.07-.04l-.02.15-.07-.06c-.05.43.01.87.09 1.32.06-.02.07.31.16.25h-.01c-.02-.12.08 0 .09.08-.06-.08-.05.19-.12-.03v.18c-.08.07-.03.19.04.32s.17.26.21.39v-.03c.06.25.32.44.33.5h.05c.06.2.07.23.26.39 0 0 0-.04.03-.02.01.07.02.14.15.25v-.02l.2.19c.05-.06.12.03.2.13.08.09.18.19.26.14.02.07.17.18.24.25h.03c.05.12.28.12.37.17.06.05.02.06-.02.07.16 0 .36.22.42.21.11.03.06-.04.1-.07.15.06-.07.13.16.13-.02-.01-.07-.03-.04-.03.09.01.27-.13.34-.08l-.06.02c.14.07.36-.06.37.04l-.02.05c.26-.04.11.03.37 0 .11 0 .17-.05.23.03h-.04c.14.02.15 0 .3 0h.11c.01.07.33 0 .4-.02-.11 0-.07-.03-.04-.06q.1.07.2-.02c.03.07.07.16.25.12-.03 0-.08 0-.06-.02q.04-.03.08-.01c.01-.02-.05-.02-.04-.05.14.04.21-.05.39-.09-.06 0-.02-.04-.01-.07.05.08.2-.16.18-.03l.52-.3q.28-.16.34-.27c0-.05.12-.06.17-.1l-.03-.03c.18-.05.12-.06.32-.14-.1.02-.08-.02-.05-.1l.16-.03-.03-.06q.08-.03.13-.13-.02.02-.02 0c.09.04.24-.15.3-.16-.03-.1.12-.12.08-.2l.07-.04q.02.1.06.02l-.03-.06.1-.12-.01.06.02-.07v-.02.01q0-.06.06-.1.04-.16.16-.28c.07-.09.14-.19.13-.31q0 .06-.04.08c.08-.17.07-.36.13-.46l.04.02q.09-.17.12-.33h.05l.07-.31q.04-.2-.03-.28M60.48 92.18s-.07.04 0 0m.85-.54c-.1-.04-.17.14-.24.14.05 0 .11-.06.11-.08v.07c-.1.09-.23.1-.33.11.05-.04-.03-.02-.06-.03a3 3 0 0 1-.55.43l.1-.01c.07 0 .18-.05.24-.1l.13-.05c-.15.03-.01-.06-.02-.1h.09c.02-.03-.06-.01-.01-.04.06 0 .22-.07.28-.05q0 .03-.03.05s.02 0 .03 0c.09-.06.07-.02.07 0 .07-.12.16-.11.19-.23-.06.15.24-.15.22-.03.04-.11.05-.04.06-.12-.09.09-.24.1-.34.12l.06-.09Zm-1.28-7.8h.03s.03.03-.03 0m-4.16 7.13v-.14l.07.08zm-1.05-2.02.01-.04q-.03.06-.05.04v-.18l.06.06v.05l.03.08-.05-.02m8.51-1.57s.06-.04.07 0c0-.06-.01-.12.03-.04q-.18-.42-.32-.85a2 2 0 0 0-.43-.78q-.02-.05.04-.02c-.11-.06-.03-.1-.06-.16l-.17-.07c-.02-.07.03-.04.05-.06-.18-.25-.45-.4-.6-.6-.08-.03-.04.06-.12.01.08 0 .04-.05-.02-.11s-.13-.11-.07-.11c-.14.02-.32-.2-.36-.05-.11-.06-.05-.1-.02-.1a1 1 0 0 1-.31-.22c-.04 0-.19-.08-.35-.15s-.33-.11-.41-.08c.1-.04 0-.04-.07-.08l.09-.04-.19-.04-.05-.01c-.03 0 0 .04-.08.03-.13-.02-.13-.05-.19-.1h.02l-.09-.03c-.06 0 .22.1 0 .09 0-.02-.11-.11-.18-.08.11 0 .09.05.05.06l-.15-.01.06-.07c-.44-.04-.9.03-1.35.11.02.06-.32.07-.25.16h.01c.11-.03-.01.07-.1.08.08-.06-.19-.05.03-.12h-.19q-.13-.08-.32.04c-.13.07-.26.17-.4.21h.04c-.25.06-.45.32-.51.33v.05c-.2.06-.23.07-.4.25 0 0 .04 0 .02.03-.07.01-.14.02-.25.15h.02l-.19.19c.06.05-.03.12-.13.2-.09.08-.19.18-.14.26-.07.02-.19.17-.25.23v.03c-.13.05-.12.27-.17.36-.05.06-.06.02-.07-.02 0 .16-.22.35-.21.41-.03.1.05.06.07.09-.06.15-.13-.07-.13.16q.02-.05.03-.04c0 .08.14.26.09.33l-.02-.06c-.07.14.07.35-.04.36l-.05-.02c.04.25-.03.1.01.36-.01.11.05.16-.03.22v-.04c-.02.14 0 .15 0 .29v.1c-.07.01.01.33.03.39-.01-.11.03-.06.06-.04q-.07.1.02.2c-.08.03-.17.07-.12.25q0-.06.02-.06.02.03.01.08c.02.01.02-.05.05-.03-.04.14.06.2.09.38 0-.06.04-.02.07-.01-.08.05.17.19.03.18l.31.5c.1.16.21.3.28.33.05 0 .06.11.1.16l.03-.03c.05.17.06.12.14.31-.02-.09.02-.08.1-.05l.04.16.06-.03q.04.08.13.12-.02-.02 0-.02c-.04.09.16.23.17.29.1-.03.12.12.2.07l.05.07q-.1.03-.02.06h.01l.05-.02.11.09.38.03-.05-.11.21.1.2.02c1.33 0 3.68-.31 4.55-2.38l.1.03s-.32 1.34-1.2 2.27l.27-.14-.02.01.06-.04.31-.21c.05.04.2-.04.18.03.04-.06 0-.07.11-.14.09-.03-.03.12-.05.16.1-.04.11-.03.12-.02.02-.11-.03-.25-.12-.21a4 4 0 0 0 1.48-3.14l-.01-.24c.06.05.11.1.15.04v.08c.06-.03-.02-.25.04-.3l-.1-.24m-2.42 4.44" class="cls-1"/><path d="m42.66 91.69.02-.02zm-1.11.85s-.07.04 0 0m-.26-.01q-.09-.05-.28 0c-.03 0 .08.05-.09.06a1 1 0 0 1-.32-.08l.56-.08c.04-.03.13-.04.17-.03l-.1.05c.09-.02.14-.09.27-.12 0 .05.1.06.02.15q-.15.09-.24.05m-1.37.05-.11-.05h.14q-.02.01-.03.05m-.57-.08-.31.05v-.14l.15.04v.08l.02-.08.15.02zm-1.03-.22-.05.02-.15-.23.21.1.11.21zm-1.34-.94v-.14l.07.08zm-1.05-2.02v-.03q-.03.06-.05.04v-.18l.06.06v.06l.03.08-.05-.02m8.51-1.57s.06-.04.07 0c0-.06-.01-.12.03-.04-.13-.28-.21-.57-.32-.85a2 2 0 0 0-.43-.78q-.02-.05.04-.03c-.11-.06-.03-.1-.06-.16l-.17-.07c-.02-.07.03-.04.05-.06-.18-.25-.45-.4-.6-.6-.08-.03-.04.07-.12.01.08 0 .04-.05-.02-.1s-.13-.11-.07-.11c-.14.02-.32-.19-.36-.05-.11-.06-.05-.1-.02-.09l-.22-.14-.55-.02c-1.33 0-3.68.31-4.55 2.38l-.1-.03s.43-1.8 1.67-2.7q-.12-.03-.27.07c-.13.07-.26.17-.4.21h.03c-.25.06-.45.32-.51.33v.05c-.2.06-.23.07-.4.25 0 0 .04 0 .02.03-.07.01-.14.02-.26.15h.02l-.19.2c.06.05-.03.12-.13.2s-.19.18-.14.26c-.07.02-.19.17-.25.24v.03c-.13.05-.12.27-.17.37-.05.06-.06.02-.07-.02 0 .16-.22.35-.21.41-.03.11.05.06.07.09-.06.14-.13-.07-.13.16.01-.02.03-.07.04-.05-.01.08.14.26.09.33l-.02-.05c-.07.14.07.35-.04.36l-.05-.02c.04.25-.03.1.01.36-.01.11.05.17-.03.22v-.04c-.02.14 0 .15 0 .29v.1c-.07.01 0 .33.03.39-.01-.11.03-.06.06-.04q-.07.1.02.2c-.08.03-.16.07-.12.25 0-.03 0-.08.02-.06q.03.03.01.07c.02.01.02-.05.05-.04-.04.14.06.21.09.38 0-.06.04-.02.07-.01-.08.05.17.19.03.17l.31.5c.1.16.21.3.28.33.05.01.07.12.1.16l.03-.03c.05.17.06.12.14.31q-.02-.12.1-.05l.04.15.06-.03q.04.08.13.12-.02-.02 0-.02c-.04.09.16.23.17.29.1-.03.12.12.21.08l.05.06q-.1.02-.02.06h.01l.05-.02.12.1h-.06l.07.01s.07.02.11.06q.15.04.29.16t.32.12q-.06 0-.09-.04c.17.07.37.06.47.13l-.02.04q.18.09.34.11v.05l.32.06q.19.04.29-.03c.04.04.23 0 .32 0l.02-.04q.16-.02.27 0c.23-.1.46-.05.67-.1l.22-.04c-.07-.02.05.01.11-.01.07 0 .18-.05.24-.1l.13-.05c-.15.03-.01-.06-.02-.1h.1c.02-.04-.07-.01-.01-.04.06 0 .22-.07.28-.05l-.03.05h.03c.09-.06.07-.02.07 0 .08-.12.16-.11.2-.23-.06.15.24-.15.22-.03.03-.11.05-.04.06-.12-.09.09-.24.1-.34.12l.06-.09c-.1-.03-.17.14-.24.14.04 0 .11-.06.1-.08v.07c-.1.09-.23.1-.33.11.07-.06-.12.01-.08-.06l.07-.02-.01-.02.33-.17-.02.02.06-.04.31-.21c.05.04.2-.04.19.03.04-.06 0-.07.11-.14.09-.03-.03.12-.05.15.09-.04.1-.03.12-.02.02-.11-.03-.25-.12-.21a.2.2 0 0 1-.14.11l.14-.11.12-.11q-.04.06.05 0v-.02l-.05.02a4 4 0 0 0 1.37-3.03l-.01-.24c.06.05.11.1.15.04v.08c.06-.03-.02-.25.04-.3l-.1-.24m723.88-21.42v-4.47h-4.33v4.47h-1.98v-9.39h1.98v4.2h4.33v-4.2h1.97v9.39zM790 57.78v8.56h-2v-8.56h-2.65v-.83h7.29v.83zm6.08 8.56v-9.39h6.03v.83h-3.87v3.37h3.24v.72h-3.24v3.53h3.94v.94zm10.25 0v-9.39h2.17v8.45h4.19v.94zm-27.95.19c-3.06 0-4.98-1.91-4.98-4.89s1.91-4.89 4.98-4.89 4.99 1.86 4.99 4.89-1.91 4.89-4.99 4.89m0-9.22c-1.84 0-2.91 1.48-2.91 4.32s1.06 4.31 2.91 4.31 2.92-1.53 2.92-4.31-1.08-4.32-2.92-4.32m-16.72 29.44V75.26h1.45v16.41h-1.73l-10.23-11.75-.56-.66h-.14v12.41H749V75.26h2.54l9.4 10.76q.24.25.58.73zm13.09 4.92h-6.5V75.26h6.5c5.8 0 8.97 2.18 8.97 7.87 0 6.15-4.71 8.54-8.97 8.54m-.41-15.46h-2.73V90.7h2.3c3.07 0 6.16-1.59 6.16-7.57 0-5.25-2.61-6.92-5.73-6.92m-33.92-.95h3.35v16.41h-3.35zm47.97 0h3.35v16.41h-3.35zm37.12 16.77c-5.35 0-8.69-3.33-8.69-8.55s3.34-8.55 8.69-8.55 8.71 3.26 8.71 8.55-3.34 8.55-8.71 8.55m0-16.1c-3.22 0-5.08 2.58-5.08 7.55s1.86 7.53 5.08 7.53 5.1-2.67 5.1-7.53-1.88-7.55-5.1-7.55m-16.27 8.7v5.67c-.29.18-1.29.72-3.06.73-4.05.02-6.09-3.01-6.08-7.58.02-4.65 3-7.46 6.02-7.49 2.1-.02 4.09.63 5.45 2.46h.08c.15-.99.59-2.07.59-2.07s-2.07-1.43-6.13-1.43c-5.7 0-9.68 3.83-9.68 8.55 0 5.99 4.29 8.55 9.76 8.55 3.08 0 6.4-1.05 6.4-1.05v-6.35zM496.86 102.1c-.25 1.07-1.06 1.86-2.49 1.86-1.85 0-2.74-1.33-2.74-3.03s.91-3.09 2.79-3.09c1.51 0 2.28.89 2.44 1.88h-1.12c-.15-.52-.52-.99-1.37-.99-1.14 0-1.6 1.03-1.6 2.16 0 1.06.41 2.17 1.63 2.17.87 0 1.18-.55 1.33-.97h1.12Zm7.77-1.22c0 1.65-.97 3.09-2.88 3.09s-2.8-1.36-2.8-3.06 1.05-3.06 2.88-3.06c1.72 0 2.8 1.24 2.8 3.03m-4.53 0c0 1.2.56 2.17 1.69 2.17 1.22 0 1.67-1.01 1.67-2.15s-.52-2.13-1.69-2.13-1.67.92-1.67 2.11m6.96-2.95h1.12v5.03h3.01l-.13.92h-3.99zm6.21 0h1.12v5.03h3.01l-.13.92h-3.99zm10.18 3.31h-2.88v1.72h3.17l-.14.92h-4.12v-5.95h4.1v.93h-3.01v1.46h2.88zm7.55.86c-.25 1.07-1.06 1.86-2.49 1.86-1.85 0-2.74-1.33-2.74-3.03s.91-3.09 2.79-3.09c1.51 0 2.28.89 2.44 1.88h-1.12c-.15-.52-.52-.99-1.37-.99-1.14 0-1.6 1.03-1.6 2.16 0 1.06.41 2.17 1.63 2.17.87 0 1.18-.55 1.33-.97h1.12Zm3.62-3.24h-1.84v-.93h4.79v.93h-1.84v5.02h-1.12v-5.02Zm6.17-.93v5.95h-1.12v-5.95zm8.12 2.95c0 1.65-.97 3.09-2.88 3.09s-2.8-1.36-2.8-3.06 1.05-3.06 2.88-3.06c1.72 0 2.8 1.24 2.8 3.03m-4.53 0c0 1.2.56 2.17 1.69 2.17 1.22 0 1.67-1.01 1.67-2.15s-.52-2.13-1.69-2.13-1.67.92-1.67 2.11m6.96 3v-5.95h1.41c.78 1.36 2.32 3.95 2.61 4.6-.06-.67-.06-1.67-.06-2.64v-1.96h1.02v5.95H555c-.7-1.2-2.35-4.12-2.68-4.8.04.58.05 1.72.05 2.79v2zm-69.31-12.02h2.88V76.95h-2.88zm16.26-6.82c1.39.06 2.94.51 3.18 2.18a3 3 0 0 1-2.08 3.29c-2.65.83-5.87-1.42-7.14-3.49-1.28-2.09-2.18-5.81-.14-7.91a4.2 4.2 0 0 1 6.97 1.43l3.33-.8c-2.08-2.88-5.29-3.7-8.58-2.64-3.18 1.02-5.54 3.56-5.64 7.06-.09 3.44 2.1 6.22 5.24 7.34 1.6.57 3.1.67 4.76.4 1.46-.24 3.25-.86 3.96-2.41l2.04 2.35h.35v-7.57h-6.93l.67.78Zm21.5-8.1V89l-10.48-12.06h-4.05l2.35 2.7v12.21h1.08V80.89l9.52 10.96h2.66V76.94zm-42.46 0V89l-10.48-12.06h-4.05l12.95 14.91h2.66V76.94zm57.98 1.09-.94-1.09h-9.88v14.91h10.82l-.94-1.09h-7v-5.59h6.25v-1.09h-6.25v-6.06h7.94Zm13.97-1.09h-12.74l.94 1.09h4.51v13.83h2.88V78.03h5.34zm2.19 0 .94 1.09h4.52v13.83h2.88V78.03h5.5v-1.09zm26.76 1.09-.94-1.09h-9.88v14.91h10.82l-.94-1.09h-7v-5.59h6.25v-1.09h-6.25v-6.06h7.94Z" class="cls-1"/><path id="Ruby" d="M1136.89 81.92c.31-1.63.51-3.3.3-4.98-.06-.51-.27-.9-.73-1.09-.5-.21-.9.11-1.24.41-.35.3-.52.75-.66 1.19a15 15 0 0 0-.55 3.46c-.12 2.13-.19 4.27-.35 6.4-.08 1.12-1.52 2.32-2.64 2.34-.86 0-1.55-.66-1.81-1.9a18 18 0 0 1-.3-5.81c.1-.89.18-1.79-.04-2.68q-.42-1.72-2.06-1.02c-.88.37-1.05 1.1-1.08 1.96-.03.87.61 1.54.62 2.38.02 1.27.02 2.54.22 3.8.23 1.49.5 2.97 1.38 4.25.7 1.01 1.61 1.27 2.82.91 1.04-.31 1.77-1.06 2.64-1.65.07.34 0 .63-.04.93q-.55 3.18-1.03 6.38a93 93 0 0 0-.81 9.42c-.18 3.91.05 7.8.44 11.68.08.74.43 1.42 1.17 1.64.78.23 1.54 0 2.07-.68s.34-1.39-.04-2.07c-.34-.61-.75-1.17-1-1.85a21 21 0 0 1-1.14-6.25 63 63 0 0 1 .9-13.94c.75-4.45 2.13-8.77 2.97-13.2Zm-14.98-4.13c-1.31-.71-2.36-.64-3.91.12-1.85 1.01-2.96 2.31-4.47 3.56-.15-4.55-.42-8.98-.36-13.41 0-.78.11-1.51.48-2.22.55-1.06.74-2.2.66-3.4a3 3 0 0 0-.48-1.47c-.4-.64-1.08-.95-1.74-.8-.57.13-.51.86-.56 1.35a56 56 0 0 0-.22 5.66c0 .71.05 1.41-.11 2.12-.33 1.47-.56 2.96-.85 4.43-.77 3.98-1 7.73-1.99 11.66-.39 1.58-1.02 2.3-1.88 2.84-.67.42-1.22.4-1.6-.29a5 5 0 0 1-.46-1.67 29 29 0 0 1 0-5.93c.08-1.09-.68-1.51-1.65-.96a3 3 0 0 0-.63.53 16 16 0 0 0-2.89 5.05c-.38.7-1.45 2.89-1.69 3.12l-.01.02h-.02q-.3.28-.62.24c-.55-.09-.83-.85-.72-1.83.05-.45.17-1.72.19-1.79.15-2.37.78-6.1 1.29-7.78.21-.7-.43-1.52-1.06-1.62-.76-.12-1.1.36-1.31.88-.7 1.76-.68 5.43-.8 7.25a18 18 0 0 0 .26 6.3 4.5 4.5 0 0 1-2.38-.95c-3.64-2.48-6.4-5.79-8.74-9.48-.3-.48-.21-.6.36-.75a10.8 10.8 0 0 0 8.2-10.05c.08-2.67-1.37-4.79-3.77-5.52-3.72-1.13-6.67.3-8.08 3.97-1.01 2.62-1.32 5.38-1.54 8.16-.03.39 0 .72-.4 1.04-1.13.92-1.21 2.12-.24 3.23.34.38.44.76.44 1.24-.02 2.38-.12 4.77.2 7.14.18 1.34.33 2.7 1.14 3.85.25.36.62.72 1.08.56.52-.19.38-.7.32-1.12a53 53 0 0 1-.45-8.99c0-.28-.18-.7.17-.83.42-.15.64.23.88.53 1.58 1.99 3.13 4 4.96 5.77 1.6 1.55 3.3 3.01 5.57 3.48.82.17 1.74.5 2.5-.26.36.04.42.3.72.57q.55.77 1.5.68c.64.01 1-.43 1.32-.86q1.29-1.72 2.02-3.76c.54-1.19 1.05-2.39 1.82-3.67.18 2.28.21 4.36 1.07 6.28.77 1.72 2.44 1.45 3.58.7 1.88-1.23 2.63-6.31 3.1-9.58.77-5.34 1.4-9.02 1.51-9.22.21.59-.08 7.69-.14 9.17-.06 1.62.04 3.25-.62 4.82a3.5 3.5 0 0 0-.08 2.45c.36 1.14.68 2.29 1.27 3.34.42.75.68 1.89 1.99 1.12.07-.04.22.07.34.1q.82.22 1.62-.08a16 16 0 0 0 2.78-1.38c.85-.41 1.68-.95 2.39-1.56.81-.71 1.91-2.11 2.29-2.78a7.7 7.7 0 0 0 .55-5.89c-.49-1.81-.65-2.58-2.08-3.43Zm-40.85-3.4c.07-1.56.15-3.57.9-5.48a4.73 4.73 0 0 1 5.52-3.13 3.2 3.2 0 0 1 2.8 3.37 9 9 0 0 1-5.79 7.87q-.91.28-1.82.24c-1.49-.05-1.66-.35-1.62-2.88Zm40.32 10.96c-.36 1.28-1.55 2.49-3.57 3.52l-2.96 1.4c-.46.23-.68.23-.74-.4q-.22-2.53-.52-5.05c-.08-.67.04-1.2.54-1.74 1.19-1.25 2.37-2.5 3.88-3.37.8-.36 1.6-.55 2.38.07.74.8.8 1.8 1.01 2.77.21.93.26 1.37-.02 2.79Z" class="cls-1"/><path d="M354.68 77.37c.28.02 1.17 0 1.17 1.09v11.75c0 1.09-.88 1.06-1.17 1.09v.42h4.19v-.42c-.28-.02-1.16 0-1.17-1.09V78.46c0-1.09.88-1.07 1.17-1.09v-.42h-4.19zm-111-1.99c.3.02 1.26 0 1.26 1.18v13.53c0 1.18-.95 1.15-1.26 1.17v.46h4.45v-.46c-.3-.02-1.26 0-1.26-1.18V76.55c0-1.18.96-1.15 1.26-1.18v-.45h-4.45v.45ZM435.34 89.3c-.02.28 0 1.16-1.09 1.17h-3.73V78.46c0-1.09.88-1.07 1.17-1.09v-.42h-4.19v.42c.28.02 1.16 0 1.17 1.09v11.75c0 1.09-.89 1.06-1.17 1.09v.42h8.27V89.3zM320.55 76.65c-4.58 0-6.31 4.34-6.31 7.69s1.77 7.69 6.16 7.69c3.88 0 6.33-3.55 6.33-8.04s-2.37-7.34-6.18-7.34m.51 14.26h-.02c-2.93 0-4.85-3.17-4.85-7.17 0-4.79 2.08-6.02 3.91-6.02 2.61 0 4.66 2.67 4.66 6.98 0 5.56-2.58 6.21-3.69 6.21Zm49.88-13.54c.28.02 1.16 0 1.17 1.09v9.87l-7.57-11.38h-2.49v.42c.28.02 1.16 0 1.17 1.09v11.75c0 1.1-.88 1.07-1.17 1.09v.42h3.65v-.42c-.28-.03-1.16 0-1.16-1.09v-9.8l7.57 11.31h1.32V78.46c0-1.1.89-1.07 1.17-1.09v-.42h-3.65zm27.74 0c.28.02 1.16 0 1.17 1.09v9.87l-7.57-11.38h-2.49v.42c.28.02 1.16 0 1.17 1.09v11.75c0 1.1-.88 1.07-1.17 1.09v.42h3.65v-.42c-.28-.03-1.16 0-1.16-1.09v-9.8l7.57 11.31h1.32V78.46c0-1.1.88-1.07 1.17-1.09v-.42h-3.65zm-121.84 0c.28.02 1.16 0 1.16 1.09v11.75c0 1.09-.89 1.06-1.16 1.09v.42h8.9V89.3h-.42c-.02.28 0 1.16-1.09 1.17h-4.36v-5.72h3.52c1.09 0 1.06.89 1.09 1.17h.42v-3.4h-.42c-.02.28-.08.98-1.09.98h-3.51v-5.3h4.36c1.09 0 1.07.88 1.09 1.17h.42v-2.42h-8.9zm108.12.83c1.09 0 1.07.88 1.09 1.17h.42v-2.42h-8.9v.42c.28.02 1.16 0 1.16 1.09v11.75c0 1.09-.89 1.06-1.16 1.09v.42h8.9V89.3h-.42c-.02.28 0 1.16-1.09 1.17h-4.36v-5.72h3.52c1.1 0 1.07.89 1.09 1.17h.42v-3.4h-.42c-.03.28-.08.98-1.09.98h-3.52v-5.3zm-76.32 12.43c-2.34 0-5.5-1.99-5.5-7.18 0-3.72 1.44-7.58 4.89-7.58 3.82 0 4.23 2.93 4.26 3.37h.46v-3.78c-1.4-.42-3.3-.67-4.38-.67-5.03 0-7.35 3.53-7.35 8.71 0 4.69 2.59 8.39 7.4 8.39.97 0 2.98-.23 4.09-.87l.5-3.21-.45-.07c-.8 2.42-2.35 2.88-3.9 2.88ZM412.39 78.2c1.09 0 1.07.88 1.09 1.17h.42v-2.42h-10.03v2.42h.42c.02-.28 0-1.16 1.09-1.17h2.59v12.02c0 1.09-.89 1.06-1.17 1.09v.42h4.19v-.42c-.28-.02-1.17 0-1.17-1.09V78.21h2.56Zm12.42 11.39-4.58-12.64h-1.22L414.4 89.6c-.61 1.54-1.22 1.7-1.53 1.7v.42h3.57v-.42c-.28-.02-1.17 0-.77-1.09l1.26-3.46h4.97l1.26 3.46c.39 1.09-.5 1.07-.77 1.09v.42h4.13v-.42c-.31 0-1.08-.17-1.69-1.72Zm-7.47-3.99 2.06-5.66 2.06 5.66zm-157.57-8.23c.28.02 1.16 0 1.17 1.09v9.87l-7.57-11.38h-2.49v.42c.28.02 1.16 0 1.17 1.09v11.75c0 1.1-.88 1.07-1.17 1.09v.42h3.65v-.42c-.28-.03-1.16 0-1.17-1.09v-9.8l7.57 11.31h1.32V78.46c0-1.1.88-1.07 1.17-1.09v-.42h-3.65zm5.18 1.99h.42c.03-.28 0-1.16 1.09-1.17h2.59v12.02c0 1.09-.88 1.06-1.17 1.09v.42h4.19v-.42c-.28-.02-1.16 0-1.16-1.09V78.2h2.56c1.09 0 1.07.88 1.09 1.17h.42v-2.42h-10.04v2.42Zm72.64-1.99c.28.02 1.16 0 1.17 1.09v9.87l-7.57-11.38h-2.49v.42c.28.02 1.16 0 1.17 1.09v11.75c0 1.1-.88 1.07-1.17 1.09v.42h3.65v-.42c-.28-.03-1.16 0-1.16-1.09v-9.8l7.57 11.31h1.32V78.46c0-1.1.88-1.07 1.16-1.09v-.42h-3.65zm5.19 1.99h.42c.02-.28 0-1.16 1.09-1.17h2.59v12.02c0 1.09-.89 1.06-1.16 1.09v.42h4.19v-.42c-.28-.02-1.16 0-1.16-1.09V78.2h2.56c1.09 0 1.06.88 1.09 1.17h.42v-2.42h-10.03zm-48.01 5.39s2.71-1.01 2.71-4.02c0-1.47-.86-3.78-4.92-3.78h-4.06v.42c.28.02 1.16 0 1.17 1.09v11.75c0 1.09-.88 1.06-1.17 1.09v.42h4.19v-.42c-.28-.02-1.16 0-1.16-1.09v-5.02l1.41-.02c.65.95 2.4 3.41 2.95 4.19 1.49 2.12 2.84 2.58 4.31 2.58.4 0 .75-.06.87-.11v-.42c-.23 0-.84 0-1.69-.76-1.76-1.64-2.93-3.45-4.6-5.9Zm-3.03-.63h-.21v-6.2h.22c2.78 0 3.69 1.01 3.69 2.89 0 1.37-.69 3.31-3.71 3.31Zm47.98-45.52s-9.4 5.03-9.4 13.78 9.4 13.78 9.4 13.78 9.4-5.03 9.4-13.78-9.4-13.78-9.4-13.78m4.11 23.29a22 22 0 0 1-4.11 3.24 23 23 0 0 1-4.08-3.21 17 17 0 0 1-3.07-4.11q-1.37-2.65-1.37-5.44c0-2.79.46-3.67 1.36-5.42q1.1-2.14 3.05-4.1a22 22 0 0 1 4.11-3.24 22 22 0 0 1 4.11 3.24 17 17 0 0 1 3.05 4.1q1.35 2.64 1.36 5.42c.01 2.78-.46 3.67-1.36 5.42a17 17 0 0 1-3.05 4.1" class="cls-1"/><path d="M339.72 40.8s-7.47 4.53-7.47 11.57 7.47 11.57 7.47 11.57 7.47-4.53 7.47-11.57-7.47-11.57-7.47-11.57m3.62 18.2v.26h-7.23V59c.55-.04 2.23 0 2.24-2.08v-9.09c0-2.09-1.69-2.04-2.24-2.08v-.26h7.23v.26c-.55.04-2.23 0-2.24 2.08v9.09c0 2.09 1.69 2.04 2.24 2.08m873.94-16.59v3.23l-4.43.1.02 3.42h-1.7v-6.4zm0 14.76-4.35-.27-.02-3.51-1.73-.05v6.57l6.11.49v-3.24Zm-3.59-8h3.59v-2.71l-3.61.08.02 2.62Zm-3.33 3.34 2.54.07-.02-2.59h-2.52v-7.17l-1.52.09v16.83l1.52.12zm3.34-2.53.02 2.62 3.56.09v-2.71zm.02 3.44.02 2.72 3.54.22v-2.84zm-4.88 7.49v3.25c0 .36.3.69.65.73l7.13.84c.36.04.66-.22.66-.58v-3.57zm8.44-19.67v-3.37c0-.36-.3-.63-.66-.58l-7.13.84a.76.76 0 0 0-.65.74v2.86zm-19.07 1.17v3.23l4.42.1-.02 3.42h1.7v-6.4zm0 18 6.1-.49v-6.57l-1.73.05-.02 3.51-4.35.27zm3.6-13.87-3.6-.08v2.71h3.58zm3.32 13.31 1.52-.12V42.9l-1.52-.09v7.17h-2.52l-.02 2.59 2.54-.07v7.34Zm-6.92-9.87v2.71l3.56-.09.02-2.62zm0 3.53v2.84l3.54-.22.02-2.72zm0 8.07v3.57c0 .36.29.62.65.58l7.13-.84a.75.75 0 0 0 .65-.73v-3.25zm8.44-19.86v-2.86c0-.36-.3-.69-.65-.74l-7.13-.84a.57.57 0 0 0-.65.58v3.37zM1172 98.02h2.46c-.27.5-.33.82-.33 1.72v7.6c0 .9.06 1.22.33 1.72H1172c.27-.47.32-.78.32-1.72v-3.39h-4.83v3.39c0 .89.04 1.23.32 1.72h-2.46c.28-.49.32-.83.32-1.72v-7.6c0-.88-.04-1.22-.32-1.72h2.46c-.28.49-.32.83-.32 1.72v2.99h4.83v-2.99c0-.94-.05-1.25-.32-1.72m8.17 10.27q.97 1 2.82 1c1.85 0 2.08-.29 3.08-1.05l.09-.07v.89h2.15c-.28-.5-.32-.83-.32-1.72v-7.6c0-.88.04-1.21.32-1.72h-2.47c.27.48.32.79.32 1.72v5.31c0 1.1-.19 1.71-.69 2.24-.47.5-1.17.79-1.93.79-.82 0-1.53-.35-1.95-.94-.37-.54-.47-1.04-.47-2.31v-5.09c0-.91.06-1.23.34-1.72H1179c.26.49.32.82.32 1.72v5.59c0 1.57.21 2.27.87 2.95m22.53.77a7 7 0 0 1-.87-1.51l-4.76-9.87-4.55 9.71a9 9 0 0 1-.95 1.66h2.52c-.1-.26-.13-.4-.13-.61 0-.32.1-.76.24-1.08l.86-1.89h3.9l.02.03.87 1.84c.18.37.3.81.3 1.09q0 .27-.13.61h2.68Zm-7.1-4.77.03-.08 1.36-3.01 1.41 3.09zm14.26 3.67h-1.3v-8.21c0-.88.04-1.22.32-1.72h-2.46c.27.49.32.83.32 1.72v7.6c0 .92-.05 1.25-.3 1.72h5.72l.8-1.81c-1 .52-1.78.7-3.1.7m7.63.34q.98 1 2.81 1c1.83 0 2.08-.29 3.08-1.05l.09-.07v.89h2.14c-.28-.51-.31-.83-.31-1.72v-7.6c0-.88.04-1.21.31-1.72h-2.46c.27.48.32.79.32 1.72v5.31c0 1.11-.19 1.72-.7 2.24-.47.5-1.17.79-1.93.79-.82 0-1.53-.35-1.95-.94-.37-.54-.47-1.03-.47-2.31v-5.09c0-.91.06-1.23.33-1.72h-2.46c.26.49.32.82.32 1.72v5.59c0 1.57.2 2.27.87 2.95m16.89-3.5 1.9 2.91c.3.48.43.83.43 1.19l-.01.14v.04h2.86a8 8 0 0 1-1.53-1.78l-2.61-3.97.02-.03 2.07-3.22a9 9 0 0 1 1.7-2.04h-2.68c.03.12.05.2.05.33 0 .38-.14.75-.52 1.33l-1.49 2.33-.05-.07-1.41-2.16q-.6-.91-.59-1.51l.02-.26h-2.86c.63.63.99 1.11 1.68 2.15l2.11 3.26-.02.03-2.38 3.63a9 9 0 0 1-1.69 1.95h2.63v-.16c0-.36.12-.71.43-1.23l1.89-2.95.05.07Zm12.37 3.17h-1.32v-4.05h.87a3.5 3.5 0 0 1 2.25.61l.87-1.73h-3.98v-3.64h1.27c1.09 0 1.78.16 2.33.54l.8-1.65h-6.52c.28.49.32.83.32 1.72v7.6c0 .89-.04 1.23-.32 1.72h6.05l.77-1.68c-1.13.43-2 .57-3.38.57m-23.57-26.85c.02-.31-.18-.58-.37-.8l-.35-.24c-.31-.24-.61-.47-.96-.28l-.04.02-.03-.04c-.19-.29-.1-.53-.02-.77q.09-.23.09-.47c-.2-.49-1.13-.51-1.75-.53q-.25 0-.42-.02l-1.48 1.06h-.02q-.24-.07-.48-.22-.23-.13-.44-.2v.02q-.07.11-.18.2l.06.33c.07.41.15.82.03 1.17q.14.2.17.4c.04.17.07.31.24.38l.04.02-.02.05c-.05.15-.19.2-.3.25l-.13.06c-.29.2-.62 0-.88-.16l-.1-.06.02.46v.06q0 .1-.03.17l-.02.1c-.02.27.04.55.09.81q.08.35.1.71c0 .58 0 1.57-.02 2.53l-.02 1.92v.61l.02.15c.02.17.05.36 0 .46-.25.46-.04.94.15 1.4q.11.24.19.48l.11.17c.13.21.23.36.44.3.23-.07.29-.3.31-.53q-.21-.81-.46-1.63l-.13-.45a52 52 0 0 1 .13-5.86v-.03q.2-.24.58-.16c.21.1.78.03 1.01-.03l.1-.03.26-.04c.17.03.19.09.18.22v.08c.01.36-.21.62-.41.88-.24.3-.47.58-.38 1 .5.29.3 1.43.19 2.05l-.05.31v.02c-.39.79.19 1.31.81 1.85q.36.3.64.63c.14.12.52.13.85.15s.62.03.76.13l.03.02v.03c-.1.45.05.83.47 1.25.17.07.44.1.61.06.3-.09.37-.33.45-.58l.08-.24c.1-2.07.16-5.05.03-6.67.08-.39.04-.82 0-1.23l-.03-.4c-.02-.28.07-.5.16-.72q.12-.26.15-.55Zm-4.36-.28c-.17-.05-.21-.47-.18-.59q.01-.17-.13-.36a1 1 0 0 1-.16-.37c.03-.39.37-.73.61-.96h.02s.84-.18 1.11 0q.07.04.09.13v.03c-.14.37-.2.77-.27 1.16l-.12.63v.03l-.96.32h-.02Zm2.39 7.91v.11l-.09-.07a4 4 0 0 0-.82-.5c-.73-.38-1.55-.81-1.41-1.5v-.06l.07.02c.3.12.51.13.72.03.32-.14.24-.81.18-1.31a3 3 0 0 1-.04-.55c-.23-.25-.56-.33-.92-.4h-.07l.04-.08.34-.59c.28-.49.58-.99.8-1.43v-.02h.03l.31-.09c.35-.1.83-.24 1.09-.23h.04v.05c.16 1.86-.16 5.32-.28 6.62Z" class="cls-1"/><path d="M1224.38 76.62c-.2-.38-.6-.45-1.03-.52l-.38-.08q-2.7.73-4.19.88-.48.03-1.07 0c-.75-.04-1.53-.07-2.03.21.02.27.09.6.37.87.81.63 1.69.3 2.54-.02q.52-.21.99-.3l1.44-.14a28 28 0 0 0 3.08-.37l.04-.03c.15-.12.32-.26.25-.5ZM1212 82.49c-.46-.45-.89-.87-1.52-.91-.36.63 0 1.17.38 1.75.22.33.44.68.53 1.04h.03c.21 0 .38.1.54.2s.31.19.5.19c.22.03.39.04.52-.12.16-.44.17-1.07-.18-1.48a5 5 0 0 1-.8-.68Zm.07 7.48c.37.44.76.9 1.33.75.23-.06.29-.26.36-.47v-.02c-.12-.21-.03-.39.03-.53.08-.17.13-.29-.04-.44l-.58-.47a9 9 0 0 0-1.25-.92q-.2-.01-.42-.09c-.3-.09-.5-.14-.59.04.08.6.37 1.19.92 1.87zm26.84.36q-.24-.15-.34-.25l-.04-.04.05-.04c.8-.61 1.65-1.97 1.6-2.87-.06-.98-.81-1.06-1.46-1.12h-.04c-.37-.05-.71-.09-.97-.27l-.05-.03.03-.04q.36-.41.94-.79l.04-.02c.72-.5 1.53-1.06 1.46-2.01l-.02-.07a.85.85 0 0 0-.95-.51l-.07.03a1 1 0 0 1-.52.09h-.33c-.26 0-.55.01-.79.17-.42.26-1.08.26-1.72-.02l-.04-.02h-.11c-.35.02-.7.05-.83.3q-.1.2.04.46.47.85 1.14.84c.67-.01.91-.29 1.31-.55.33-.21.71-.45 1.07-.51l.09-.02-.03.09-.02.11v.03a15 15 0 0 1-3.01 2.49l-.19.13-.49.34-.06.07a1 1 0 0 1-.46.33h-.02c-.31.18-.69.39-.73.81v.16l.13.05c.16.06.24.19.35.39.13.25.31.58.81.58h.06l.05-.03q.47-.32 1.04-.76a10 10 0 0 1 1.99-1.32c.13-.08.41-.02.57.12v.02c.25.67-.45 1.91-1.05 2.49h-.03c-.18.04-.72 0-1.03-.01h-.1l-.79-.05q-.45 0-.65.09l-.14.06.03.15c.04.26.39.53 1.54 1.19l.03.02.28.16.04.03.28.02q.42.04.98.05.72 0 1.16-.17l.36-.16-.35-.22Z" class="cls-1"/><path d="M1233.45 84.2v-.02c1.37-2.25 2.77-4.58 5.56-5.74l.12-.05v-.33l-.03-.06a2 2 0 0 0-1.81-.83h-.06l-.05.05q-.2.17-.38.27l-.07.04-.05-.33a2.4 2.4 0 0 0-.45-.98l-.11-.16-.16-.15c-.21-.16-.5-.38-.92-.38l-.21.01a.6.6 0 0 0-.42.41c-.05.18 0 .38.13.48q.9 1.18 1.74 1.17h.36l-.28.1c-.69.27-1.49.31-2.28.36-.71.04-1.45.08-2.08.27q-.46.06-.84.01l-.42-.01c-.26 0-.65.03-1.02.26l-.07.05-.02.09q-.1.62.46.89.46.12.97.12c.75 0 1.43-.2 2.07-.4.62-.19 1.25-.39 1.95-.39l.33.01h.05v.15l-1.34 2.27-2.91 4.11c-.62.63-1.08 1.35-1.51 2.04l-.03.04c-.64 1.02-1.24 1.98-2.31 2.68l-.14.09.07.15.11.32c.13.43.32 1.02.99 1.1l.12.02 2.67-4.43c.88-1 1.59-2.18 2.28-3.32Zm-37.72-1.25q-.16.02-.35-.02c-.17-.03-.35-.06-.44.03-.16.29.06.65.21.89a12 12 0 0 1 1.16-.36l.16-.03q.2-.05.41-.06h.04q.25.03.49.09l.35.07c.33.05.81.3 1.03.66q.2.32.1.65l-.08.37c-.08.38-.16.78-.48.96-.17.09-.37.1-.57.11l-.19.01-.08.01c-.16.02-.52.07-.57.18q-.03.06.07.15l.09.11 1.14.21q.18.13.29.29c.1.13.2.25.37.28a8 8 0 0 1 2.49-.48c.7-.06 1.42-.13 2.08-.33-.06-.23-.26-.36-.47-.5-.19-.13-.39-.26-.49-.47v-.03c.04-.61.45-1.08.85-1.54q.3-.34.54-.68.14-.15.29-.26c.26-.21.51-.41.45-.83l-.22-.32c-.3-.44-.6-.9-1.1-.96-.33.29-.74.36-1.13.43-.29.05-.57.1-.82.23h-.01l-.92.19a22 22 0 0 1-2.13.35c-.6.07-1.21.13-1.77.31q-.16.05-.31.13-.22.11-.48.17Zm3.3.17h.03a5 5 0 0 1 1.89-.34c.24-.23.5.01.7.19l.12.11.02.02v.02c0 .37-.02.47-.13.77v.02q-.27.29-.48.76c-.27.56-.56 1.13-1.14 1.13h-.08v-.03c-.11-.25-.02-.55.07-.83.15-.48.29-.93-.34-1.22q-.11-.07-.25-.12c-.21-.08-.45-.18-.42-.44v-.03Zm-8.14 2.32-.06-.08c-.13-.16-.27-.35-.47-.46l-.18-.08h-.02a1 1 0 0 0-.51-.02l-.19.02c-.18 0-1 .09-1.23.12l-.51.08q-.75.1-1.49.22l-.09.01-.12.02c-.28.06-.68.1-.85.02l-.05-.02.03-.05c.16-.42.37-.99.83-1.06h.2q.26 0 .35.03c.11.03.42.13.63.06q.26-.1.3-.34c.05-.32-.27-.7-.44-.82-.22-.16-.49-.09-.56-.07h-.04l-.06.03-.21-.03h-.07l.03-.07.02-.03h.01q.07-.09.18-.3c.11-.25.11-.42-.2-.6l-.22-.11-.2-.1-.15-.1h.15l.06-.02h.08l.09-.02.16-.03h.05q.16-.05.34-.07a.2.2 0 0 0 .17-.12c.12-.27-.07-.45-.16-.54l-.06-.06v-.02l-.07-.08q-.33-.3-.89-.29-.41.02-.76.09l-.11.02h-.01l-.09-.04-.08-.03.05-.06c.3-.32.49-.79.63-1.14l.13-.3.07-.16c.13-.31.23-.57.5-.47q.15.06.3.08h.05l.2.06q.3.09.61.25c.42.2.85.41 1.34.35.1 0 .17-.11.19-.19.03-.14.06-.3-.03-.47a2 2 0 0 0-.55-.59l-.08-.07c-.44-.35-.57-.42-.71-.42l-.41.04h-.09l-.34.04-.22.02h-.09v-.03l-.07-.24v-.39c0-.22.02-.49-.06-.75-.15-.47-.6-.9-1.18-1.13-.07-.02-.2 0-.25.07-.09.11-.11.36-.11.49q.05.2.18.4v.02c.14.26.13 1.54-.22 1.72a.2.2 0 0 0-.11.16q0 .11.07.18l.13.12v.03q-.11.34-.21.75l-.04.15c-.13.54-.27 1.09-.43 1.47q-.22.34-.97.43h-.03l-.02-.02a4 4 0 0 1-.38-.82v-.03q-.15-.4-.33-.73l-.02-.04.04-.03.46-.24.16-.08.14-.07q.2-.1.23-.13c.17-.14.18-.29.16-.36-.04-.25-.32-.37-.44-.41a2 2 0 0 0-.42-.1h-.43l-.02-.03c-.14-.24-.24-.71-.3-.97v-.05l-.06-.2c-.06-.19-.21-.32-.33-.43l-.08-.07q-.3-.3-.54-.33a.3.3 0 0 0-.17.03.3.3 0 0 0-.08.15c-.02.16.04.32.08.44v.03l.06.17.03.16.03.15q.04.36.16.76l.03.09c.09.3.11.37-.02.61-.08.15-.64.31-1.18.35h-.87c-.52 0-.81.03-.97.1q-.12.06-.12.19v.11s.02.1.05.14c.11.14 1.29.83 1.92.88.27-.01.63-.11.98-.21l.41-.11h.03l.02.02q.29.34.4 1.29v.05h-.04c-.59.12-1.39.16-1.93.16a.2.2 0 0 0-.15.06q-.06.05-.06.15v.15s.01.08.03.1c.34.56 1.14.77 1.96.51h.05q.38.35.5.7l.04.37.02.17a6 6 0 0 1 .04 1.98v.03h-.03c-.28.1-.87.18-1.11.09-.27-.1-.28-.31-.27-.68v-.24l.67-.55a.2.2 0 0 0 .07-.18q-.01-.11-.11-.16-.24-.12-.64.02h-.01q-.1.05-.22.06h-.03l-.02-.02-.09-.13-.09-.14c-.73-1.13-1.14-1.67-1.53-1.67a.4.4 0 0 0-.3.11c-.1.11-.1.24-.1.38q0 .13.12.19c.38.18.44.38.54.72q.05.2.17.46l.03.06v.02l.04.06-.06.02s-.13.02-.2.01h-.03l-.11-.03q-.18-.03-.37-.02h-.14c-.48.02-.91.07-.91.43q0 .15.13.19.32.15.6.35c.44.3.88.56 1.37.46h.04l.05.05h.01l.03.12.06.24v.05h-.04a39 39 0 0 1-3.68.51q-.1.01-.17.11c-.2.37.1.65.3.84h.01q.14.12.21.23.05.1.17.1h.08q.38-.02.7-.14l.19-.06c.36-.12 2.03-.48 2.5-.56q.36-.06.85-.1l.3-.03q.44-.03.86-.1l.17-.03h.02l.1.01.02.02v.02c.04.17.06 1.02.03 1.16-.02.1-.07.34-.61.36-.45 0-2.05.17-2.47.28-.23.02-.52.21-.55.41q0 .16.12.22c.34.15.7.29 1.14.29q.05 0 .08-.02c.2-.09.77-.15 1.27-.21h.05l.89-.12h.03l.02.02c.14.19.11.44.05.77l-.03.19a9 9 0 0 0 .08 2.17v.03c.04.17.1.41.33.55a.2.2 0 0 0 .18 0c.33-.14.48-.54.58-.83l.08-.21c.19-.39.13-.84.08-1.23l-.04-.4q-.01-.21-.07-.43c-.05-.23-.1-.42-.03-.59.06-.14.17-.28.62-.28h.75q.64-.04.94 0c.26.04.54.1.73.15h.03l.42.11c.09.03.25.09.41.09q.27 0 .41-.19a.2.2 0 0 0 0-.24l-.14-.19c-.29-.41-.62-.87-1.26-.99h-.1c-.33.11-.8.14-1.25.17h-.06c-.4.03-.9.06-1.29.16h-.04l-.02-.03c-.11-.2-.09-.55-.07-.86v-.06q.02-.23.01-.42v-.04h.04s.14-.04.27-.04h.83c1.12 0 2.66-.03 3.04-.06h.12q.76-.09 1.49-.07c.66.03 1.3.19 1.98.36h.04q.1.04.17-.02a.2.2 0 0 0 .08-.15c.03-.4-.2-.74-.38-.96Zm-5.93-2.56a.3.3 0 0 1-.1.16h-.01c-.06.03-.31.06-.54.1l-.45.08c-.12.03-.26.08-.29.23-.03.18.13.29.2.34q.22.14.45.17h.03l.25.08.05.02-.03.05-.11.18-.06.11c-.22.4-.49.9-.99.97q-.08 0-.13-.07c-.25-.29-.21-1.26-.16-1.56q.01-.1.08-.23.1-.2.11-.5a1.4 1.4 0 0 0-.38-.73l-.16-.14-.03-.02-.07-.05-.09-.07.11-.02c.09-.02.31-.02.47-.02q.2.02.28 0 .13 0 .39-.07h.03l.39-.08c.17 0 .4.29.6.56l.06.07c.07.1.13.27.1.42Zm11.72-4.34q.06.1.15.2l.14.18c.23.33.15.7.07 1.06l-.04.22c-.05.28-.04.96.2 1.25q.11.13.27.13c.15 0 .37-.11.54-.18l.14-.06c.45-.2.96-.28 1.44-.36h.06l.43-.09.51-.1.45-.03q.3 0 .59-.05c.34-.07.51-.33.67-.64.12-.23.53-.99.96-1.42l.14-.12q.22-.16.34-.38c.09-.21.02-.45-.07-.68l-.09-.26a2 2 0 0 0-.29-.63c-.51-.6-1.3-.92-2.02-.8q-.23.03-.45.1-.24.06-.49.1-.4.05-.77.06a7 7 0 0 0-.98.09c-.3.06-.99.2-.99.6 0 .16.15.25.3.33l.09.05c.32.19.68.42 1.06.56l.22.1c.23.11.55.25.7.17l.32-.18a3 3 0 0 1 1.56-.52h.03v.03c.3.47-.08.84-.41 1.17q-.19.17-.32.35-.45.86-1.82 1.08h-.03c-.15-.07-.36-.08-.48.02l-.04.03-.11-.11a6 6 0 0 0-2.09-1.55c.02.09.09.28.11.31Zm5.78 13.14h.78q.26-.03.5-.1.29-.09.6-.11.87-.03 1.79-.17l.9-.11.19-.11c.18-.09.34-.17.31-.38a1.5 1.5 0 0 0-.67-.34l-.17-.06c-.12-.05-.34-.01-.51.02l-.2.03-.34.02-.45.02h-1.17q-.97-.02-1.96.07l-.99.12a20 20 0 0 1-2.64.23c-1.06.07-1.95.11-2.09 0-.42-.3-.47-.94-.43-1.42q.05-.35.18-.71c.16-.49.31-.95.01-1.34-.23-.3-.51-.18-.83-.05q-.24.12-.49.15l-.05.11c-.11.22-.21.42-.16.68l.07.43c.14.88.3 1.89.95 2.43q.07.07.12.24.04.14.1.23c.31.32.84.32 1.26.32h.38q.56.03 1.13-.02 1.65-.17 3.49-.17h.4Zm11.26-12.06.3.08c.2.03.6.04.64-.14.12-.4.05-.92-.19-1.41-.03-.05-.16-.15-.25-.22l-.12-.09q-.35-.3-.72-.53l-.13-.08c-.21-.14-.5-.33-.71-.34-.1 0-.2.02-.24.23q-.05.27.03.55.04.2.05.4 0 .4-.15.89l-.04.14q-.08.35-.15.51.18-.08.38-.1.17 0 .29.06l.19.06q.05 0 .09-.03l.1-.04.14-.01q.24.01.48.09ZM869.74 91.58h-7.36V90.5h1.84c.94 0 1.4-.53 1.4-1.5V72.34q0-1.52-1.34-1.53h-1.91v-1.1h6.48l9.34 13.84c.31.47.44.62.69.62.31 0 .44-.31.44-.62V72.31c0-.97-.47-1.5-1.4-1.5h-1.84v-1.1h7.36v1.1h-1.84c-.94 0-1.41.53-1.41 1.5v19.27h-1.65l-10.93-16.2c-.31-.47-.44-.62-.69-.62-.31 0-.44.31-.44.62V89c0 .97.47 1.5 1.4 1.5h1.84v1.08Zm41.86-7.26c0-4.93 3.63-8.67 8-8.67 3.97 0 6.41 2.76 6.47 7.09h-10.14q-.04.4-.03.81c0 3.69 1.4 7.37 4.37 7.37 1.53 0 3.01-1.2 3.85-2.57.54-.88.81-2.05.87-2.79h.79c-.29 3.6-2.94 6.4-6.44 6.4-4.34 0-7.74-3.07-7.74-7.62Zm4.38-2.4h5.95c.11-3.44-.81-5.64-2.64-5.64-1.97 0-3.05 2.73-3.31 5.64m-13.64 5.53c0 2.81 1.69 4.5 4.56 4.5 1.8 0 3.29-1.22 4.04-2.11l-.52-.56c-.37.5-1.32 1.29-2.24 1.37-1.89.16-2.04-1.23-2.04-2.95V77.09h5.21v-.86h-5.19v-6.55h-2.3s-.14 1.1-.28 1.81c-.74 3.75-1.76 4.89-4.26 4.89v.71h3.03zm18.18 16.92v-6.89h.66c1.02 0 1.62.32 2.02 1.21.29.63.33 1.46.33 1.46h.47v-3.12h-7.82v3.12h.47s.05-.83.33-1.46c.4-.89 1-1.21 2.02-1.21h.66v6.89q0 .6-.65.6h-.9v.6h3.94v-.6h-.9q-.65 0-.65-.6Zm-37.85-20.55c0-4.32 3.7-8.19 8.27-8.19s8.27 3.86 8.27 8.19-3.67 8.13-8.27 8.13-8.27-3.83-8.27-8.13m4.45 0c0 4.71 1.45 7.58 3.83 7.58s3.83-2.87 3.83-7.58-1.45-7.65-3.83-7.65-3.83 2.91-3.83 7.65m40.99.01c0-4.42 3.39-8.31 7.22-8.31a5.5 5.5 0 0 1 4.73 2.71v-8.56h6.79v1.02h-1.59c-.96 0-1.37.53-1.37 1.46V89c0 .93.4 1.46 1.43 1.46h1.74v1.12h-6.87v-2.4a5.3 5.3 0 0 1-4.85 2.72c-3.83 0-7.22-3.78-7.22-8.07Zm4.94-.06c0 4.22.99 7.12 3.31 7.12s3.9-2.39 3.9-7.12-1.55-7.12-3.9-7.12-3.31 2.9-3.31 7.12m-4.89 13.85h.77v-.6h-3.51v.6h.77q.56 0 .56.6v6.15q0 .6-.56.6h-.77v.6h3.51v-.6h-.77q-.56 0-.56-.6v-6.15q0-.6.56-.6m15.82-.6v.6h.77q.56 0 .56.6v5.5q-.02.18-.11.17c-.08 0-.11-.05-.18-.15l-4.29-6.72h-2.35v.6h.79q.55 0 .55.6v6.15q0 .6-.56.6h-.77v.6h3.16v-.6h-.77q-.56 0-.56-.6v-5.98c0-.13.08-.17.13-.17.08 0 .11.05.18.15l4.61 7.2h.67v-7.34q0-.6.56-.6h.77v-.6zm-10.26-.1c2.18 0 4.18 1.96 4.18 4.37s-2 4.37-4.18 4.37-4.18-1.96-4.18-4.37 2-4.37 4.18-4.37m0 .48c-1.84 0-3.04 1.51-3.04 3.89s1.2 3.89 3.04 3.89 3.04-1.51 3.04-3.89-1.2-3.89-3.04-3.89m-28.88 6.41c-.4.89-1.06 1.3-2.08 1.3h-2.66v-3.67h1.57q.84 0 .85.88v.93h.74V99.2h-.74v.93q0 .9-.85.9h-1.57v-3.55h2.66c1.02 0 1.31.11 1.71 1 .29.63.29 1.47.29 1.47h.52v-2.91h-7.37v.6h.77q.56 0 .56.6v6.15q0 .6-.56.6h-.77v.6h7.74v-3.22h-.52s0 .83-.29 1.47Zm-7.95-1.47h-.52s0 .83-.29 1.47c-.4.89-1.06 1.3-2.08 1.3h-2.66v-6.89q0-.6.56-.6h.77v-.6h-3.51v.6h.77q.56 0 .56.6v6.15q0 .6-.56.6h-.77v.6h7.74v-3.22Zm-17.07-1.05c0 2.4-2 4.37-4.18 4.37s-4.18-1.96-4.18-4.37 2-4.37 4.18-4.37 4.18 1.96 4.18 4.37m-1.14 0c0-2.38-1.2-3.89-3.04-3.89s-3.04 1.51-3.04 3.89 1.2 3.89 3.04 3.89 3.04-1.51 3.04-3.89m8.64 2.51c-.4.89-1.06 1.3-2.08 1.3h-2.66v-6.89q0-.6.56-.6h.77v-.6h-3.51v.6h.77q.56 0 .56.6v6.15q0 .6-.56.6h-.77v.6h7.74v-3.22h-.52s0 .83-.29 1.47Zm23.73 1.85c1.42 0 2.07-.62 2.29-.81 1.04-.89 1.23-2.46 1.23-2.46h-.47c-.4 1.93-1.48 2.79-3.06 2.79-1.84 0-3.04-1.51-3.04-3.89s1.2-3.89 3.04-3.89c1.53 0 2.55.96 2.99 2.74h.49v-3.12h-.44c-.08.71-.39.69-.7.57-.39-.15-1.19-.66-2.35-.66-2.18 0-4.18 1.96-4.18 4.37s2 4.37 4.18 4.37Zm-44.56 0c1.42 0 2.07-.62 2.29-.81 1.04-.89 1.23-2.46 1.23-2.46h-.47c-.4 1.93-1.48 2.79-3.06 2.79-1.84 0-3.04-1.51-3.04-3.89s1.2-3.89 3.04-3.89c1.53 0 2.55.96 2.99 2.74h.49v-3.12h-.44c-.08.71-.39.69-.7.57-.39-.15-1.19-.66-2.35-.66-2.18 0-4.18 1.96-4.18 4.37s2 4.37 4.18 4.37ZM20.33 16.6v-1H0v214.25h1016.1v-1H1V16.6z" class="cls-1"/><path d="M268.68 15.6v1h997.36v212.25h-19.31v1h20.31V15.6zM90.7.52h-4.71v13.71h-17V.52h-4.66v31.17h4.66V17.45h17v14.24h4.71zm-44.86 0h4.66v31.17h-4.66zm78.27 16.17v12.08c-1.32.89-3.53 1.6-6.03 1.6-7.3 0-12.29-6.45-12.29-14.6 0-7.68 4.38-13.98 11.68-13.98 5.04 0 7.91 2.35 10.03 4.99h.24V1.37A44 44 0 0 0 117.66 0c-10.59 0-17.04 7.72-17.04 16.2 0 9.27 6.97 16.01 17.14 16.01 5.04 0 8.95-1.93 11.06-2.54V16.69zm5.88-13.98c0-1.04.83-1.87 1.87-1.87a1.86 1.86 0 1 1 0 3.72c-1.04 0-1.87-.8-1.87-1.85m3.4 0c0-.92-.64-1.56-1.53-1.56s-1.53.65-1.53 1.57.67 1.55 1.53 1.55 1.53-.64 1.53-1.56m-2.17-.94h.65c.43 0 .71.18.71.56 0 .29-.16.44-.38.51l.49.78h-.42l-.45-.72h-.19v.72h-.4V1.76Zm.64.85q.32 0 .32-.27-.01-.29-.32-.27h-.24v.54zM145.63.55h1.51V5.8h8.91V.55h1.51v11.62h-1.51V7.02h-8.91v5.15h-1.51zm15.14 5.88V6.3c0-3.3 3.01-5.9 7.64-5.9s7.64 2.6 7.64 5.87v.13c0 3.28-3.01 5.92-7.59 5.92s-7.69-2.63-7.69-5.88Zm13.7-.05v-.13c0-2.58-2.23-4.7-6.06-4.7s-6.06 1.98-6.06 4.73v.13c0 2.8 2.5 4.71 6.11 4.71s6.01-1.95 6.01-4.75Zm7.63-4.66h-4.78V.55h11.07v1.17h-4.78v10.45h-1.51zm9.15-1.17h9.78v1.17h-8.27v3.92h6.97v1.17h-6.97V11h8.66v1.17h-10.17zm13.16 0h1.51V11h7.49v1.17h-9zm10.84 8.07h1.48c.24 1.43 1.33 2.54 4.44 2.54 2.49 0 3.88-.85 3.88-2.26s-1.02-1.8-4.21-2.18c-3.2-.37-4.99-1.14-4.99-3.22 0-1.79 1.87-3.1 4.92-3.1s4.96 1.07 5.27 3.2h-1.38c-.36-1.51-1.63-2.05-3.88-2.05-2.45 0-3.51.75-3.51 1.92 0 1.04.76 1.64 4.01 2.02 3.41.39 5.23 1.07 5.23 3.36 0 2.02-1.98 3.46-5.35 3.46-3.9 0-5.62-1.64-5.92-3.69Zm-69.62 11.42h5.53c2.58 0 4.76.96 4.76 3.41v.06c0 2.02-1.71 3.02-3.33 3.32l4.26 4.83h-1.82l-4.16-4.71h-3.72v4.71h-1.51zm5.62 5.77c1.93 0 3.15-.8 3.15-2.28v-.06c0-1.66-1.32-2.28-3.15-2.28h-4.11v4.62zm8.91-5.77h9.78v1.17h-8.27v3.92h6.97v1.17h-6.97v4.19h8.66v1.17h-10.17zm12.74 8.08h1.48c.24 1.43 1.33 2.54 4.44 2.54 2.49 0 3.88-.85 3.88-2.26s-1.02-1.8-4.21-2.18c-3.2-.37-4.99-1.14-4.99-3.22 0-1.79 1.87-3.1 4.92-3.1s4.96 1.07 5.27 3.2h-1.38c-.36-1.51-1.63-2.05-3.88-2.05-2.45 0-3.51.75-3.51 1.92 0 1.04.76 1.64 4.01 2.02 3.41.39 5.23 1.07 5.23 3.36 0 2.02-1.98 3.46-5.35 3.46-3.9 0-5.62-1.64-5.92-3.69Zm14.19-2.2v-.13c0-3.3 3.01-5.9 7.64-5.9s7.64 2.6 7.64 5.87v.13c0 3.28-3.01 5.92-7.59 5.92s-7.69-2.63-7.69-5.88Zm13.7-.05v-.13c0-2.58-2.23-4.7-6.06-4.7s-6.06 1.98-6.06 4.73v.13c0 2.8 2.5 4.71 6.11 4.71s6.01-1.95 6.01-4.75Zm5.34-5.83h5.53c2.58 0 4.76.96 4.76 3.41v.06c0 2.02-1.71 3.02-3.33 3.32l4.26 4.83h-1.82l-4.16-4.71h-3.72v4.71h-1.51zm5.62 5.77c1.93 0 3.15-.8 3.15-2.28v-.06c0-1.66-1.32-2.28-3.15-2.28h-4.11v4.62zm12.23-4.6h-4.78v-1.17h11.07v1.17h-4.78v10.45h-1.51zm8.4 6.91h1.48c.24 1.43 1.33 2.54 4.44 2.54 2.49 0 3.88-.85 3.88-2.26s-1.02-1.8-4.21-2.18c-3.2-.37-4.99-1.14-4.99-3.22 0-1.79 1.87-3.1 4.92-3.1s4.96 1.07 5.27 3.2h-1.38c-.36-1.51-1.63-2.05-3.88-2.05-2.45 0-3.51.75-3.51 1.92 0 1.04.76 1.64 4.01 2.02 3.41.39 5.23 1.07 5.23 3.36 0 2.02-1.98 3.46-5.35 3.46-3.9 0-5.62-1.64-5.92-3.69Zm8.6-17.55a5 5 0 0 1-3.79 1.71c-2.39 0-3.96-1.15-3.96-3.11s1.43-2.86 2.91-3.42a3.4 3.4 0 0 1-1.28-2.59c0-1.79 1.46-2.8 3.11-2.8 1.76 0 2.94 1.14 2.94 2.7 0 1.15-.91 2.28-2.68 2.98l2.83 2.86 1.83-2.75h1.25l-2.33 3.51 2.44 2.49h-1.72zm-3.76.59c1.36 0 2.39-.54 3.08-1.29l-3.35-3.43c-1.38.5-2.39 1.27-2.39 2.65 0 1.27.94 2.07 2.66 2.07m.24-5.77c1.63-.7 2.24-1.42 2.24-2.34s-.64-1.59-1.76-1.59c-1.04 0-1.86.59-1.86 1.74 0 .88.6 1.56 1.38 2.2Zm834.21 212.28h3.52v23.35h-3.52v-10.67h-12.73v10.67h-3.5v-23.35h3.5v10.27h12.73zm-30.08 0h3.49v23.35h-3.49zm58.63 12.11h3.53v9.72c-1.59.46-4.51 1.9-8.29 1.9-7.62 0-12.84-5.04-12.84-11.99 0-6.35 4.83-12.13 12.77-12.13 3.28 0 6.42.74 7.55 1.02v4.06h-.18c-1.59-1.98-3.74-3.74-7.51-3.74-5.47 0-8.75 4.73-8.75 10.48 0 6.1 3.74 10.93 9.21 10.93 1.87 0 3.53-.53 4.51-1.2zm26.85-4.39v-9.51h-1.05c0 2.25-1.26 5.76-3.11 8.73-2.07 3.32-4.38 5.22-6.34 5.22v1.05c4.27 0 7.29-1.14 9.45-2.9V244h1.05v-17a14 14 0 0 0 3.19-5.92v26.78h1.05v-37.02h-1.05c0 5.6-.53 10.95-3.19 14.54Zm-1.05 1.21a11 11 0 0 1-6.03 2.95 16 16 0 0 0 3.81-4.38c.9-1.44 1.66-3.01 2.22-4.53zm19.96-4.5v-.1c0-2.47 2.25-4.42 5.72-4.42s5.72 1.95 5.72 4.4v.1c0 2.46-2.25 4.43-5.69 4.43s-5.76-1.97-5.76-4.41Zm10.27-.04v-.1c0-1.94-1.67-3.52-4.54-3.52s-4.54 1.49-4.54 3.54v.1c0 2.09 1.88 3.53 4.58 3.53s4.51-1.46 4.51-3.56Zm3.72-4.37h1.5l6.28 7.4v-7.4h1.08v8.71h-1.32l-6.47-7.68v7.68h-1.08zm11.98 0h7.33v.88h-6.2v2.93h5.22v.88h-5.22v3.14h6.49v.88h-7.62zm-25.33 14.62h4.14c1.94 0 3.57.72 3.57 2.56v.05c0 1.51-1.28 2.27-2.5 2.48l3.19 3.62h-1.36l-3.12-3.53h-2.79v3.53h-1.13zm4.21 4.32c1.45 0 2.36-.6 2.36-1.7v-.05c0-1.24-.99-1.7-2.36-1.7h-3.08v3.46h3.08Zm6.64-4.32h7.33v.88h-6.2v2.93h5.22v.88h-5.22v3.14h6.49v.88h-7.62zm9.49 0h1.16l2.57 7.36 3-7.36h.8l2.93 7.38 2.67-7.38h1.06l-3.19 8.71h-1.07l-2.81-7.16-2.95 7.16h-1.06zm19.07 0h1.51l4.15 8.71h-1.17l-1.18-2.5h-5.25l-1.21 2.5h-1.05zm-1.52 5.36h4.43l-2.19-4.63zm9.61-5.36h4.14c1.94 0 3.57.72 3.57 2.56v.05c0 1.51-1.28 2.27-2.5 2.48l3.19 3.62h-1.36l-3.12-3.53h-2.79v3.53h-1.13zm4.21 4.32c1.45 0 2.36-.6 2.36-1.7v-.05c0-1.24-.99-1.7-2.36-1.7h-3.08v3.46h3.08Zm6.64-4.32h3.96c3.74 0 5.55 1.85 5.55 4.27v.11c0 2.41-1.74 4.32-5.59 4.32h-3.92zm3.88 7.83c3 0 4.46-1.34 4.46-3.46v-.1c0-2.01-1.32-3.41-4.47-3.41h-2.74v6.97zm7.74-1.78h1.11c.18 1.07 1 1.9 3.32 1.9 1.86 0 2.91-.63 2.91-1.69s-.77-1.35-3.15-1.63c-2.4-.28-3.74-.85-3.74-2.41 0-1.34 1.4-2.33 3.69-2.33s3.71.8 3.95 2.4h-1.04c-.27-1.13-1.22-1.53-2.91-1.53-1.84 0-2.63.56-2.63 1.44 0 .78.57 1.23 3.01 1.51 2.56.29 3.92.8 3.92 2.52 0 1.51-1.49 2.59-4.01 2.59-2.92 0-4.21-1.23-4.43-2.76Z" class="cls-1"/></svg>