<svg xmlns="http://www.w3.org/2000/svg" width="24" height="25" viewBox="0 0 24 25" fill="none"><script xmlns="" id="datalayer-checker-script"/>
    <path d="M11 17.8931H13V11.8931H11V17.8931ZM12 9.89307C12.2833 9.89307 12.5208 9.79723 12.7125 9.60557C12.9042 9.4139 13 9.1764 13 8.89307C13 8.60973 12.9042 8.37223 12.7125 8.18057C12.5208 7.9889 12.2833 7.89307 12 7.89307C11.7167 7.89307 11.4792 7.9889 11.2875 8.18057C11.0958 8.37223 11 8.60973 11 8.89307C11 9.1764 11.0958 9.4139 11.2875 9.60557C11.4792 9.79723 11.7167 9.89307 12 9.89307ZM12 22.8931C10.6167 22.8931 9.31667 22.6306 8.1 22.1056C6.88333 21.5806 5.825 20.8681 4.925 19.9681C4.025 19.0681 3.3125 18.0097 2.7875 16.7931C2.2625 15.5764 2 14.2764 2 12.8931C2 11.5097 2.2625 10.2097 2.7875 8.99307C3.3125 7.7764 4.025 6.71807 4.925 5.81807C5.825 4.91807 6.88333 4.20557 8.1 3.68057C9.31667 3.15557 10.6167 2.89307 12 2.89307C13.3833 2.89307 14.6833 3.15557 15.9 3.68057C17.1167 4.20557 18.175 4.91807 19.075 5.81807C19.975 6.71807 20.6875 7.7764 21.2125 8.99307C21.7375 10.2097 22 11.5097 22 12.8931C22 14.2764 21.7375 15.5764 21.2125 16.7931C20.6875 18.0097 19.975 19.0681 19.075 19.9681C18.175 20.8681 17.1167 21.5806 15.9 22.1056C14.6833 22.6306 13.3833 22.8931 12 22.8931Z" fill="#ECBA58"/>
</svg>