<svg width="20" height="20" viewBox="0 0 20 20" fill="none" xmlns="http://www.w3.org/2000/svg">
    <path d="M9.99784 7.3322C8.52885 7.3322 7.33009 8.53103 7.33009 10C7.33009 11.469 8.52885 12.6678 9.99784 12.6678C11.4668 12.6678 12.6656 11.469 12.6656 10C12.6656 8.53103 11.4668 7.3322 9.99784 7.3322ZM17.9991 10C17.9991 8.89526 18.0091 7.80052 17.9471 6.69778C17.885 5.41691 17.5928 4.28014 16.6562 3.3435C15.7176 2.40487 14.5829 2.11467 13.302 2.05263C12.1973 1.99059 11.1025 2.0006 9.99983 2.0006C8.89512 2.0006 7.8004 1.99059 6.69768 2.05263C5.41684 2.11467 4.28009 2.40687 3.34347 3.3435C2.40486 4.28214 2.11467 5.41691 2.05263 6.69778C1.99059 7.80252 2.0006 8.89724 2.0006 10C2.0006 11.1028 1.99059 12.1995 2.05263 13.3022C2.11467 14.5831 2.40686 15.7199 3.34347 16.6565C4.28209 17.5952 5.41684 17.8854 6.69768 17.9474C7.8024 18.0094 8.89711 17.9994 9.99983 17.9994C11.1046 17.9994 12.1993 18.0094 13.302 17.9474C14.5829 17.8854 15.7196 17.5931 16.6562 16.6565C17.5948 15.7179 17.885 14.5831 17.9471 13.3022C18.0111 12.1995 17.9991 11.1047 17.9991 10ZM9.99784 14.1048C7.72635 14.1048 5.89315 12.2715 5.89315 10C5.89315 7.72847 7.72635 5.89523 9.99784 5.89523C12.2693 5.89523 14.1025 7.72847 14.1025 10C14.1025 12.2715 12.2693 14.1048 9.99784 14.1048ZM14.2707 6.68577C13.7403 6.68577 13.312 6.25748 13.312 5.72712C13.312 5.19676 13.7403 4.76847 14.2707 4.76847C14.801 4.76847 15.2293 5.19676 15.2293 5.72712C15.2295 5.85305 15.2047 5.97778 15.1566 6.09416C15.1085 6.21055 15.0379 6.31629 14.9489 6.40534C14.8598 6.49439 14.7541 6.565 14.6377 6.61312C14.5213 6.66124 14.3966 6.68593 14.2707 6.68577Z"
          fill="white"/>
</svg>
