<svg width="24" height="24" fill="none" xmlns="http://www.w3.org/2000/svg"><path d="M20.627 4.845H3.372a.614.614 0 00-.613.614v1.235c0 .056.062.122.112.148l9.069 5.18a.152.152 0 00.154-.001l8.794-5.174c.05-.027.18-.1.23-.134.06-.04.12-.077.12-.15V5.459a.614.614 0 00-.613-.614zm.536 3.71a.155.155 0 00-.155.001l-4.976 2.928a.155.155 0 00-.075.11.154.154 0 00.04.127l4.977 5.365a.152.152 0 00.112.05.154.154 0 00.154-.154V8.688a.153.153 0 00-.077-.133zm-6.566 3.912a.153.153 0 00-.19-.028l-1.994 1.174a.779.779 0 01-.77.005l-1.756-1.003a.154.154 0 00-.18.02L3.04 18.82a.153.153 0 00.028.244c.103.061.203.09.305.09H20.45a.153.153 0 00.112-.257l-5.965-6.43zm-6.357-.563a.153.153 0 00-.027-.245L2.989 8.675a.153.153 0 00-.229.133v7.83a.153.153 0 00.257.112l5.223-4.846z" fill="#2D1502"/></svg>