<svg xmlns="http://www.w3.org/2000/svg" width="24" height="18" viewBox="0 0 24 18" fill="none">
    <path d="M23.3902 6.401C23.6502 6.25214 24.0002 6.4407 24.0002 6.75826L22.2502 17.3769C22.2502 17.6349 22.0102 17.8334 21.7502 17.7838C20.3403 17.5258 17.4603 16.8509 12.0005 16.8509V15.6402L23.3902 6.401Z" fill="#FBC04C"/>
    <path d="M11.6201 0.4169C11.7001 0.26804 11.8501 0.208496 12.0001 0.208496C12.1501 0.208496 12.3001 0.26804 12.3801 0.4169L17.6299 9.95384L12.0001 14.0227L6.38023 9.95384L11.6201 0.4169Z" fill="#FBC04C"/>
    <path d="M1.74983 17.367L-0.00012207 6.74833C-0.00012207 6.40099 0.399868 6.21244 0.669861 6.43076L11.9996 15.6303V16.841C6.53971 16.841 3.64979 17.5258 2.24982 17.7739C1.98983 17.8235 1.74983 17.625 1.74983 17.367Z" fill="#EAA43F"/>
</svg>
