<svg xmlns="http://www.w3.org/2000/svg" width="191" height="102" viewBox="0 0 191 102" fill="none">
    <mask id="mask0_1186_52866" style="mask-type:luminance" maskUnits="userSpaceOnUse" x="3" y="3" width="185" height="96">
        <path d="M187.223 3.2381H3.20929V98.0495H187.223V3.2381Z" fill="white"/>
    </mask>
    <g mask="url(#mask0_1186_52866)">
        <path d="M62.8793 22.9022C62.0512 22.4432 60.9803 23.0207 60.9803 24.0313L66.4602 57.7476C66.4602 58.5732 67.2147 59.195 68.0243 59.0433C72.4296 58.2289 81.476 56.067 98.5814 56.067V52.2245L62.8793 22.9022Z" fill="#FBC04C"/>
        <path d="M99.7691 3.90806C99.5148 3.43792 99.0367 3.23433 98.5731 3.23803C98.1055 3.23803 97.6307 3.43792 97.3764 3.90806L80.9406 34.1928L98.5731 47.1011L116.19 34.1706L99.7691 3.90806Z" fill="#FBC04C"/>
        <path d="M130.697 57.7475L136.177 24.0312C136.177 22.9428 134.926 22.3394 134.083 23.0205L98.5793 52.2281V56.0706C115.689 56.0706 124.732 58.2324 129.136 59.0469C129.943 59.1949 130.701 58.573 130.701 57.7512L130.697 57.7475Z" fill="#EAA43F"/>
        <path d="M9.34436 80.4324L16.094 93.3923H20.0061L26.7152 80.5101V93.3923H32.8503V67.55H26.6784L18.0518 83.5565L9.42162 67.55H3.20929V93.3923H9.34436V80.4324Z" fill="#274573"/>
        <path d="M61.6245 70.5707H53.8664L48.1399 83.8642L42.7704 70.5707H35.0124L44.3934 92.6224L42.0564 98.0495H49.8549L61.6245 70.5707Z" fill="#274573"/>
        <path d="M80.9614 84.5231H82.8012L90.5483 93.3962H98.1811L90.129 84.2154C92.2263 83.7532 93.8753 82.7939 95.0753 81.3432C96.2753 79.8918 96.8781 78.1076 96.8781 76.0012C96.8781 73.4803 96.0355 71.4443 94.3462 69.8858C92.6569 68.331 90.4235 67.5536 87.6373 67.5536H74.6348V93.3962H80.9614V84.5231ZM80.9614 72.9879H86.9419C88.0678 72.9879 88.9692 73.2693 89.6469 73.8356C90.3237 74.4021 90.6625 75.1461 90.6625 76.0715C90.6625 76.997 90.3237 77.7818 89.6469 78.3482C88.9692 78.9146 88.0678 79.1959 86.9419 79.1959H80.9614V72.9843V72.9879Z" fill="#274573"/>
        <path d="M111.49 94.0294C114.95 94.0294 117.883 92.9114 120.286 90.6715C122.689 88.4323 123.893 85.5448 123.893 82.0055C123.893 78.4668 122.689 75.6237 120.286 73.3842C117.879 71.1446 114.946 70.0266 111.49 70.0266C108.034 70.0266 105.002 71.1446 102.58 73.3842C100.158 75.6237 98.9479 78.4964 98.9479 82.0055C98.9479 85.5148 100.158 88.4323 102.58 90.6715C105.002 92.9114 107.972 94.0294 111.49 94.0294ZM107.567 77.7635C108.679 76.6603 109.989 76.1087 111.49 76.1087C112.992 76.1087 114.206 76.6603 115.303 77.7635C116.399 78.8666 116.952 80.2807 116.952 82.0055C116.952 83.7306 116.411 85.1449 115.329 86.2483C114.247 87.3508 112.97 87.9029 111.494 87.9029C110.018 87.9029 108.645 87.3508 107.549 86.2483C106.452 85.1449 105.9 83.7306 105.9 82.0055C105.9 80.2807 106.456 78.8666 107.571 77.7635H107.567Z" fill="#274573"/>
        <path d="M150.234 70.5707H142.476L136.746 83.8642L131.38 70.5707H123.622L133.003 92.6224L130.666 98.0495H138.461L150.234 70.5707Z" fill="#274573"/>
        <path d="M153.264 90.694C155.414 92.9486 158.023 94.0738 161.088 94.0738C163.945 94.0738 166.292 93.2408 168.125 91.5788V93.3922H175.342V70.6151H168.125V72.429C166.292 70.7632 163.945 69.934 161.088 69.934C158.023 69.934 155.414 71.0704 153.264 73.3359C151.115 75.6052 150.037 78.4926 150.037 82.0022C150.037 85.5115 151.111 88.4355 153.264 90.69V90.694ZM158.655 77.7634C159.679 76.6601 160.985 76.1086 162.579 76.1086C164.084 76.1086 165.383 76.6676 166.48 77.7855C167.577 78.9035 168.125 80.3102 168.125 82.0054C168.125 83.7014 167.577 85.1448 166.48 86.2481C165.383 87.3507 164.081 87.9028 162.579 87.9028C160.985 87.9028 159.679 87.3588 158.655 86.27C157.633 85.182 157.121 83.7605 157.121 82.0054C157.121 80.2509 157.633 78.8665 158.655 77.7634Z" fill="#274573"/>
        <path d="M187.221 67.5278H180.005V93.3923H187.221V67.5278Z" fill="#274573"/>
    </g>
</svg>
