<svg width="36" height="37" viewBox="0 0 36 37" fill="none" xmlns="http://www.w3.org/2000/svg">
    <circle cx="18" cy="18.5244" r="17.75" fill="#180B01"/>
    <g clip-path="url(#clip0_1463_50258)">
        <path
                d="M6.28045 16.1293C6.01674 15.9771 5.66174 16.1698 5.66174 16.4944L7.43674 27.3473C7.43674 27.611 7.68016 27.8138 7.94388 27.7631C9.37402 27.4994 12.2952 26.8097 17.8332 26.8097V25.5723L6.28045 16.1293Z"
                fill="#FBC04C"/>
        <path
                d="M18.2181 10.0131C18.1369 9.86097 17.9848 9.80011 17.8326 9.80011C17.6805 9.80011 17.5284 9.86097 17.4472 10.0131L12.1222 19.7604L17.8326 23.919L23.5329 19.7604L18.2181 10.0131Z"
                fill="#FBC04C"/>
        <path
                d="M28.2297 27.3371L30.0047 16.4842C30.0047 16.1292 29.599 15.9365 29.3251 16.1596L17.8333 25.5621V26.7995C23.3713 26.7995 26.3025 27.4993 27.7225 27.7529C27.9863 27.8036 28.2297 27.6008 28.2297 27.3371Z"
                fill="#EAA43F"/>
    </g>
    <defs>
        <clipPath id="clip0_1463_50258">
            <rect width="24.3429" height="17.9731" fill="white" transform="translate(5.66534 9.79984)"/>
        </clipPath>
    </defs>
</svg>
