<svg xmlns="http://www.w3.org/2000/svg" width="20" height="20" viewBox="0 0 20 20">
    <path d="M17.5524 3.45511C16.155 1.84535 14.3663 0.795482 12.4602 0.311713C12.4439 0.307287 12.4275 0.303746 12.4107 0.29932C12.3624 0.287369 12.3137 0.275419 12.265 0.263911C11.2368 0.02092 10.1572 -0.0605197 9.06161 0.045706C9.02221 0.0492469 8.98326 0.0541155 8.94386 0.058099C8.91244 0.0616398 8.88101 0.0642955 8.84958 0.0682789C7.3344 0.241338 5.85065 0.760959 4.52847 1.63157C1.61143 3.52902 -0.174202 6.86406 0.0134798 10.5532C0.246754 15.1333 3.6507 19.0083 8.16525 19.8289C8.51937 19.8935 8.87702 19.9404 9.23291 19.9958H10.7379C10.8096 19.9812 10.8804 19.9648 10.9526 19.952C11.5103 19.8497 12.0796 19.7891 12.6245 19.6399C14.7018 19.0707 16.4538 17.8916 17.7268 16.3367C20.5253 13.0433 21.0436 7.47708 17.5529 3.45555L17.5524 3.45511ZM7.78236 9.59982C7.54732 9.47456 7.33396 9.31876 7.18523 9.09436C7.11883 8.99433 7.16576 8.8496 7.26447 8.79162C7.37159 8.72877 7.50128 8.77126 7.56723 8.87084C7.67259 9.02974 7.84079 9.12977 8.00546 9.21785C8.25732 9.35196 8.03334 9.73393 7.78192 9.59982H7.78236Z"
          fill="#0C2D63"/>
    <path d="M9.13929 11.7811C6.16028 12.2277 3.89968 14.732 3.82443 17.6629C3.82089 17.8041 3.86073 17.8904 3.97493 17.9754C5.80572 19.3404 7.86491 20.0048 10.0905 19.9999C12.3117 19.9472 14.2687 19.2873 16.0127 17.9953C16.1477 17.8953 16.1933 17.7939 16.1871 17.628C16.0565 14.0269 12.7075 11.2465 9.13929 11.7811Z"
          fill="#FDB319"/>
    <path d="M9.99171 10.6666C11.7968 10.6648 13.2562 9.21883 13.258 7.42982C13.2598 5.62177 11.8057 4.16559 9.99702 4.16382C8.21183 4.16205 6.75508 5.62664 6.75287 7.42451C6.7511 9.20069 8.2167 10.6679 9.99171 10.6666Z"
          fill="#FDB319"/>
</svg>
