<svg xmlns="http://www.w3.org/2000/svg" width="24" height="25" viewBox="0 0 24 25" fill="currentColor">
    <path
            d="M5.5 22.5C5.0875 22.5 4.73438 22.3531 4.44063 22.0594C4.14688 21.7656 4 21.4125 4 21V10.15C4 9.7375 4.14688 9.38438 4.44063 9.09063C4.73438 8.79688 5.0875 8.65 5.5 8.65H7.25V6.25C7.25 4.93583 7.71338 3.81563 8.64015 2.88938C9.56692 1.96313 10.6877 1.5 12.0027 1.5C13.3175 1.5 14.4375 1.96313 15.3625 2.88938C16.2875 3.81563 16.75 4.93583 16.75 6.25V8.65H18.5C18.9125 8.65 19.2656 8.79688 19.5594 9.09063C19.8531 9.38438 20 9.7375 20 10.15V21C20 21.4125 19.8531 21.7656 19.5594 22.0594C19.2656 22.3531 18.9125 22.5 18.5 22.5H5.5ZM5.5 21H18.5V10.15H5.5V21ZM12.0042 17.5C12.5347 17.5 12.9875 17.3164 13.3625 16.9492C13.7375 16.582 13.925 16.1406 13.925 15.625C13.925 15.125 13.7361 14.6708 13.3583 14.2625C12.9805 13.8542 12.5263 13.65 11.9958 13.65C11.4653 13.65 11.0125 13.8542 10.6375 14.2625C10.2625 14.6708 10.075 15.1292 10.075 15.6375C10.075 16.1458 10.2639 16.5833 10.6417 16.95C11.0195 17.3167 11.4737 17.5 12.0042 17.5ZM8.75 8.65H15.25V6.25C15.25 5.34722 14.9343 4.57986 14.3029 3.94792C13.6716 3.31597 12.9049 3 12.003 3C11.101 3 10.3333 3.31597 9.7 3.94792C9.06667 4.57986 8.75 5.34722 8.75 6.25V8.65Z"/>
</svg>