<svg xmlns="http://www.w3.org/2000/svg" width="24" height="24"
     viewBox="0 0 24 24" fill="currentColor">
    <g clip-path="url(#clip0_4993_1326)">
        <path d="M0 18V16.675C0 16.0322 0.345833 15.509 1.0375 15.1054C1.72917 14.7018 2.63647 14.5 3.7594 14.5C3.96215 14.5 4.15711 14.5042 4.34427 14.5125C4.53142 14.5208 4.71667 14.5388 4.9 14.5663C4.76667 14.8554 4.66667 15.1485 4.6 15.4454C4.53333 15.7424 4.5 16.0522 4.5 16.375V18H0ZM6 18V16.375C6 15.8417 6.14583 15.3542 6.4375 14.9125C6.72917 14.4708 7.14167 14.0833 7.675 13.75C8.20833 13.4167 8.84583 13.1667 9.5875 13C10.3292 12.8333 11.1333 12.75 12 12.75C12.8833 12.75 13.6958 12.8333 14.4375 13C15.1792 13.1667 15.8167 13.4167 16.35 13.75C16.8833 14.0833 17.2917 14.4708 17.575 14.9125C17.8583 15.3542 18 15.8417 18 16.375V18H6ZM19.5 18V16.375C19.5 16.044 19.4708 15.7321 19.4125 15.4392C19.3542 15.1464 19.2583 14.8561 19.125 14.5682C19.3083 14.5394 19.4931 14.5208 19.6793 14.5125C19.8655 14.5042 20.0557 14.5 20.25 14.5C21.375 14.5 22.2812 14.6981 22.9688 15.0942C23.6562 15.4903 24 16.0173 24 16.675V18H19.5ZM3.73918 13.75C3.26306 13.75 2.85417 13.5786 2.5125 13.2359C2.17083 12.8932 2 12.4813 2 12C2 11.5167 2.17135 11.1042 2.51405 10.7625C2.85677 10.4208 3.26875 10.25 3.75 10.25C4.23333 10.25 4.64583 10.4208 4.9875 10.7625C5.32917 11.1042 5.5 11.5203 5.5 12.0108C5.5 12.4869 5.32917 12.8958 4.9875 13.2375C4.64583 13.5792 4.22972 13.75 3.73918 13.75ZM20.2392 13.75C19.7631 13.75 19.3542 13.5786 19.0125 13.2359C18.6708 12.8932 18.5 12.4813 18.5 12C18.5 11.5167 18.6714 11.1042 19.0141 10.7625C19.3568 10.4208 19.7688 10.25 20.25 10.25C20.7333 10.25 21.1458 10.4208 21.4875 10.7625C21.8292 11.1042 22 11.5203 22 12.0108C22 12.4869 21.8292 12.8958 21.4875 13.2375C21.1458 13.5792 20.7297 13.75 20.2392 13.75ZM12 12C11.1667 12 10.4583 11.7083 9.875 11.125C9.29167 10.5417 9 9.83333 9 9C9 8.15 9.29167 7.4375 9.875 6.8625C10.4583 6.2875 11.1667 6 12 6C12.85 6 13.5625 6.2875 14.1375 6.8625C14.7125 7.4375 15 8.15 15 9C15 9.83333 14.7125 10.5417 14.1375 11.125C13.5625 11.7083 12.85 12 12 12Z"
              fill="currentColor"/>
    </g>
    <defs>
        <clipPath id="clip0_4993_1326">
            <rect width="24" height="24" fill="white"/>
        </clipPath>
    </defs>
</svg>