<svg xmlns="http://www.w3.org/2000/svg" width="40" height="40" viewBox="0 0 40 40" fill="currentColor">
    <path d="M3.33325 33.3333V29.4166C3.33325 28.4722 3.56936 27.6041 4.04159 26.8125C4.51381 26.0208 5.22214 25.4166 6.16659 25C8.16658 24.1111 9.99992 23.4722 11.6666 23.0833C13.3333 22.6944 14.9999 22.5 16.6666 22.5C17.4721 22.5 18.3263 22.5486 19.2291 22.6458C20.1319 22.743 21.0555 22.9166 21.9999 23.1666L19.9583 25.2083C19.4027 25.1527 18.8541 25.1041 18.3124 25.0625C17.7708 25.0208 17.2221 25 16.6666 25C15.0555 25 13.5902 25.1458 12.2708 25.4375C10.9513 25.7291 9.24992 26.3333 7.16658 27.25C6.69436 27.4722 6.35409 27.7916 6.14575 28.2083C5.93742 28.625 5.83325 29.0277 5.83325 29.4166V30.8333H19.1249L21.6249 33.3333H3.33325ZM26.0416 34L20.1666 28.125L21.9166 26.375L26.0416 30.5L34.9166 21.625L36.6666 23.375L26.0416 34ZM16.6666 19.9166C14.8333 19.9166 13.3333 19.3333 12.1666 18.1666C10.9999 17 10.4166 15.5 10.4166 13.6666C10.4166 11.8333 10.9999 10.3333 12.1666 9.16663C13.3333 7.99996 14.8333 7.41663 16.6666 7.41663C18.4999 7.41663 19.9999 7.99996 21.1666 9.16663C22.3333 10.3333 22.9166 11.8333 22.9166 13.6666C22.9166 15.5 22.3333 17 21.1666 18.1666C19.9999 19.3333 18.4999 19.9166 16.6666 19.9166ZM16.6666 17.4166C17.7499 17.4166 18.6458 17.0625 19.3541 16.3541C20.0624 15.6458 20.4166 14.75 20.4166 13.6666C20.4166 12.5833 20.0624 11.6875 19.3541 10.9791C18.6458 10.2708 17.7499 9.91663 16.6666 9.91663C15.5833 9.91663 14.6874 10.2708 13.9791 10.9791C13.2708 11.6875 12.9166 12.5833 12.9166 13.6666C12.9166 14.75 13.2708 15.6458 13.9791 16.3541C14.6874 17.0625 15.5833 17.4166 16.6666 17.4166Z"
          fill="currentColor"/>
</svg>