<svg width="21" height="14" viewBox="0 0 21 14" fill="none" xmlns="http://www.w3.org/2000/svg">
    <path d="M5.85317 5.59999C4.28305 5.57552 3.08363 4.30432 3.07301 2.8C3.09895 1.23278 4.37084 0.01099 5.85317 0C7.42468 0.0598499 8.62217 1.27132 8.63335 2.8C8.60244 4.36845 7.33701 5.58938 5.85317 5.59999ZM8.10097 6.18085C10.0771 6.20408 11.0792 7.94987 11.0883 9.69565V14H9.151L9.15102 10.217C9.10384 9.9555 8.92796 9.86682 8.76684 9.89246C8.616 9.91648 8.47806 10.0406 8.47075 10.217V14H3.088V10.217C3.0468 9.96813 2.88959 9.87243 2.73665 9.88209C2.57287 9.89246 2.414 10.0237 2.40774 10.217V14H0.500082V9.69565C0.48873 7.83511 1.65734 6.19464 3.50193 6.18085H8.10097Z"
          fill="#322F2F"/>
    <path d="M17.0099 8.40002C15.9632 8.3837 15.1636 7.53623 15.1565 6.53335C15.1738 5.48854 16.0217 4.67401 17.0099 4.66669C18.0576 4.70659 18.8559 5.51423 18.8634 6.53335C18.8428 7.57899 17.9992 8.39294 17.0099 8.40002ZM18.5085 8.78726C19.8259 8.80274 20.4939 9.9666 20.5 11.1305V14H19.2085L19.2085 11.478C19.1771 11.3037 19.0598 11.2446 18.9524 11.2617C18.8518 11.2777 18.7599 11.3604 18.755 11.478V14H15.1665V11.478C15.139 11.3121 15.0342 11.2483 14.9323 11.2547C14.8231 11.2617 14.7172 11.3491 14.713 11.478V14H13.4412V11.1305C13.4336 9.8901 14.2127 8.79645 15.4425 8.78726H18.5085Z"
          fill="#322F2F"/>
</svg>
