<svg width="24" height="25" fill="currentColor" xmlns="http://www.w3.org/2000/svg">
    <path d="M20 11.499h2c0-5.13-3.873-8.999-9.01-8.999v2c4.062 0 7.01 2.943 7.01 6.999z" fill="currentColor"/>
    <path d="M13 8.5c2.103 0 3 .897 3 3h2c0-3.225-1.775-5-5-5v2zm3.422 5.443a1 1 0 00-1.391.043l-2.393 2.461c-.576-.11-1.734-.471-2.926-1.66-1.192-1.193-1.553-2.354-1.66-2.926l2.459-2.394a1 1 0 00.043-1.391L6.859 4.013a1 1 0 00-1.391-.087l-2.17 1.861a1 1 0 00-.29.649c-.015.25-.301 6.172 4.291 10.766 4.006 4.005 9.024 4.298 10.406 4.298.202 0 .326-.006.359-.008a.992.992 0 00.648-.291l1.86-2.171a1 1 0 00-.086-1.391l-4.064-3.696z"
          fill="currentColor"/>
</svg>