<svg width="30" height="30" viewBox="0 0 30 30" xmlns="http://www.w3.org/2000/svg">
    <path d="M15 .125C6.786.125.125 6.785.125 15S6.785 29.875 15 29.875 29.875 23.215 29.875 15C29.875 6.786 23.215.125 15 .125zm6.375 15.672c0 .146-.12.265-.266.265h-5.047v5.047a.266.266 0 01-.265.266h-1.594a.266.266 0 01-.265-.266v-5.047H8.89a.266.266 0 01-.266-.265v-1.594c0-.146.12-.265.266-.265h5.046V8.89c0-.146.12-.266.266-.266h1.594c.146 0 .265.12.265.266v5.046h5.047c.146 0 .266.12.266.266v1.594z"
          fill="#fff"/>
</svg>
