<svg xmlns="http://www.w3.org/2000/svg" width="40" height="40" viewBox="0 0 40 40" fill="currentColor">
    <path d="M12.0791 17.5C10.582 17.5 9.30558 16.9708 8.25002 15.9125C7.19446 14.8541 6.66669 13.5763 6.66669 12.0791C6.66669 10.5819 7.19587 9.30556 8.25423 8.25001C9.31259 7.19445 10.5904 6.66667 12.0876 6.66667C13.5848 6.66667 14.8611 7.19585 15.9167 8.25421C16.9722 9.31257 17.5 10.5904 17.5 12.0875C17.5 13.5847 16.9708 14.8611 15.9125 15.9167C14.8541 16.9722 13.5763 17.5 12.0791 17.5ZM12.0784 15C12.8873 15 13.5764 14.7169 14.1459 14.1508C14.7153 13.5846 15 12.8971 15 12.0883C15 11.2794 14.7169 10.5903 14.1508 10.0208C13.5846 9.45139 12.8971 9.16667 12.0883 9.16667C11.2794 9.16667 10.5903 9.44976 10.0209 10.0159C9.45141 10.5821 9.16669 11.2696 9.16669 12.0784C9.16669 12.8873 9.44977 13.5764 10.0159 14.1458C10.5821 14.7153 11.2696 15 12.0784 15ZM27.9125 33.3333C26.4153 33.3333 25.1389 32.8042 24.0834 31.7458C23.0278 30.6874 22.5 29.4097 22.5 27.9125C22.5 26.4153 23.0292 25.1389 24.0876 24.0833C25.1459 23.0278 26.4237 22.5 27.9209 22.5C29.4181 22.5 30.6945 23.0292 31.75 24.0875C32.8056 25.1459 33.3334 26.4237 33.3334 27.9209C33.3334 29.4181 32.8042 30.6944 31.7458 31.75C30.6874 32.8056 29.4097 33.3333 27.9125 33.3333ZM27.9118 30.8333C28.7206 30.8333 29.4097 30.5503 29.9792 29.9841C30.5486 29.4179 30.8334 28.7304 30.8334 27.9216C30.8334 27.1128 30.5503 26.4236 29.9841 25.8542C29.4179 25.2847 28.7304 25 27.9216 25C27.1128 25 26.4236 25.2831 25.8542 25.8493C25.2847 26.4154 25 27.1029 25 27.9118C25 28.7206 25.2831 29.4097 25.8493 29.9792C26.4155 30.5486 27.103 30.8333 27.9118 30.8333ZM8.41669 33.3333L6.66669 31.5833L31.5834 6.66667L33.3334 8.41667L8.41669 33.3333Z"/>
</svg>
