<svg width="101" height="45" fill="none" xmlns="http://www.w3.org/2000/svg"><path d="M98.85 32.712a.818.818 0 01-.26-.63.79.79 0 01.26-.62.833.833 0 01.62-.25.89.89 0 01.836.532.816.816 0 01.064.338.853.853 0 01-.26.63.892.892 0 01-.64.25.83.83 0 01-.62-.25zm1.37-.63a.714.714 0 00-.214-.533.721.721 0 00-.536-.207.74.74 0 000 1.48.72.72 0 00.75-.79v.05zm-1.06.49v-1h.34a.3.3 0 01.32.31.32.32 0 01-.17.3l.24.4h-.18l-.23-.37h-.18v.37l-.14-.01zm.15-.51h.2a.168.168 0 00.151-.114.17.17 0 00.009-.066.16.16 0 00-.17-.17h-.2l.01.35zm-39.05-19.28l.61-.12v-.22c-.19.11-.37.27-.61.34zM50.22 2.272v.49l1.18-.05v-.36a1.69 1.69 0 00-1.77-1.64l-3 .13a1.76 1.76 0 00-1.67 1.78v.87l1.18-.22v-.83a.47.47 0 01.62-.44 3.73 3.73 0 002.82-.12.45.45 0 01.64.39zm8.83 14.63a3.21 3.21 0 00-.68-.07c-.13 0-.25.08-.38.1a.412.412 0 01-.37-.09 2.44 2.44 0 01-1 .16 1.552 1.552 0 00-.48 0c-.11 0-.21.1-.32.13a.3.3 0 01-.29-.06 2.06 2.06 0 01-1.16.61 8.32 8.32 0 01-1.32.05c-.233-.01-.467.02-.69.09-.24.09-.46.27-.71.35a2.14 2.14 0 01-1.06-.09 2.182 2.182 0 00-.76-.07c-.14.015-.28.015-.42 0a.43.43 0 01-.34-.22 1.68 1.68 0 01-1.07.35 3.384 3.384 0 01-.71 0 5.996 5.996 0 00-1.09-.2 8 8 0 01-.81.13c-.14 0-.27-.05-.41-.07-.4-.06-.81 0-1.21 0a4.138 4.138 0 00-1.11-.1.17.17 0 01-.06.17 1 1 0 01-.16.06c-.13.05-.24.18-.38.23-.36.12-.7-.38-1.06-.31a1.86 1.86 0 01-.95.43 3.53 3.53 0 00-.46 0c-.16 0-.3.1-.46.11a3.933 3.933 0 01-.59-.06c-.32 0-.62.14-.93.1h-.16l.06.44a3.07 3.07 0 003.1 3h17c2.7 0 2.7-2.09 2.7-2.09s.1-1.32.25-3.16h-.23c-.46-.11-.83.1-1.28.08z" fill="#F2F2F2"/><path d="M36.57 12.322c.21 1.52.63 4.16.81 5.52.39 0 .68-.23 1.07-.24.24 0 .45.14.81.06a2.13 2.13 0 01.61.08c.38 0 .71-.25 1.09-.34.07 0 .37.11.45.14.56.17.77-.15 1.23-.18a8.16 8.16 0 011.43.1c.276.025.554.025.83 0 .2 0 .4-.08.6-.1.163-.01.327-.01.49 0h1.38a5.516 5.516 0 011.52.06c-.13 0 .14-.16.14-.16.42 0 .85.15 1.27.14.197.01.394.01.59 0a8.752 8.752 0 001.19-.32 9.82 9.82 0 013.4-.39c.185-.1.39-.158.6-.17h.42c.14 0 .39-.1.59-.14a.67.67 0 01.55.1.85.85 0 00.5 0c.51-.09 1-.17 1.55-.23.153-.015.307-.015.46 0h.43c.07-.9.08-1 .17-2.06l-24.18-1.87zm24.45-1.34c0-.22 0-.45.07-.67-.901.353-1.752.824-2.53 1.4.81-.3 1.63-.53 2.46-.73zm-5.46.2a13.21 13.21 0 015.71-2.69c0-.49.11-.95.16-1.36a9.57 9.57 0 00-5.87 4.05z" fill="#F2F2F2"/><path d="M56.94 11.202a13.92 13.92 0 014.22-1.59l.09-.89a8 8 0 00-4.31 2.48zm-4.25-.28c2.63-1.89 5.59-3.58 8.76-4a5.911 5.911 0 000-.92 12.42 12.42 0 00-8.76 4.92zm-16.42-.84c.02-.223.02-.447 0-.67a7.903 7.903 0 00-.07-.85 3 3 0 00-.06-.4 9.51 9.51 0 01.58 4.48 8.8 8.8 0 00.27-3.68 3.833 3.833 0 00-.09-.44c.364.818.64 1.673.82 2.55.244.786.325 1.612.24 2.43a6.12 6.12 0 00-.06-4.32 16 16 0 011.34 4.27 3.34 3.34 0 010 1.22 6.68 6.68 0 00-.16-3.43 7.006 7.006 0 00-.32-1.08 10 10 0 011.14 4.8 6.47 6.47 0 00-.1-3.41 10.212 10.212 0 00-1.55-3.07c-.44-.63-1.63-1.83-1.66-1.9a2.8 2.8 0 00-.57 2.33l.18 1.26v-.13l.07.04zm1.37-4.2a8.33 8.33 0 004.09 2.46 5.77 5.77 0 01-2.11-1.79c-.28-.35-.55-.72-.83-1.09l-.81.28-.34.14zm5.8.04a7.14 7.14 0 00-1.67-1.33l-.59.16a5.06 5.06 0 012.26 1.17zm-2.78.47c.93.408 1.801.94 2.59 1.58a23.608 23.608 0 01-1.87-2.12 5.461 5.461 0 00-1-.88c-.48.13-.91.27-1.29.39.503.373 1.027.717 1.57 1.03zm-.27 2.58a3.73 3.73 0 01-1.71-1.56l-1.08-1.51a3.08 3.08 0 00-.73.48 6.59 6.59 0 003.52 2.59z" fill="#F2F2F2"/><path d="M35.75 8.962a3.06 3.06 0 012.13-3.58c.35-.12 1-.34 1.89-.61a4.83 4.83 0 10-3.91 7.67h.39c-.27-1.94-.49-3.45-.5-3.48zM.63 28.472a.23.23 0 01.23-.23h3.26a2.58 2.58 0 012.62 2.54 2.63 2.63 0 01-1.78 2.41l1.65 3a.22.22 0 01-.21.34h-.9a.26.26 0 01-.25-.15l-1.57-3.1H1.87v3a.24.24 0 01-.23.22H.86a.23.23 0 01-.23-.22v-7.81zm3.4 3.81a1.48 1.48 0 001.47-1.47 1.46 1.46 0 00-1.46-1.42H1.89v2.89h2.14zm6.34-1.33a2.87 2.87 0 11-2.87 2.85 2.86 2.86 0 012.87-2.85zm0 4.6a1.74 1.74 0 10-1.65-1.75 1.66 1.66 0 001.65 1.75zm3.46-4.13a.24.24 0 01.24-.35h.79a.27.27 0 01.24.15l1.28 3.76 1.56-3.76c.05-.13.15-.15.29-.15h.74a.23.23 0 01.24.35l-3.35 7.79a.29.29 0 01-.23.17h-.77a.25.25 0 01-.24-.37l1.12-2.65-1.91-4.94zm8.22 1.67c.375.006.748.06 1.11.16 0-.86-.19-1.26-.88-1.26a5.894 5.894 0 00-1.55.26.248.248 0 01-.278-.118.251.251 0 01-.032-.102l-.11-.45a.239.239 0 01.18-.32 5.843 5.843 0 011.91-.31c1.77 0 1.94 1.06 1.94 2.42v2.92a.27.27 0 01-.26.26h-.4c-.11 0-.17-.05-.23-.19l-.13-.37a2.388 2.388 0 01-1.7.69 1.699 1.699 0 01-1.79-1.83c0-1 .79-1.76 2.22-1.76zm-.18 2.62a1.7 1.7 0 001.28-.67v-.91a2.473 2.473 0 00-1-.19c-.64 0-1.14.33-1.14.9a.812.812 0 00.86.87zm4.14-7.21a.27.27 0 01.26-.26h.67a.29.29 0 01.27.26v7.79a.28.28 0 01-.27.26h-.67a.26.26 0 01-.26-.26v-7.79zm6.04-.03a.23.23 0 01.23-.23h3.22a2.58 2.58 0 012.62 2.54 2.63 2.63 0 01-1.78 2.41l1.65 3a.22.22 0 01-.21.34h-.9a.26.26 0 01-.25-.15l-1.57-3.1h-1.77v3a.24.24 0 01-.23.22h-.78a.23.23 0 01-.23-.22v-7.81zm3.45 3.81a1.48 1.48 0 001.46-1.47 1.46 1.46 0 00-1.46-1.42h-2.19v2.89h2.19zm6.24-1.33a2.46 2.46 0 012.53 2.52v.38a.25.25 0 01-.25.23h-3.86a1.62 1.62 0 001.66 1.5c.492.002.97-.16 1.36-.46.12-.09.22-.12.32 0l.32.5c.1.12.15.22 0 .37a3.23 3.23 0 01-2 .67 2.87 2.87 0 010-5.73l-.08.02zm1.34 2.25a1.3 1.3 0 00-1.37-1.24 1.41 1.41 0 00-1.49 1.24h2.86zm2.22 2.92a.209.209 0 01-.12-.2.21.21 0 01.02-.08l.25-.51a.24.24 0 01.36-.07 2.6 2.6 0 001.38.4c.47 0 .74-.22.74-.53 0-.31-.42-.61-1.19-1s-1.5-.83-1.5-1.74c0-.68.49-1.49 1.83-1.49a3.09 3.09 0 011.62.4.31.31 0 01.12.41l-.19.38a.26.26 0 01-.36.1 3 3 0 00-1.19-.27c-.48 0-.7.24-.7.49s.39.57.94.8c1 .43 1.79.8 1.79 1.82 0 .85-.74 1.6-2 1.6a3.19 3.19 0 01-1.8-.51zm7.5-5.17a2.46 2.46 0 012.53 2.52c.01.127.01.254 0 .38a.25.25 0 01-.25.23h-3.85a1.61 1.61 0 001.65 1.5c.492.002.97-.16 1.36-.46.12-.09.22-.12.32 0l.32.5c.1.12.15.22 0 .37a3.23 3.23 0 01-2 .67 2.87 2.87 0 010-5.73l-.08.02zm1.34 2.25a1.3 1.3 0 00-1.37-1.24 1.4 1.4 0 00-1.48 1.24h2.85zm2.45-1.87a.27.27 0 01.26-.26h.29a.25.25 0 01.24.19l.16.5a2.081 2.081 0 011.68-.81c.52 0 1.18.14 1 .51l-.28.59a.242.242 0 01-.241.158.24.24 0 01-.099-.028 1.572 1.572 0 00-.5-.1 1.589 1.589 0 00-1.31.73v3.48c0 .24-.16.26-.39.26h-.55a.26.26 0 01-.26-.26v-4.96zm4.03.05c-.1-.17 0-.31.2-.31h.74a.25.25 0 01.24.15l1.47 3.36 1.55-3.36c.07-.15.22-.15.37-.15h.54c.21 0 .3.14.21.31l-2.4 5.16a.26.26 0 01-.23.14h-.07a.26.26 0 01-.24-.14l-2.38-5.16zm8.1 1.71c.375.006.748.06 1.11.16 0-.86-.19-1.26-.88-1.26a5.889 5.889 0 00-1.55.26.25.25 0 01-.31-.22l-.11-.45a.24.24 0 01.18-.32 5.82 5.82 0 011.9-.31c1.78 0 2 1.06 2 2.42v2.92a.27.27 0 01-.26.26h-.4c-.11 0-.17-.05-.23-.19l-.13-.37a2.4 2.4 0 01-1.71.69 1.7 1.7 0 01-1.83-1.83c0-1 .79-1.76 2.22-1.76zm-.22 2.62a1.7 1.7 0 001.28-.67v-.91a2.47 2.47 0 00-1-.19c-.64 0-1.14.33-1.14.9a.811.811 0 00.86.87zm4.51-3.63h-.63a.27.27 0 01-.27-.26v-.49a.25.25 0 01.27-.26h.63v-1.53a.26.26 0 01.27-.26h.68a.25.25 0 01.25.26v1.53h1.47a.25.25 0 01.26.26v.49a.27.27 0 01-.26.26h-1.47v2.92c0 .46.18.55.45.55.31-.01.614-.1.88-.26a.221.221 0 01.28.033.22.22 0 01.05.087l.21.56c.06.14 0 .24-.13.32a3.36 3.36 0 01-1.53.39c-1.11 0-1.41-.66-1.41-1.64v-2.96zm4-2.98a.8.8 0 011.37-.576.81.81 0 01.24.576.8.8 0 01-.82.79.79.79 0 01-.79-.79zm.19 2.23a.27.27 0 01.26-.26h.68a.28.28 0 01.26.26v5a.27.27 0 01-.26.26h-.64a.26.26 0 01-.26-.26l-.04-5zm5.36-.38a2.87 2.87 0 11-2.83 2.85 2.86 2.86 0 012.83-2.85zm0 4.6a1.74 1.74 0 10-1.65-1.75 1.66 1.66 0 001.65 1.75zm4.15-4.22a.27.27 0 01.27-.26h.29a.2.2 0 01.22.16l.17.48a2.528 2.528 0 011.84-.76c1.69 0 2.15 1.16 2.15 2.59v2.75a.27.27 0 01-.27.26h-.67a.26.26 0 01-.26-.26v-2.8c0-.89-.37-1.41-1.09-1.41a1.699 1.699 0 00-1.47.79v3.42c0 .18-.09.26-.32.26h-.61a.27.27 0 01-.27-.26l.02-4.96zm6.35 4.79a.22.22 0 01-.1-.28l.26-.51a.24.24 0 01.36-.07c.413.262.891.4 1.38.4.46 0 .73-.22.73-.53 0-.31-.42-.61-1.19-1s-1.5-.83-1.5-1.74c0-.68.49-1.49 1.84-1.49a3.15 3.15 0 011.62.4.33.33 0 01.12.41l-.2.38a.258.258 0 01-.262.133.26.26 0 01-.098-.033 3.001 3.001 0 00-1.18-.27c-.48 0-.71.24-.71.49s.39.57 1 .8c1 .43 1.78.8 1.78 1.82 0 .85-.74 1.6-2 1.6a3.189 3.189 0 01-1.85-.51zm-91.11 6.59a1.2 1.2 0 01.36-.89 1.22 1.22 0 01.88-.35 1.24 1.24 0 01.88.35 1.2 1.2 0 01.36.89 1.18 1.18 0 01-.36.88 1.21 1.21 0 01-.88.36 1.19 1.19 0 01-.88-.36 1.18 1.18 0 01-.36-.88zm.26 0a1 1 0 00.28.71 1 1 0 001.4 0 1 1 0 00.27-.71 1 1 0 00-.27-.71 1 1 0 00-1.68.71zm3.11 1.15v-2.39h.76a.73.73 0 01.52.21.75.75 0 010 1 .77.77 0 01-.52.2h-.5v.94l-.26.04zm.26-1.15h.49a.45.45 0 00.33-.14.44.44 0 00.14-.34.42.42 0 00-.14-.34.422.422 0 00-.33-.14h-.49v.96zm2.11 1.15v-2.39h1.34v.24H7.95v.76h1v.24h-1v.89h1.11v.25l-1.37.01zm2.28 0v-2.39h.82a.669.669 0 01.5.21.659.659 0 01.21.5.7.7 0 01-.45.68l.57 1h-.3l-.54-.95h-.54v.95h-.27zm.27-1.15h.52a.461.461 0 00.34-.14.478.478 0 00.14-.35.45.45 0 00-.46-.46h-.54v.95zm1.95 1.15l1.08-2.47 1.08 2.47h-.29l-.26-.59h-1.07l-.26.59h-.28zm.65-.84h.86l-.43-1-.43 1zm2.5.84v-2.15h-.65v-.25h1.57v.25h-.65v2.14l-.27.01zm1.75 0v-2.39h1.34v.24h-1.08v.76h1v.24h-1v.89h1.15v.25l-1.41.01zm2.28 0v-2.39h.77a1.22 1.22 0 01.9.33 1.181 1.181 0 01.33.87 1.15 1.15 0 01-.33.86 1.221 1.221 0 01-.9.33h-.77zm.27-.25h.48a.95.95 0 100-1.89h-.48v1.89zm4.34.25v-2.39h.73a.65.65 0 01.46.18.57.57 0 01.18.43.49.49 0 01-.3.48.57.57 0 01.48.59.68.68 0 01-.21.51.73.73 0 01-.52.2h-.82zm.27-1.39h.45a.38.38 0 100-.75h-.45v.75zm0 1.14h.53a.45.45 0 00.48-.46.411.411 0 00-.14-.32.49.49 0 00-.34-.12h-.53v.9zm2.62.25v-1l-.84-1.41h.29l.68 1.15.68-1.15h.28l-.83 1.41v1h-.26zm5.2-2.15v.31a1.001 1.001 0 00-.75-.32.93.93 0 00-.7.29 1 1 0 00-.28.71 1 1 0 00.28.71.93.93 0 00.7.28 1 1 0 00.75-.32v.31a1.12 1.12 0 01-.75.26 1.23 1.23 0 01-.89-.36 1.18 1.18 0 01-.36-.88 1.2 1.2 0 01.36-.89c.24-.23.559-.355.89-.35.272-.012.54.077.75.25zm.7 2.15l1.08-2.47 1.08 2.47h-.29l-.26-.59h-1.07l-.26.59h-.28zm.65-.84h.86l-.43-1-.43 1zm2.36.84v-2.39h.81a.69.69 0 01.51.21.65.65 0 01.2.5.7.7 0 01-.45.68l.57 1h-.3l-.54-.95h-.54v.95h-.26zm.26-1.15h.52a.46.46 0 00.34-.14.48.48 0 00.14-.35.45.45 0 00-.46-.46h-.54v.95zm2.23 1.15v-2.39h.23v2.39h-.23zm1.32 0v-2.39h.73a.612.612 0 01.45.18.54.54 0 01.19.43.49.49 0 01-.3.48.56.56 0 01.47.59.67.67 0 01-.2.51.73.73 0 01-.52.2h-.82zm.27-1.39h.44a.38.38 0 00.278-.645.37.37 0 00-.268-.105h-.45v.75zm0 1.14h.53a.45.45 0 00.34-.78.49.49 0 00-.34-.12h-.53v.9zm2.17.25v-2.39h.72a.62.62 0 01.46.18.571.571 0 01.18.43.49.49 0 01-.3.48.57.57 0 01.48.59.678.678 0 01-.21.51.73.73 0 01-.52.2h-.81zm.26-1.39h.45a.38.38 0 100-.75h-.45v.75zm0 1.14h.54a.45.45 0 00.47-.46.44.44 0 00-.13-.32.51.51 0 00-.35-.12h-.53v.9zm2.21.25v-2.39h1.35v.24h-1.12v.76h1v.24h-1v.89h1.1v.25l-1.33.01zm2 0l1.07-2.47 1.09 2.47h-.3l-.25-.59h-1.04l-.25.59h-.32zm.64-.84H48l-.43-1-.43 1zm2.36.84v-2.47l1.67 1.89v-1.81h.33v2.47l-1.67-1.89v1.81h-.33zm4.85 0v-2.39h.27v2.39h-.27zm1.15-.57a.92.92 0 00.73.37c.33 0 .52-.19.52-.38a.409.409 0 00-.12-.31 2 2 0 00-.41-.27l-.25-.13-.19-.14a.531.531 0 01-.18-.42c0-.34.28-.58.72-.58a.71.71 0 01.48.16v.3a.71.71 0 00-.49-.22c-.27 0-.44.14-.44.34a.3.3 0 00.1.24c.112.089.232.166.36.23.18.072.344.18.48.32a.589.589 0 01.2.48.581.581 0 01-.21.44.81.81 0 01-.55.19 1.05 1.05 0 01-.75-.29v-.33zm13.06 0a.92.92 0 00.73.37c.33 0 .51-.19.51-.38a.41.41 0 00-.11-.31 1.897 1.897 0 00-.42-.27l-.24-.13-.19-.14a.531.531 0 01-.18-.42c0-.34.28-.58.72-.58a.71.71 0 01.48.16v.3a.71.71 0 00-.49-.22c-.27 0-.44.14-.44.34a.299.299 0 00.1.24c.112.089.232.166.36.23.18.072.344.18.48.32a.589.589 0 01.2.48.581.581 0 01-.21.44.81.81 0 01-.55.19 1.05 1.05 0 01-.75-.29v-.33zm-10.64.57v-2.39h.27v2.14h1v.25h-1.27zm1.85 0l1.07-2.47 1.09 2.47h-.29l-.26-.59H60.3l-.25.59h-.28zm.64-.84h.86l-.43-1-.43 1zm2.36.84v-2.47l1.67 1.89v-1.81h.27v2.47l-1.67-1.89v1.81h-.27zm2.98 0v-2.39h.75a1.191 1.191 0 01.89.33 1.28 1.28 0 010 1.73 1.22 1.22 0 01-.9.33h-.74zm.27-.25h.48a.95.95 0 000-1.9h-.47l-.01 1.9zm7.08.25v-2.15h-.6v-.25h1.57v.25h-.65v2.14l-.32.01zm1.75 0v-2.39h.81a.69.69 0 01.51.21.66.66 0 01.21.5.71.71 0 01-.46.68l.58 1h-.31l-.54-.95h-.54v.95h-.26zm.26-1.15h.52a.46.46 0 00.34-.14.479.479 0 00.14-.35.45.45 0 00-.46-.46h-.54v.95zm1.96 1.15l1.07-2.47 1.08 2.47h-.29l-.25-.59H77.6l-.25.59h-.28zm.64-.84h.86l-.43-1-.43 1zm2.79.92l-1-2.47h.29l.74 1.8.74-1.8h.29l-1.06 2.47zm1.91-.08v-2.39h1.35v.24h-1.08v.76h1v.24h-1v.89h1.1v.25l-1.37.01zm2.29 0v-2.39h.27v2.14h1v.25H84.7zm1.98-.38h.33l-.43.82h-.21l.31-.82zm3.01.38v-2.39h.27v2.14h1v.25h-1.27zm2.11 0v-2.39h.27v2.14h1v.25H91.8zm3.8-2.15v.31a1 1 0 00-.74-.32.93.93 0 00-.7.29 1 1 0 00-.28.71 1 1 0 00.28.71.93.93 0 00.7.28 1.002 1.002 0 00.74-.32v.31a1.08 1.08 0 01-.74.26 1.232 1.232 0 01-.89-.36 1.18 1.18 0 01-.36-.88 1.2 1.2 0 01.36-.89c.24-.23.559-.355.89-.35.27-.013.534.076.74.25z" fill="#F2F2F2"/></svg>