<svg width="87" height="44" viewBox="0 0 87 44" fill="none" xmlns="http://www.w3.org/2000/svg">
<g clip-path="url(#clip0_5559_4217)">
<path d="M59.6348 27.8735C59.6348 27.2841 60.0873 26.8579 60.7014 26.8579C61.3154 26.8579 61.768 27.2841 61.768 27.8735C61.768 28.4385 61.3154 28.8769 60.7014 28.8769C60.0849 28.8769 59.6348 28.4385 59.6348 27.8735ZM61.5698 27.8613C61.5698 27.3645 61.198 27.0308 60.6989 27.0308C60.1999 27.0308 59.8305 27.3645 59.8305 27.8613C59.8305 28.346 60.2023 28.704 60.7112 28.704C61.198 28.704 61.5698 28.346 61.5698 27.8613ZM60.3051 27.7006C60.3051 27.5277 60.2928 27.4473 60.2928 27.3888C60.2928 27.3206 60.2586 27.3085 60.1656 27.3085C60.1534 27.3085 60.1314 27.2963 60.1314 27.2865C60.1314 27.2622 60.1534 27.2524 60.1901 27.2524H60.2488C60.2733 27.2524 60.3638 27.2646 60.4005 27.2646C60.5057 27.2646 60.5521 27.2524 60.6451 27.2524C60.8433 27.2524 61.1319 27.2865 61.1319 27.5642C61.1319 27.6786 61.0977 27.7712 60.924 27.91L61.1197 28.1511C61.2714 28.3362 61.3178 28.3484 61.3399 28.3484C61.3619 28.3484 61.3741 28.3606 61.3741 28.3703C61.3741 28.3947 61.3619 28.4044 61.2934 28.4044C61.1417 28.4044 61.061 28.4166 60.8873 28.1852L60.7258 27.966H60.5179V28.0708C60.5179 28.3021 60.5301 28.3143 60.5399 28.324C60.5644 28.3362 60.6206 28.346 60.6549 28.346C60.6769 28.346 60.6891 28.346 60.6891 28.3679C60.6891 28.3922 60.6671 28.402 60.6427 28.402H60.5962C60.5742 28.402 60.469 28.3898 60.4102 28.3898C60.376 28.3898 60.2586 28.402 60.2366 28.402H60.1778C60.1534 28.402 60.1314 28.402 60.1314 28.3801C60.1314 28.3557 60.1534 28.346 60.1778 28.346C60.283 28.346 60.283 28.346 60.2928 28.2778C60.2928 28.2193 60.3051 28.1389 60.3051 27.9539V27.7006ZM60.5154 27.8394C60.5497 27.8613 60.6206 27.8735 60.6891 27.8735C60.7234 27.8735 60.7699 27.8613 60.8041 27.8394C60.8628 27.8053 60.9093 27.7468 60.9093 27.6324C60.9093 27.4716 60.8041 27.3547 60.6206 27.3547C60.6084 27.3547 60.5399 27.3547 60.5154 27.3767V27.8394Z" fill="white"/>
<path fill-rule="evenodd" clip-rule="evenodd" d="M40.5484 18.8503C40.5484 18.8503 45.5242 10.1753 55.1284 7.28441C52.5867 3.04919 47.9387 0.211914 42.6254 0.211914C39.4305 0.211914 36.4778 1.23967 34.078 2.97857C34.2614 2.91524 34.4473 2.85679 34.6357 2.79834C37.0062 2.0872 39.7412 1.82904 42.8333 2.39893C42.1459 2.53532 38.8898 2.40867 35.1445 3.74816C33.87 4.20602 32.5368 4.83193 31.2305 5.69651C29.2538 8.17091 28.0723 11.298 28.0723 14.7052C28.0723 15.2653 28.1065 15.8182 28.1701 16.3613C32.3093 15.9497 36.7665 16.5853 40.5484 18.8503Z" fill="white"/>
<path fill-rule="evenodd" clip-rule="evenodd" d="M47.1438 24.6513C43.2395 24.8364 40.1767 26.2271 40.1767 26.2271C42.0212 25.1263 44.4577 24.3226 47.0606 24.0547C49.1082 23.8452 51.2585 23.967 53.3085 24.5369C55.7083 21.9529 57.1761 18.4994 57.1761 14.705C57.1761 14.33 57.1565 13.9622 57.1296 13.5969C56.6208 13.5677 56.1242 13.5677 55.6423 13.592C52.3838 13.7455 49.8298 14.9072 49.8298 14.9072C51.3686 13.989 53.4014 13.3168 55.5713 13.0952C56.0679 13.0441 56.5694 13.0173 57.0758 13.0124C56.8899 11.4221 56.4471 9.90967 55.7841 8.5166C53.58 9.30568 51.2487 10.4869 49.0372 12.2647C47.2147 13.7333 45.4729 15.6061 43.9587 18.005C43.8461 18.3411 43.7043 19.3543 43.7043 19.3543H44.5825L45.2014 18.9743L45.2136 19.0742L45.2308 19.2276L45.0155 19.3762L42.0628 21.4366L40.9889 21.4926L40.4238 21.6631L40.2011 21.6411L39.6018 21.5778L38.726 21.8043L37.9628 22.1161L38.4985 21.6071L38.6404 21.2978L38.6967 20.7595L38.9095 20.5233L39.3474 20.0313C37.8551 19.0109 36.2895 18.3119 34.7165 17.8565C32.5197 17.2184 30.3132 17.0504 28.2754 17.138C29.4398 23.9792 35.4162 29.1886 42.6205 29.1886C46.449 29.1886 49.9326 27.7151 52.5306 25.3065C52.4156 25.2699 52.2982 25.2334 52.1832 25.1993C50.4659 24.7001 48.7363 24.5758 47.1438 24.6513Z" fill="white"/>
<path fill-rule="evenodd" clip-rule="evenodd" d="M28.0672 16.3662C24.6889 16.7145 21.5282 17.7568 19.1309 19.1864C19.1309 19.1864 23.1061 17.3818 28.1749 17.1407C28.2091 17.1382 28.2434 17.1382 28.2776 17.1358C28.2336 16.8776 28.1969 16.6195 28.1651 16.3564C28.1333 16.3638 28.1015 16.3638 28.0672 16.3662Z" fill="white"/>
<path fill-rule="evenodd" clip-rule="evenodd" d="M55.7938 8.51206C60.6522 6.77316 64.8819 6.93633 65.7723 6.76098C61.7604 6.02305 58.2083 6.35427 55.1333 7.28217C55.1309 7.28217 55.1284 7.28217 55.1284 7.28217C55.3657 7.68158 55.5883 8.09316 55.7865 8.51206C55.7889 8.51449 55.7914 8.51449 55.7938 8.51206Z" fill="white"/>
<path fill-rule="evenodd" clip-rule="evenodd" d="M59.8498 14.0478C60.8601 14.3425 61.8656 14.7906 62.8245 15.4457L62.5432 15.7623L62.4062 15.9158L62.3695 16.2616L62.279 16.4613L61.9341 16.7876L62.4233 16.5904L62.9884 16.4443L63.3725 16.4857L63.5144 16.5003L63.8764 16.3907L64.5663 16.3566L66.4646 15.0317L66.6016 14.9367L66.5918 14.8369L66.5845 14.7735L66.1857 15.0171H65.6206C65.6206 15.0171 65.7112 14.3644 65.7845 14.1476C66.7582 12.606 67.8761 11.4029 69.0479 10.458C70.4692 9.3133 71.9713 8.55588 73.3901 8.04688C76.5116 6.92901 79.2319 7.03374 79.8019 6.92171C77.2235 6.44923 74.9411 6.66111 72.9645 7.2578C66.7924 9.1136 63.5927 14.6907 63.5927 14.6907C61.5965 13.4949 59.3043 13.0054 57.0757 13.0152C57.0977 13.21 57.1148 13.4024 57.1319 13.5997C58.02 13.6435 58.9349 13.7823 59.8498 14.0478Z" fill="white"/>
<path fill-rule="evenodd" clip-rule="evenodd" d="M67.9102 17.0552C60.5101 19.2812 56.6743 25.9665 56.6743 25.9665C55.6102 25.3284 54.4751 24.8608 53.3082 24.5369C53.0587 24.8048 52.7994 25.0605 52.5327 25.3089C53.6262 25.6596 54.7124 26.1662 55.7521 26.8773L55.4145 27.2548L55.2506 27.4375L55.2065 27.8515L55.0964 28.0877L54.683 28.4798L55.2701 28.2412L55.9453 28.0658L56.4077 28.1121L56.5789 28.1316L57.0144 28L57.8437 27.9586L60.1187 26.3707L60.2851 26.2538L60.2728 26.1369L60.2631 26.059L59.786 26.3513H59.1084C59.1084 26.3513 59.216 25.5695 59.3041 25.3113C60.471 23.4628 61.8116 22.0186 63.2158 20.8886C64.9184 19.5174 66.7189 18.6066 68.4191 17.9977C72.1619 16.6607 75.4204 16.7849 76.1054 16.6485C73.0157 16.0859 70.2807 16.3416 67.9102 17.0552Z" fill="white"/>
<path fill-rule="evenodd" clip-rule="evenodd" d="M34.0755 2.97852C27.0423 5.36037 23.3973 11.712 23.3973 11.712C20.4617 9.9536 16.9929 9.46894 13.7833 9.80016C11.1804 10.0681 8.74637 10.8718 6.90186 11.9726C6.90186 11.9726 9.96463 10.5819 13.8689 10.3968C15.4615 10.3213 17.191 10.448 18.9108 10.9473C20.1217 11.3004 21.3277 11.8386 22.4775 12.6228L22.1399 13.0003L21.976 13.183L21.932 13.597L21.8219 13.8357L21.4085 14.2278L21.9956 13.9891L22.6708 13.8162L23.1331 13.8649L23.3044 13.8819L23.7398 13.748L24.5691 13.7066L26.8442 12.1187L27.0105 12.0042L26.9983 11.8849L26.9885 11.8094L26.5115 12.1016H25.8338C25.8338 12.1016 25.9439 11.3199 26.0295 11.0617C27.1964 9.21322 28.537 7.76901 29.9412 6.63897C30.3669 6.29558 30.7974 5.98384 31.2304 5.69646C32.0499 4.66627 33.0064 3.75055 34.0755 2.97852Z" fill="white"/>
<path d="M1.58617 38.1022C1.58617 36.4729 1.58617 36.1734 1.56415 35.83C1.54213 35.4647 1.45651 35.2942 1.1018 35.2187C1.01618 35.1968 0.832703 35.187 0.681032 35.187C0.563609 35.187 0.497559 35.1651 0.497559 35.0896C0.497559 35.0141 0.573394 34.9922 0.734851 34.9922C1.30484 34.9922 1.98247 35.0238 2.20998 35.0238C2.57692 35.0238 3.39399 34.9922 3.72669 34.9922C4.40431 34.9922 5.12598 35.0555 5.70575 35.4525C6.00665 35.6571 6.4372 36.2026 6.4372 36.921C6.4372 37.715 6.1045 38.4432 5.01589 39.3199C5.97484 40.5206 6.71608 41.4729 7.35212 42.1377C7.95391 42.7588 8.39669 42.8343 8.55815 42.8659C8.67557 42.8879 8.77342 42.8976 8.85904 42.8976C8.94466 42.8976 8.9887 42.9293 8.9887 42.9828C8.9887 43.0681 8.91286 43.09 8.78321 43.09H7.76065C7.15886 43.09 6.88976 43.0364 6.60844 42.8854C6.14609 42.6394 5.73755 42.1353 5.13332 41.3097C4.70276 40.7203 4.20861 39.9921 4.06917 39.8314C4.01535 39.7681 3.95175 39.7559 3.87591 39.7559L2.93898 39.734C2.88516 39.734 2.85335 39.7559 2.85335 39.8192V39.9702C2.85335 40.9663 2.85335 41.8138 2.90717 42.262C2.93898 42.5737 3.00503 42.8075 3.32794 42.8513C3.4894 42.8732 3.72669 42.8952 3.85634 42.8952C3.94196 42.8952 3.986 42.9268 3.986 42.9804C3.986 43.0559 3.91016 43.0876 3.77072 43.0876C3.14691 43.0876 2.34941 43.0559 2.18796 43.0559C1.98247 43.0559 1.30484 43.0876 0.87429 43.0876C0.734851 43.0876 0.659015 43.0559 0.659015 42.9804C0.659015 42.9268 0.703049 42.8952 0.830257 42.8952C0.991713 42.8952 1.12137 42.8732 1.21677 42.8513C1.43205 42.8075 1.48587 42.5737 1.5299 42.262C1.58372 41.8114 1.58372 40.9663 1.58372 39.9799V38.1022H1.58617ZM2.8558 38.9498C2.8558 39.0667 2.87782 39.1105 2.95365 39.1422C3.17871 39.2177 3.50163 39.2493 3.77072 39.2493C4.20127 39.2493 4.34071 39.2055 4.53397 39.0667C4.85688 38.8304 5.17001 38.3385 5.17001 37.4593C5.17001 35.9371 4.15724 35.4988 3.52364 35.4988C3.25455 35.4988 3.06129 35.5085 2.95365 35.5426C2.87782 35.5645 2.8558 35.6059 2.8558 35.6936V38.9498Z" fill="white"/>
<path d="M8.41113 39.6465C8.41113 38.0927 9.50953 36.0786 12.3815 36.0786C14.7715 36.0786 16.2564 37.3962 16.2564 39.4858C16.2564 41.5754 14.7275 43.2144 12.2861 43.2144C9.5291 43.212 8.41113 41.2636 8.41113 39.6465ZM14.8449 39.817C14.8449 37.8029 13.6291 36.5608 12.1002 36.5608C11.0458 36.5608 9.80798 37.1185 9.80798 39.3689C9.80798 41.2442 10.8844 42.7225 12.6702 42.7225C13.338 42.72 14.8449 42.4107 14.8449 39.817Z" fill="white"/>
<path d="M19.366 40.7277C19.366 40.2357 19.2804 40.0409 19.1507 39.773C19.0871 39.6342 17.7955 37.6298 17.4603 37.1476C17.223 36.8164 17.0298 36.602 16.8463 36.5046C16.7289 36.4413 16.5674 36.3877 16.4475 36.3877C16.3717 36.3877 16.3081 36.3561 16.3081 36.2903C16.3081 36.227 16.3717 36.2051 16.4916 36.2051C16.653 36.2051 17.3625 36.227 17.6756 36.227C17.8811 36.227 18.3214 36.2051 18.752 36.2051C18.8376 36.2051 18.8914 36.227 18.8914 36.2903C18.8914 36.3658 18.8278 36.3658 18.6761 36.4072C18.6003 36.4291 18.5465 36.4705 18.5465 36.546C18.5465 36.6215 18.5905 36.7287 18.6639 36.8578C18.8351 37.1354 20.073 39.2688 20.2344 39.5246C20.3519 39.3102 21.5041 37.3595 21.6435 37.0818C21.7414 36.8773 21.7829 36.7165 21.7829 36.5996C21.7829 36.5144 21.7389 36.4291 21.5775 36.395C21.4918 36.3731 21.4062 36.3634 21.4062 36.2879C21.4062 36.2246 21.46 36.2026 21.5677 36.2026C21.8808 36.2026 22.2135 36.2246 22.4924 36.2246C22.6979 36.2246 23.3217 36.2026 23.5027 36.2026C23.6103 36.2026 23.6739 36.2246 23.6739 36.2781C23.6739 36.3415 23.5981 36.3853 23.4905 36.3853C23.3926 36.3853 23.2214 36.4291 23.0819 36.4925C22.8764 36.5899 22.7908 36.6751 22.5878 36.9211C22.2747 37.2864 20.9194 39.4491 20.7482 39.8363C20.6087 40.1675 20.6307 40.4476 20.6307 40.7472V41.4753C20.6307 41.6263 20.6307 42.0014 20.6527 42.3862C20.6748 42.6541 20.7604 42.8246 21.0393 42.8684C21.1787 42.8903 21.3842 42.9001 21.5139 42.9001C21.6215 42.9001 21.6753 42.9537 21.6753 42.9975C21.6753 43.0608 21.5995 43.0949 21.4698 43.0949C20.8778 43.0949 20.2418 43.0633 19.9849 43.0633C19.7476 43.0633 19.114 43.0949 18.7569 43.0949C18.6272 43.0949 18.5514 43.073 18.5514 42.9975C18.5514 42.9537 18.5954 42.9001 18.703 42.9001C18.8327 42.9001 18.9501 42.8903 19.0357 42.8684C19.229 42.8246 19.3048 42.6541 19.3269 42.3862C19.3587 42.0014 19.3587 41.6263 19.3587 41.4753V40.7277H19.366Z" fill="white"/>
<path d="M24.8874 40.8031C24.8336 40.8031 24.8238 40.8129 24.8018 40.8665L24.2954 42.0866C24.1976 42.3107 24.156 42.5372 24.156 42.6443C24.156 42.8051 24.2416 42.9025 24.5327 42.9025H24.6722C24.7896 42.9025 24.8116 42.9463 24.8116 42.9999C24.8116 43.0754 24.7578 43.0973 24.6599 43.0973C24.3468 43.0973 23.9065 43.0657 23.6056 43.0657C23.5077 43.0657 23.0038 43.0973 22.5072 43.0973C22.3898 43.0973 22.3359 43.0754 22.3359 42.9999C22.3359 42.9463 22.3677 42.9025 22.4436 42.9025C22.5292 42.9025 22.6368 42.8927 22.7225 42.8927C23.153 42.8294 23.3145 42.5493 23.5077 42.089L25.9834 36.356C26.091 36.0979 26.1669 35.9907 26.2623 35.9907C26.4017 35.9907 26.4457 36.076 26.5411 36.2805C26.7662 36.7847 28.349 40.5133 28.9508 41.8942C29.3177 42.7198 29.5868 42.8367 29.758 42.8684C29.8975 42.8903 30.0051 42.9 30.1128 42.9C30.1984 42.9 30.2424 42.9317 30.2424 42.9975C30.2424 43.073 30.1886 43.0949 29.8339 43.0949C29.5012 43.0949 28.8113 43.0949 28.0163 43.073C27.845 43.0632 27.7374 43.0632 27.7374 42.9975C27.7374 42.9439 27.7594 42.9122 27.8548 42.9C27.9184 42.8903 27.9845 42.8026 27.9404 42.6955L27.209 40.864C27.187 40.8104 27.1552 40.8007 27.1111 40.8007H24.8874V40.8031ZM26.9105 40.299C26.9546 40.299 26.9644 40.2771 26.9546 40.2454L26.0617 37.9318C26.0519 37.9001 26.0396 37.8465 26.0176 37.8465C25.9858 37.8465 25.9736 37.9001 25.9638 37.9318L25.0489 40.2357C25.0269 40.2795 25.0489 40.299 25.0807 40.299H26.9105Z" fill="white"/>
<path d="M32.5492 40.4476C32.5492 41.6142 32.5493 42.1938 32.7547 42.3643C32.9162 42.5031 33.2831 42.5567 34.0146 42.5567C34.521 42.5567 34.8855 42.5469 35.1228 42.2985C35.2402 42.1816 35.338 41.9235 35.3601 41.753C35.3698 41.6678 35.3919 41.6142 35.4677 41.6142C35.5313 41.6142 35.5533 41.7116 35.5533 41.8187C35.5533 41.9259 35.4897 42.6005 35.4139 42.8684C35.3503 43.073 35.3062 43.1144 34.8121 43.1144C34.1345 43.1144 33.5865 43.1047 33.1119 43.0827C32.6373 43.073 32.241 43.0608 31.8521 43.0608C31.7444 43.0608 31.5389 43.0706 31.3139 43.0706C31.0888 43.0803 30.8515 43.0925 30.6583 43.0925C30.5408 43.0925 30.4748 43.0608 30.4748 42.9951C30.4748 42.9512 30.5066 42.8976 30.6265 42.8976C30.7659 42.8976 30.8735 42.8879 30.9592 42.866C31.1524 42.8221 31.2062 42.6517 31.238 42.3838C31.2821 41.999 31.2821 41.2805 31.2821 40.4452V38.8378C31.2821 37.4569 31.2821 37.1987 31.2723 36.9089C31.2503 36.5972 31.1646 36.5022 30.8637 36.417C30.7879 36.395 30.6705 36.3853 30.5506 36.3853C30.443 36.3853 30.3892 36.3536 30.3892 36.2879C30.3892 36.2246 30.4528 36.2026 30.5946 36.2026C31.035 36.2026 31.6392 36.2246 31.8961 36.2246C32.1211 36.2246 32.8966 36.2026 33.2636 36.2026C33.403 36.2026 33.4691 36.2246 33.4691 36.2879C33.4691 36.3512 33.4152 36.3853 33.2978 36.3853C33.1902 36.3853 33.0385 36.395 32.9309 36.417C32.6716 36.4608 32.5982 36.5874 32.5762 36.9089C32.5541 37.1987 32.5541 37.4545 32.5541 38.8378V40.4476H32.5492Z" fill="white"/>
<path d="M40.6633 38.1022C40.6633 36.4729 40.6633 36.1734 40.6413 35.83C40.6193 35.4647 40.5337 35.2942 40.1789 35.2187C40.0933 35.1968 39.9099 35.187 39.7582 35.187C39.6408 35.187 39.5747 35.1651 39.5747 35.0896C39.5747 35.0141 39.6505 34.9922 39.812 34.9922C40.382 34.9922 41.0596 35.0238 41.2871 35.0238C41.6541 35.0238 42.4711 34.9922 42.8038 34.9922C43.4815 34.9922 44.2031 35.0555 44.7829 35.4525C45.0838 35.6571 45.5143 36.2026 45.5143 36.921C45.5143 37.715 45.1817 38.4432 44.093 39.3199C45.052 40.5206 45.7932 41.4729 46.4293 42.1377C47.0311 42.7588 47.4738 42.8343 47.6353 42.8659C47.7527 42.8879 47.8506 42.8976 47.9362 42.8976C48.0218 42.8976 48.0659 42.9293 48.0659 42.9828C48.0659 43.0681 47.99 43.09 47.8604 43.09H46.8378C46.236 43.09 45.9669 43.0364 45.6856 42.8854C45.2232 42.6394 44.8147 42.1353 44.2105 41.3097C43.7799 40.7203 43.2858 39.9921 43.1463 39.8314C43.0925 39.7681 43.0289 39.7559 42.9531 39.7559L42.0161 39.734C41.9623 39.734 41.9305 39.7559 41.9305 39.8192V39.9702C41.9305 40.9663 41.9305 41.8138 41.9843 42.262C42.0161 42.5737 42.0822 42.8075 42.4051 42.8513C42.5665 42.8732 42.8038 42.8952 42.9335 42.8952C43.0191 42.8952 43.0631 42.9268 43.0631 42.9804C43.0631 43.0559 42.9873 43.0876 42.8479 43.0876C42.2241 43.0876 41.4266 43.0559 41.2651 43.0559C41.0596 43.0559 40.382 43.0876 39.9514 43.0876C39.812 43.0876 39.7362 43.0559 39.7362 42.9804C39.7362 42.9268 39.7802 42.8952 39.9074 42.8952C40.0689 42.8952 40.1985 42.8732 40.2939 42.8513C40.5092 42.8075 40.563 42.5737 40.6071 42.262C40.6609 41.8114 40.6609 40.9663 40.6609 39.9799V38.1022H40.6633ZM41.933 38.9498C41.933 39.0667 41.955 39.1105 42.0308 39.1422C42.2559 39.2177 42.5788 39.2493 42.8479 39.2493C43.2784 39.2493 43.4179 39.2055 43.6111 39.0667C43.934 38.8304 44.2447 38.3385 44.2447 37.4593C44.2447 35.9371 43.2344 35.4988 42.5983 35.4988C42.3293 35.4988 42.136 35.5085 42.0284 35.5426C41.9525 35.5645 41.9305 35.6059 41.9305 35.6936V38.9498H41.933Z" fill="white"/>
<path d="M49.2378 38.8425C49.2378 37.4616 49.2378 37.2034 49.228 36.9136C49.206 36.6019 49.1203 36.5069 48.8194 36.4216C48.7436 36.3997 48.5821 36.39 48.4427 36.39C48.3449 36.39 48.2812 36.3583 48.2812 36.2926C48.2812 36.2293 48.3571 36.2073 48.4965 36.2073C48.9907 36.2073 49.5949 36.2293 49.864 36.2293C50.1649 36.2293 52.2638 36.239 52.4473 36.2293C52.6186 36.2195 52.7702 36.1854 52.8461 36.1757C52.8999 36.1659 52.9537 36.1318 52.9977 36.1318C53.0515 36.1318 53.0613 36.1757 53.0613 36.2171C53.0613 36.2804 53.0075 36.3876 52.9855 36.8064C52.9757 36.9039 52.9537 37.2984 52.9317 37.4056C52.9219 37.4494 52.8999 37.5566 52.824 37.5566C52.7604 37.5566 52.7482 37.5127 52.7482 37.4397C52.7482 37.3763 52.7384 37.2156 52.6846 37.1084C52.6088 36.9477 52.5329 36.8186 52.0608 36.7772C51.8993 36.7553 50.7691 36.7334 50.5759 36.7334C50.5319 36.7334 50.5123 36.765 50.5123 36.8186V39.069C50.5123 39.1225 50.5221 39.1664 50.5759 39.1664C50.7912 39.1664 52.0168 39.1664 52.232 39.1445C52.4571 39.1225 52.599 39.1006 52.6846 39.0056C52.7604 38.9423 52.7922 38.8887 52.8363 38.8887C52.8803 38.8887 52.9121 38.9326 52.9121 38.9862C52.9121 39.0397 52.8901 39.1907 52.8363 39.651C52.8143 39.8337 52.7922 40.1966 52.7922 40.2623C52.7922 40.3378 52.7825 40.4669 52.6944 40.4669C52.6308 40.4669 52.6088 40.4352 52.6088 40.3914C52.599 40.294 52.599 40.1771 52.577 40.0602C52.5231 39.8775 52.4057 39.7387 52.0486 39.7071C51.8773 39.6851 50.8009 39.6632 50.5637 39.6632C50.5196 39.6632 50.5098 39.7071 50.5098 39.7606V40.4888C50.5098 40.8006 50.5 41.5702 50.5098 41.8381C50.5318 42.4591 50.823 42.5979 51.7917 42.5979C52.0388 42.5979 52.4375 42.5882 52.6846 42.481C52.9219 42.3738 53.0295 42.1814 53.0931 41.8064C53.1152 41.709 53.1372 41.6676 53.2008 41.6676C53.2766 41.6676 53.2864 41.7845 53.2864 41.8819C53.2864 42.0865 53.2106 42.7075 53.1567 42.8877C53.0931 43.124 53.0051 43.124 52.6504 43.124C51.9409 43.124 51.3685 43.1142 50.9061 43.0923C50.4438 43.0826 50.0891 43.0704 49.8077 43.0704C49.7001 43.0704 49.4946 43.0801 49.2696 43.0801C49.0445 43.0899 48.8072 43.102 48.6139 43.102C48.4965 43.102 48.4305 43.0704 48.4305 43.0046C48.4305 42.9608 48.4623 42.9072 48.5821 42.9072C48.7216 42.9072 48.8292 42.8975 48.9148 42.8755C49.1081 42.8317 49.1619 42.6612 49.1937 42.3933C49.2378 42.0085 49.2378 41.2901 49.2378 40.4547V38.8425Z" fill="white"/>
<path d="M54.2577 42.9777C54.106 42.9144 54.0742 42.8706 54.0742 42.666C54.0742 42.174 54.1183 41.6041 54.128 41.4556C54.128 41.3167 54.1721 41.2193 54.2455 41.2193C54.3311 41.2193 54.3433 41.3046 54.3433 41.3703C54.3433 41.4872 54.3751 41.6821 54.4289 41.8428C54.6344 42.5174 55.3439 42.7439 55.9359 42.7439C56.7529 42.7439 57.2495 42.23 57.2495 41.5871C57.2495 41.1901 57.1517 40.7931 56.3126 40.3012L55.7646 39.9797C54.6442 39.327 54.2797 38.7157 54.2797 37.912C54.2797 36.7966 55.3561 36.0806 56.6698 36.0806C57.2838 36.0806 57.7682 36.1658 58.0152 36.2316C58.1009 36.2535 58.1449 36.2851 58.1449 36.3485C58.1449 36.4654 58.1131 36.7235 58.1131 37.442C58.1131 37.6344 58.0691 37.7318 57.9957 37.7318C57.9321 37.7318 57.8978 37.6782 57.8978 37.571C57.8978 37.4858 57.8538 37.2057 57.6507 36.9719C57.5113 36.8015 57.2104 36.5433 56.5964 36.5433C55.9187 36.5433 55.3047 36.8964 55.3047 37.5175C55.3047 37.9242 55.4564 38.2457 56.3053 38.7181L56.6918 38.9325C57.9394 39.6192 58.3284 40.3133 58.3284 41.139C58.3284 41.8136 58.0691 42.3615 57.3816 42.8413C56.9291 43.1628 56.3053 43.2164 55.7989 43.2164C55.246 43.2115 54.6662 43.1579 54.2577 42.9777Z" fill="white"/>
<path d="M59.5518 39.6465C59.5518 38.0927 60.6501 36.0786 63.5221 36.0786C65.9122 36.0786 67.3971 37.3962 67.3971 39.4858C67.3971 41.5754 65.8681 43.2144 63.4267 43.2144C60.6722 43.212 59.5518 41.2636 59.5518 39.6465ZM65.988 39.817C65.988 37.8029 64.7722 36.5608 63.2432 36.5608C62.1889 36.5608 60.951 37.1185 60.951 39.3689C60.951 41.2442 62.0274 42.7225 63.8132 42.7225C64.4811 42.72 65.988 42.4107 65.988 39.817Z" fill="white"/>
<path d="M69.1631 38.8427C69.1631 37.4618 69.1631 37.2036 69.1533 36.9138C69.1313 36.6021 69.0456 36.5071 68.7447 36.4218C68.6689 36.3999 68.5074 36.3902 68.368 36.3902C68.2701 36.3902 68.2065 36.3585 68.2065 36.2928C68.2065 36.2294 68.2824 36.2075 68.4218 36.2075C68.916 36.2075 69.5202 36.2294 69.7135 36.2294C70.0364 36.2294 70.8975 36.2075 71.1886 36.2075C71.7904 36.2075 72.4802 36.2611 72.9866 36.5923C73.2557 36.775 73.6545 37.2353 73.6545 37.8466C73.6545 38.5212 73.268 39.1203 72.3408 39.8607C73.1799 40.8884 73.8477 41.714 74.4177 42.2815C74.9461 42.8075 75.2788 42.8489 75.428 42.8806C75.5259 42.9025 75.5797 42.9025 75.6531 42.9025C75.7265 42.9025 75.7705 42.9561 75.7705 42.9999C75.7705 43.0754 75.7069 43.0974 75.5871 43.0974H74.6819C74.1535 43.0974 73.8967 43.0438 73.6496 42.9147C73.241 42.7101 72.8863 42.2815 72.3579 41.5752C71.9812 41.0833 71.5824 40.472 71.465 40.3331C71.4112 40.2796 71.3574 40.2698 71.2938 40.2698L70.4425 40.2479C70.3984 40.2479 70.3666 40.2698 70.3666 40.3234V40.4525C70.3666 41.3 70.3764 42.0063 70.4205 42.3911C70.4523 42.659 70.4963 42.8295 70.7874 42.8733C70.9268 42.8952 71.1323 42.905 71.2498 42.905C71.3256 42.905 71.3672 42.9585 71.3672 43.0024C71.3672 43.0657 71.2913 43.0998 71.1739 43.0998C70.6259 43.0998 69.8382 43.0681 69.6988 43.0681C69.5153 43.0681 68.9135 43.0998 68.5368 43.0998C68.4194 43.0998 68.3533 43.0681 68.3533 43.0024C68.3533 42.9585 68.3851 42.905 68.505 42.905C68.6444 42.905 68.7521 42.8952 68.8377 42.8733C69.031 42.8295 69.0848 42.659 69.1166 42.3911C69.1606 42.0063 69.1606 41.2878 69.1606 40.4525V38.8427H69.1631ZM70.3691 39.5489C70.3691 39.6463 70.3911 39.678 70.4547 39.7097C70.6602 39.773 70.9391 39.7949 71.1764 39.7949C71.5531 39.7949 71.6828 39.7632 71.8442 39.6439C72.1353 39.4393 72.4582 39.0448 72.4582 38.2947C72.4582 37.0088 71.5751 36.6776 71.0174 36.6776C70.7801 36.6776 70.555 36.6873 70.4571 36.7092C70.3935 36.7311 70.3715 36.7628 70.3715 36.8383V39.5489H70.3691Z" fill="white"/>
<path d="M77.395 36.763L75.9859 36.7946C75.438 36.8044 75.2105 36.8701 75.071 37.0723C74.9732 37.2013 74.9316 37.3182 74.9096 37.384C74.8876 37.4595 74.8655 37.5009 74.8019 37.5009C74.7383 37.5009 74.7163 37.4473 74.7163 37.3499C74.7163 37.1989 74.8998 36.3222 74.9193 36.2467C74.9414 36.1298 74.9732 36.0762 75.027 36.0762C75.1028 36.0762 75.1982 36.1517 75.4355 36.1833C75.7144 36.215 76.0691 36.2272 76.3822 36.2272H80.2254C80.5263 36.2272 80.7318 36.2053 80.8712 36.1833C81.0229 36.1614 81.0963 36.1395 81.1305 36.1395C81.1941 36.1395 81.2064 36.1931 81.2064 36.3319C81.2064 36.5243 81.1844 37.1989 81.1844 37.4351C81.1746 37.5326 81.1525 37.5861 81.0987 37.5861C81.0229 37.5861 81.0009 37.5423 80.9911 37.4035L80.9813 37.3061C80.9593 37.0698 80.7122 36.7922 79.8609 36.78L78.6671 36.7581V40.4429C78.6671 41.2783 78.6769 41.9967 78.7209 42.3937C78.7527 42.6518 78.8065 42.8223 79.0879 42.8662C79.2175 42.8881 79.4328 42.8978 79.5722 42.8978C79.6799 42.8978 79.7239 42.9514 79.7239 42.9952C79.7239 43.0586 79.6481 43.0927 79.5404 43.0927C78.9166 43.0927 78.2806 43.061 78.0115 43.061C77.7962 43.061 77.1504 43.0927 76.7737 43.0927C76.6562 43.0927 76.5902 43.061 76.5902 42.9952C76.5902 42.9514 76.622 42.8978 76.7419 42.8978C76.8813 42.8978 77.0012 42.8881 77.0745 42.8662C77.2678 42.8223 77.3216 42.6518 77.3534 42.3839C77.3975 41.9991 77.3975 41.2807 77.3975 40.4453V36.763H77.395Z" fill="white"/>
<path d="M82.432 42.9777C82.2803 42.9144 82.2485 42.8706 82.2485 42.666C82.2485 42.174 82.2926 41.6041 82.3024 41.4556C82.3024 41.3167 82.3464 41.2193 82.4198 41.2193C82.5054 41.2193 82.5176 41.3046 82.5176 41.3703C82.5176 41.4872 82.5494 41.6821 82.6032 41.8428C82.8087 42.5174 83.5182 42.7439 84.1102 42.7439C84.9272 42.7439 85.4238 42.23 85.4238 41.5871C85.4238 41.1901 85.326 40.7931 84.4869 40.3012L83.9389 39.9797C82.8185 39.327 82.454 38.7157 82.454 37.912C82.454 36.7966 83.5304 36.0806 84.8441 36.0806C85.4581 36.0806 85.9425 36.1658 86.1895 36.2316C86.2752 36.2535 86.3192 36.2851 86.3192 36.3485C86.3192 36.4654 86.2874 36.7235 86.2874 37.442C86.2874 37.6344 86.2434 37.7318 86.17 37.7318C86.1064 37.7318 86.0721 37.6782 86.0721 37.571C86.0721 37.4858 86.0281 37.2057 85.825 36.9719C85.6856 36.8015 85.3847 36.5433 84.7707 36.5433C84.0931 36.5433 83.479 36.8964 83.479 37.5175C83.479 37.9242 83.6307 38.2457 84.4796 38.7181L84.8661 38.9325C86.1137 39.6192 86.5027 40.3133 86.5027 41.139C86.5027 41.8136 86.2434 42.3615 85.5559 42.8413C85.1034 43.1628 84.4796 43.2164 83.9732 43.2164C83.4228 43.2115 82.8405 43.1579 82.432 42.9777Z" fill="white"/>
</g>
<defs>
<clipPath id="clip0_5559_4217">
<rect width="86" height="43" fill="white" transform="translate(0.5 0.211914)"/>
</clipPath>
</defs>
</svg>
