<?xml version="1.0" encoding="UTF-8"?>
<svg id="Capa_1" data-name="Capa 1" xmlns="http://www.w3.org/2000/svg" viewBox="0 0 612 322">
  <defs>
    <style>
      .cls-1, .cls-2 {
        fill: #fff;
      }

      .cls-2 {
        fill-rule: evenodd;
      }
    </style>
  </defs>
  <path class="cls-2" d="M299.53,107.55s19.98-34.99,58.54-46.65c-10.2-17.08-28.87-28.52-50.2-28.52-12.83,0-24.69,4.14-34.33,11.16.74-.25,1.48-.5,2.24-.73,9.52-2.87,20.5-3.91,32.91-1.62-2.76.55-15.84.04-30.87,5.44-5.12,1.84-10.47,4.37-15.71,7.86-7.93,9.98-12.69,22.59-12.69,36.33,0,2.26.14,4.49.39,6.68,16.62-1.65,34.53.92,49.71,10.05"/>
  <path class="cls-2" d="M326.02,130.95c-15.68.74-27.98,6.35-27.98,6.35,7.41-4.44,17.19-7.68,27.64-8.76,8.22-.85,16.85-.36,25.09,1.94,9.64-10.42,15.53-24.35,15.53-39.66,0-1.51-.08-3-.19-4.47-2.04-.12-4.04-.12-5.98-.02-13.08.62-23.34,5.3-23.34,5.3,6.18-3.71,14.34-6.41,23.05-7.31,1.99-.21,4.01-.32,6.04-.33-.75-6.42-2.53-12.52-5.18-18.13-8.85,3.19-18.21,7.95-27.09,15.12-7.32,5.92-14.31,13.48-20.39,23.16-.45,1.36-1.02,5.45-1.02,5.45h3.53l2.49-1.53.05.4.06.62-.86.6-11.86,8.31-4.31.22-2.27.69-.89-.09-2.41-.25-3.52.91-3.06,1.25,2.15-2.05.57-1.24.22-2.17.86-.96,1.76-1.98c-5.99-4.12-12.28-6.93-18.59-8.78-8.82-2.57-17.69-3.25-25.87-2.9,4.67,27.59,28.68,48.61,57.6,48.61,15.38,0,29.36-5.95,39.79-15.66-.46-.15-.93-.3-1.39-.44-6.91-2.02-13.86-2.52-20.25-2.22"/>
  <path class="cls-2" d="M249.41,97.54c-13.57,1.4-26.26,5.61-35.88,11.38,0,0,15.96-7.28,36.32-8.25.14,0,.28-.01.42-.02-.18-1.04-.33-2.09-.45-3.15-.14.02-.27.02-.41.03"/>
  <path class="cls-2" d="M360.74,65.86c19.51-7.01,36.49-6.35,40.07-7.06-16.11-2.98-30.37-1.64-42.72,2.1,0,0-.02,0-.02,0,.96,1.61,1.84,3.27,2.65,4.96.01,0,.02,0,.03,0"/>
  <path class="cls-2" d="M377.04,88.18c4.06,1.19,8.09,3,11.95,5.64l-1.13,1.27-.55.62-.15,1.39-.37.8-1.39,1.32,1.96-.8,2.26-.59,1.55.16.57.06,1.46-.44,2.77-.14,7.62-5.34.55-.39-.04-.4-.03-.26-1.6.99h-2.26s.36-2.63.66-3.5c3.91-6.22,8.4-11.07,13.1-14.88,5.71-4.61,11.74-7.68,17.43-9.72,12.54-4.51,23.45-4.08,25.75-4.54-10.35-1.91-19.52-1.05-27.46,1.35-24.78,7.48-37.63,29.98-37.63,29.98-8.02-4.82-17.22-6.79-26.17-6.76.09.78.16,1.56.22,2.36,3.57.2,7.25.75,10.92,1.83"/>
  <path class="cls-2" d="M409.4,100.31c-29.71,8.98-45.12,35.94-45.12,35.94-4.27-2.57-8.83-4.46-13.51-5.77-1,1.08-2.04,2.12-3.11,3.12,4.39,1.42,8.75,3.46,12.93,6.33l-1.36,1.53-.66.74-.17,1.67-.44.95-1.66,1.58,2.36-.96,2.71-.7,1.86.19.68.07,1.75-.53,3.33-.17,9.13-6.41.66-.47-.05-.47-.04-.31-1.92,1.18h-2.72s.44-3.15.79-4.19c4.69-7.45,10.07-13.28,15.71-17.84,6.84-5.53,14.07-9.2,20.89-11.66,15.03-5.4,28.11-4.9,30.87-5.44-12.41-2.29-23.39-1.26-32.91,1.62"/>
  <path class="cls-2" d="M273.54,43.53c-28.24,9.61-42.87,35.22-42.87,35.22-11.79-7.09-25.71-9.04-38.61-7.71-10.45,1.08-20.22,4.32-27.64,8.76,0,0,12.3-5.61,27.97-6.35,6.39-.31,13.34.2,20.25,2.22,4.87,1.42,9.71,3.59,14.32,6.76l-1.35,1.53-.66.74-.17,1.67-.44.96-1.66,1.58,2.36-.96,2.71-.7,1.85.19.69.07,1.75-.53,3.33-.17,9.13-6.4.66-.46-.05-.48-.04-.31-1.92,1.18h-2.72s.44-3.15.79-4.19c4.69-7.45,10.07-13.28,15.71-17.84,1.71-1.38,3.44-2.65,5.18-3.8,3.29-4.15,7.14-7.84,11.43-10.96"/>
  <g>
    <g>
      <path class="cls-1" d="M91.41,275.41c0,3.16-2.21,5.3-5.24,5.3-1.52,0-2.85-.59-3.69-1.76v1.64h-1.8v-14.5h1.88v5.71c.86-1.11,2.15-1.66,3.61-1.66,3.03,0,5.24,2.11,5.24,5.28ZM89.52,275.41c0-2.21-1.51-3.64-3.5-3.64s-3.48,1.43-3.48,3.64,1.51,3.65,3.48,3.65,3.5-1.45,3.5-3.65Z"/>
      <path class="cls-1" d="M102.9,270.23l-5.02,11.39c-.92,2.19-2.11,2.87-3.69,2.87-1,0-2.01-.33-2.66-.96l.8-1.41c.51.49,1.15.76,1.86.76.9,0,1.47-.41,1.97-1.6l.33-.72-4.57-10.34h1.95l3.61,8.29,3.58-8.29h1.84Z"/>
    </g>
    <g>
      <path class="cls-1" d="M91.41,275.41c0,3.16-2.21,5.3-5.24,5.3-1.52,0-2.85-.59-3.69-1.76v1.64h-1.8v-14.5h1.88v5.71c.86-1.11,2.15-1.66,3.61-1.66,3.03,0,5.24,2.11,5.24,5.28ZM89.52,275.41c0-2.21-1.51-3.64-3.5-3.64s-3.48,1.43-3.48,3.64,1.51,3.65,3.48,3.65,3.5-1.45,3.5-3.65Z"/>
      <path class="cls-1" d="M102.9,270.23l-5.02,11.39c-.92,2.19-2.11,2.87-3.69,2.87-1,0-2.01-.33-2.66-.96l.8-1.41c.51.49,1.15.76,1.86.76.9,0,1.47-.41,1.97-1.6l.33-.72-4.57-10.34h1.95l3.61,8.29,3.58-8.29h1.84Z"/>
    </g>
    <path class="cls-1" d="M196.81,249.23l-2.33,10.85c-.5-.13-1.35-.21-2.15-.21-8.04,0-13.78,6.53-13.78,13.87,0,4.51,2.78,7.33,7,7.33,2.53,0,4.68-1.01,5.86-2.4.37,1.47,1.81,2.23,3.5,2.23h.75l6.78-31.67h-5.62ZM191.91,272.21c-.33,1.52-.84,2.82-1.6,3.71-.76.85-1.69,1.35-3.04,1.35-1.89,0-3.08-1.3-3.08-3.71,0-4.88,3.54-10.15,7.84-10.15.63,0,1.39.13,1.69.3l-1.81,8.51ZM176.74,251.56c-1.94,0-3.83,1.77-3.83,3.76,0,1.47,1.06,2.48,2.48,2.48,1.94,0,3.88-1.77,3.88-3.75,0-1.47-1.09-2.49-2.53-2.49M158.11,275.34c-.21.92-1.45,5.73,3.58,5.73h.76l5.88-28.1h-5.57l-4.66,22.37ZM168.95,275.34c-.21.92-1.45,5.73,3.58,5.73h.75l4.43-20.82h-5.56l-3.2,15.09ZM148.8,259.86c-2.95,0-5.56.97-7.54,2.62-3.12,2.53-4.93,6.7-4.93,11.13,0,4.93,3.37,7.46,8.05,7.46,2.95,0,5.57-.97,7.54-2.62,3.12-2.52,4.94-6.74,4.94-11.16,0-4.93-3.37-7.42-8.05-7.42M148.58,275.38c-.92,1.18-2.1,1.98-3.49,1.98-2.23,0-3.11-1.56-3.11-3.75,0-2.36.88-5.86,2.61-8.05.93-1.18,2.15-1.98,3.54-1.98,2.24,0,3.07,1.56,3.07,3.75,0,2.36-.88,5.86-2.62,8.05M214.44,259.86c-7.66,0-13.78,6.2-13.78,13.91,0,4.51,2.57,7.29,6.78,7.29,2.54,0,4.68-1.01,5.86-2.4.38,1.47,1.83,2.23,3.52,2.23h.74l4.06-19.01c-2.09-1.28-4.55-2.03-7.19-2.03M213.81,272.21c-.34,1.52-.8,2.82-1.56,3.71-.76.85-1.73,1.35-3.08,1.35-1.89,0-2.86-1.26-2.86-3.66,0-4.3,3.12-10.2,8-10.2.51,0,.97.13,1.3.34l-1.81,8.47ZM297.77,259.7c-2.68,0-4.96,1.21-6.42,2.83l-.51-2.45h-4.25c0,1.73-.27,4.14-1.04,7.74l-2.66,12.7h5.57l1.98-9.23c.55-2.58,1.5-7.46,5.4-7.46,1.94,0,2.94,1.23,2.33,4.16l-1.49,7.17c-.21.92-1.48,5.73,3.58,5.73h.75l2.79-13.12c1.21-5.62-1.79-8.08-6.02-8.08M237.48,269.47c-.55,2.58-1.46,7.46-5.4,7.46-3.52,0-2.4-3.88-2.19-4.89l2.49-11.8h-5.56l-2.49,11.63c-.25,1.22-.5,2.49-.5,3.54,0,1.52.55,2.74,1.39,3.67-3.24.81-4.76,2.49-4.76,4.89,0,3.55,3.5,5.66,8.17,5.66,4.01,0,7.17-1.36,9.19-3.63,1.64-1.85,2.65-4.38,3.41-7.96l3.79-17.79h-5.56l-1.98,9.23ZM234.99,280.64c-.43,1.65-1.19,3.12-2.28,4.18-1.05,1.01-2.48,1.56-4.04,1.56-1.94,0-3.55-.93-3.55-2.57,0-2.1,2.07-2.61,5.11-2.95,2.15-.25,4.04-.76,5.14-1.72l-.38,1.51ZM275.19,259.7c-2.68,0-4.95,1.21-6.42,2.83l-.5-2.45h-4.25c0,1.73-.27,4.14-1.04,7.74l-2.67,12.7h5.57l1.98-9.23c.55-2.58,1.5-7.46,5.39-7.46,1.94,0,2.94,1.23,2.34,4.16l-1.49,7.17c-.21.92-1.49,5.73,3.58,5.73h.75l2.8-13.12c1.2-5.62-1.79-8.08-6.03-8.08M256.67,248.28l-5.64,27.04c-.22.93-1.46,5.74,3.58,5.74h.76l6.86-32.78h-5.56ZM132.76,248.13l-2.5,11.99v.03c-4.22.8-7.38,1.54-10.42,2.4l.51-2.43,2.51-11.99h-5.56l-3.48,16.7c-.8.35-1.63.75-2.62,1.24-1.49.78-2.03,1.94-2.21,2.5-.11.39-.13,1.08.06,1.63,1.34-.53,2.65-1.03,3.96-1.51l-1.35,6.47c-.21.93-1.45,5.73,3.58,5.73h.76l2.88-13.79c3.12-.84,6.29-1.57,10.42-2.36l-.06.25-2.12,10.16c-.21.93-1.45,5.73,3.58,5.73h.76l6.86-32.78h-5.57Z"/>
    <path class="cls-1" d="M525.26,263.13c1.65,0,3.63.49,4.91,1.15l.58-2.77c-1.24-.62-3.51-1.11-5.28-1.11-4.91,0-8.5,2.52-8.5,6.19,0,2.89,2.23,4.29,4.63,5.36,2.72,1.24,3.92,1.94,3.92,3.43,0,1.69-1.65,3.01-4.58,3.01-2.02,0-4.29-.54-5.94-1.73l-.62,2.89c1.77,1.11,4.21,1.61,6.36,1.61,5.03,0,8.67-2.35,8.67-6.4,0-2.81-1.94-4.13-5.08-5.61-2.15-.99-3.51-1.82-3.51-3.14,0-1.61,1.73-2.89,4.46-2.89M424.34,273.74c0-4.09,2.68-10.57,7.26-10.57,1.98,0,2.8,1.32,2.68,3.63l3.92-.09c0-.2.04-.41.04-.62,0-3.68-2.69-5.74-6.28-5.74-7.22,0-11.76,7.06-11.76,13.5,0,4.87,3.42,7.26,8.13,7.26,2.44,0,4.91-.83,6.57-1.9l.66-3.06c-2.06,1.32-4.66,2.11-6.61,2.11-3.01,0-4.62-1.57-4.62-4.54M401.85,254.63l-9.62,18.57c-.34.69-.69,1.45-.95,2.21l-.24-2.65-1.62-18.13h-4.46l1.94,19.23.07.82.2,2.3c.06.76.19,5.21,5.1,3.37l13.98-25.73h-4.42ZM420.22,262.79h0l.21-.97c-1.83-.93-3.89-1.46-6.08-1.46-.09,0-.18.01-.27.02,0,0,0,0,0,0-7.6.09-13.22,6.76-13.22,13.65,0,4.26,2.52,7.1,6.64,7.1,2.25,0,4.23-.91,5.45-2.11.12,1.07.75,2.15,2.78,2.15h.54l2.16-10.05h0l1.79-8.32ZM414.19,272c-.42,1.86-.95,3.47-1.9,4.58-.91,1.03-2.15,1.7-3.8,1.7-2.19,0-3.51-1.45-3.51-4.34,0-5.95,4.62-10.86,9.04-10.86.78,0,1.53.21,1.98.54l-1.82,8.38ZM451.64,260.36c-.1,0-.18.01-.27.02,0,0,0,0,0,0-7.6.09-13.22,6.76-13.22,13.65,0,4.26,2.52,7.1,6.64,7.1,2.24,0,4.23-.91,5.45-2.11.13,1.07.75,2.15,2.78,2.15h.55l2.16-10.05,1.79-8.32h0l.21-.97c-1.83-.93-3.89-1.46-6.08-1.46M451.47,272c-.41,1.86-.95,3.47-1.9,4.58-.91,1.03-2.15,1.7-3.8,1.7-2.18,0-3.51-1.45-3.51-4.34,0-5.95,4.63-10.86,9.04-10.86.78,0,1.53.21,1.98.54l-1.82,8.38ZM470.01,263.68l.62-2.93h-3.68l1.37-6.32h-.35s-3.74,0-3.74,0l-1.33,6.32h-3.06l-.62,2.93h3.06l-2.31,10.78c-.04.19-.08.39-.13.61l-.41,1.92c-.15.67-1.05,4.16,2.6,4.16h.54l3.25-15.08h0l.52-2.39h3.67ZM488.15,260.36c-2.8,0-5.28,1.04-7.18,2.72-2.89,2.64-4.58,6.89-4.58,10.94,0,4.46,2.84,7.1,7.34,7.1,2.81,0,5.28-1.03,7.18-2.72,2.89-2.64,4.58-6.89,4.58-10.93,0-4.46-2.85-7.1-7.35-7.1M488.28,276.29c-1.07,1.2-2.44,2.02-4.01,2.02-2.51,0-3.75-1.69-3.75-4.38,0-2.93,1.07-6.48,3.09-8.75,1.07-1.2,2.44-2.02,4.01-2.02,2.52,0,3.75,1.74,3.75,4.38,0,2.93-1.08,6.48-3.09,8.75M475.02,257.56c1.48,0,3.01-1.4,3.01-2.93,0-1.11-.87-1.9-1.98-1.9-1.53,0-2.97,1.36-2.97,2.89,0,1.12.83,1.94,1.94,1.94M472.58,260.73l-.63,2.93h.01l-2.02,9.46-.24,1.15-.24,1.1-.35,1.56c-.15.68-1.06,4.19,2.62,4.19h.55l.88-4.15h0l.38-1.83,3.08-14.42h-4.05ZM508.73,260.36c-2.84,0-5.32,1.49-6.64,3.34v-2.97h-1.67s-1.37,0-1.37,0c0,0,.04.91-.25,2.94l-1.32,6.17h.01s-2.35,10.91-2.35,10.91h4.05l1.77-8.26c.63-2.85,1.28-5.12,2.35-6.65.99-1.4,2.52-2.35,4.25-2.35.95,0,1.81.25,2.31.74.54.54.79,1.28.79,2.15,0,.7-.21,1.81-.5,3.18l-.8,3.8-.39,1.83-.38,1.73c-.15.68-1.06,4.19,2.62,4.19h.54l.89-4.15h0l1-4.66s0-.05,0-.07l.55-2.6c.29-1.4.54-2.72.54-3.76,0-3.59-2.48-5.53-6.03-5.53"/>
    <path class="cls-1" d="M316.73,271.85c0-5.69,3.37-14.62,9.43-14.62,2.99,0,3.82,2.16,3.65,4.65l4.31-.08c0-.25.05-.5.05-.75,0-4.9-3.49-7.02-7.69-7.02-8.94,0-14.21,9.89-14.21,18.03,0,5.85,3.45,9.01,9.23,9.01,2.82,0,5.9-.87,8.14-2.2l.75-3.53c-2.2,1.41-5.32,2.45-8.06,2.45-3.78,0-5.61-2.2-5.61-5.94M355.89,260.55l-1.79,8.31c-.62,2.87-1.29,5.15-2.37,6.69-1,1.41-2.53,2.36-4.28,2.36-.96,0-1.82-.24-2.33-.74-.54-.54-.79-1.29-.79-2.16,0-.71.21-1.83.5-3.2l2.41-11.26h-4.07l-2.41,11.18c-.29,1.41-.54,2.74-.54,3.78,0,3.62,2.49,5.57,6.07,5.57,2.38,0,4.64-1.14,5.96-2.47,0,0,0,0,0,0,.02,1.17.76,2.32,2.8,2.32h.54l1.43-6.66h.01s2.92-13.71,2.92-13.71h-4.07ZM337.73,254.2l-2.07,9.69h0l-2.77,13.04c-.15.68-1.06,4.19,2.62,4.19h.55l5.74-26.92h-4.06ZM371.9,260.18c-2.24,0-4.49,1.08-5.77,2.53l1.8-8.52h-4.11l-5.34,25.18c1.99,1.08,4.82,1.7,7.23,1.7,7.81,0,12.58-6.48,12.58-13.87,0-3.95-2.28-7.03-6.4-7.03M365.96,278.34c-1.04,0-2.45-.29-3.03-.67l1.37-6.36c.54-2.57,1.42-4.85,2.53-6.18,1.04-1.2,2.41-1.91,3.9-1.91,2.12,0,3.41,1.5,3.41,4.24,0,5.36-3.03,10.88-8.18,10.88"/>
    <path class="cls-1" d="M535.37,256.21c0,1.52-1.19,2.71-2.75,2.71s-2.76-1.19-2.76-2.71,1.23-2.68,2.76-2.68,2.75,1.19,2.75,2.68ZM530.54,256.21c0,1.19.88,2.14,2.09,2.14s2.04-.95,2.04-2.12-.87-2.16-2.06-2.16-2.08.96-2.08,2.14ZM532.2,257.61h-.62v-2.68c.24-.05.59-.08,1.03-.08.51,0,.73.08.93.2.15.11.26.33.26.59,0,.29-.23.52-.56.62v.03c.26.1.41.29.49.65.08.41.13.57.2.67h-.67c-.08-.1-.13-.34-.21-.65-.05-.29-.21-.43-.56-.43h-.29v1.08ZM532.21,256.09h.29c.34,0,.62-.11.62-.39,0-.25-.18-.41-.57-.41-.16,0-.28.02-.34.03v.77Z"/>
  </g>
  <path class="cls-1" d="M383.97,144.12c0-2-1.49-3.35-3.49-3.35s-3.49,1.35-3.49,3.35,1.49,3.4,3.54,3.4,3.45-1.44,3.45-3.4M376.2,144.16c0-2.37,1.82-4.1,4.28-4.1s4.29,1.72,4.29,4.1-1.82,4.05-4.29,4.05-4.28-1.77-4.28-4.05"/>
  <path class="cls-1" d="M382.98,146.25s0-.02-.01-.03c0,0,0,0,0,0,0,0,0,0,0,0,0,0-.02,0-.03,0h-.01s0,0-.01,0c-.05,0-.1,0-.17-.02-.09-.02-.34-.06-.69-.42-.36-.38-.79-.93-1.34-1.62.62-.51.81-.92.81-1.38,0-.41-.25-.73-.42-.84-.3-.21-.67-.26-1.03-.26,0,0,0,0,0,0h-1.82s-.05.02-.05.05h0s.02.06.05.06h.1s.09,0,.12.02c.2.04.25.14.26.35.01.2.01.37.01,1.31v1.08c0,.57,0,1.05-.03,1.31-.02.18-.06.31-.18.34-.06.01-.15.02-.24.02,0,0-.01,0-.02,0h-.03s-.02,0-.03.01c0,0,0,0,0,0,0,0,0,0,0,0,0,0-.01.02-.01.03,0,0,0,0,0,0h0s.02.06.05.06h1.82s.05-.02.05-.05h0s0-.01,0-.01c0,0,0,0,0,0,0-.01,0-.02-.01-.03,0,0,0,0,0,0,0,0,0,0,0,0,0,0-.02,0-.03,0h-.01s0,0-.01,0c-.07,0-.21-.01-.3-.02-.18-.02-.22-.16-.24-.34-.03-.26-.03-.75-.03-1.32v-.09s.02-.05.05-.05h.54s.08.02.11.06c.08.09.36.51.61.85.35.47.58.76.84.91.15.08.29.11.58.12,0,0,.01,0,.02,0h.71s.05-.02.05-.05h0s0-.01,0-.01c0,0,0,0,0,0ZM380.43,144c-.11.08-.19.1-.44.1-.15,0-.34-.02-.47-.06-.04-.02-.06-.04-.06-.11v-1.87s.01-.07.06-.09c.06-.02.17-.02.33-.02.36,0,.94.25.94,1.13,0,.51-.18.79-.36.92Z"/>
  <g>
    <path class="cls-1" d="M104.62,203.73c0-9.06,6.37-20.81,23.06-20.81,13.87,0,22.5,7.69,22.5,19.87s-8.87,21.75-23.06,21.75c-16,0-22.5-11.37-22.5-20.81M141.98,204.73c0-11.75-7.06-19-15.93-19-6.12,0-13.31,3.25-13.31,16.37,0,10.94,6.25,19.56,16.62,19.56,3.87,0,12.62-1.81,12.62-16.93"/>
    <path class="cls-1" d="M369.69,223.16c-.87-.38-1.06-.63-1.06-1.81,0-2.88.25-6.19.31-7.06,0-.81.25-1.37.69-1.37.5,0,.56.5.56.87,0,.69.19,1.81.5,2.75,1.19,3.94,5.31,5.25,8.75,5.25,4.75,0,7.62-3,7.62-6.75,0-2.31-.56-4.62-5.44-7.5l-3.19-1.87c-6.5-3.81-8.62-7.37-8.62-12.06,0-6.5,6.25-10.68,13.87-10.68,3.56,0,6.38.5,7.81.88.5.13.75.31.75.69,0,.69-.19,2.19-.19,6.37,0,1.12-.25,1.69-.69,1.69-.38,0-.56-.31-.56-.94,0-.5-.25-2.13-1.44-3.5-.81-1-2.56-2.5-6.12-2.5-3.94,0-7.5,2.06-7.5,5.68,0,2.38.88,4.25,5.81,7l2.25,1.25c7.25,4,9.5,8.06,9.5,12.87,0,3.94-1.5,7.12-5.5,9.93-2.63,1.88-6.25,2.19-9.19,2.19-3.19,0-6.56-.31-8.94-1.38"/>
    <path class="cls-1" d="M397.17,203.73c0-9.06,6.38-20.81,23.06-20.81,13.87,0,22.49,7.69,22.49,19.87s-8.87,21.75-23.06,21.75c-16,0-22.5-11.37-22.5-20.81M434.54,204.73c0-11.75-7.06-19-15.93-19-6.12,0-13.31,3.25-13.31,16.37,0,10.94,6.25,19.56,16.62,19.56,3.88,0,12.62-1.81,12.62-16.93"/>
    <path class="cls-1" d="M528.93,223.16c-.87-.38-1.06-.63-1.06-1.81,0-2.88.25-6.19.31-7.06,0-.81.25-1.37.69-1.37.5,0,.56.5.56.87,0,.69.19,1.81.5,2.75,1.19,3.94,5.31,5.25,8.75,5.25,4.75,0,7.62-3,7.62-6.75,0-2.31-.56-4.62-5.44-7.5l-3.19-1.87c-6.5-3.81-8.62-7.37-8.62-12.06,0-6.5,6.25-10.68,13.87-10.68,3.56,0,6.38.5,7.81.88.5.13.75.31.75.69,0,.69-.19,2.19-.19,6.37,0,1.12-.25,1.69-.69,1.69-.38,0-.56-.31-.56-.94,0-.5-.25-2.13-1.44-3.5-.81-1-2.56-2.5-6.12-2.5-3.94,0-7.5,2.06-7.5,5.68,0,2.38.88,4.25,5.81,7l2.25,1.25c7.25,4,9.5,8.06,9.5,12.87,0,3.94-1.5,7.12-5.5,9.93-2.63,1.88-6.25,2.19-9.19,2.19-3.19,0-6.56-.31-8.94-1.38"/>
    <path class="cls-1" d="M191,184.11c0-.1-.05-.18-.13-.24-.1-.12-.24-.2-.4-.2h-12.13c-.17,0-.32.09-.41.21-.03.03-.05.07-.07.11,0,.02,0,.04-.01.05-.01.04-.03.08-.03.13,0,0,0,0,0,.01,0,0,0,.01,0,.02v.09c0,.29.24.53.53.53h.55c.87.2,1.11.68,1.11,1.17,0,.69-.25,1.63-.81,2.81-.81,1.63-7.5,13-8.19,14.25-.94-1.5-8.12-13.93-9.12-15.56-.44-.75-.69-1.37-.69-1.81s.31-.69.75-.81c.06-.02.1-.03.16-.04h.56c.29,0,.53-.24.53-.53v-.09s0-.01,0-.02c0,0,0,0,0-.01,0-.06-.02-.11-.04-.16,0,0,0,0,0-.01-.02-.05-.05-.09-.09-.13-.02-.03-.05-.05-.08-.07,0,0-.02-.01-.02-.02-.09-.06-.19-.11-.3-.11h-13.94c-.18,0-.34.1-.43.24-.01.02-.03.04-.04.05-.02.04-.03.09-.04.14,0,.02-.02.04-.02.06,0,0,0,0,0,.01,0,0,0,.01,0,.02v.09c0,.29.24.53.53.53h.95c.56.11,1.16.34,1.65.6,1.06.56,2.19,1.81,3.56,3.75,1.94,2.81,9.43,14.5,9.81,15.31.75,1.56,1.25,2.69,1.25,5.56v4.37c0,.87,0,3.06-.19,5.31-.12,1.56-.56,2.56-1.69,2.81-.5.12-1.19.19-1.94.19-.04,0-.06.01-.09.01h-.27c-.29,0-.53.24-.53.53v.09c0,.29.24.53.53.53h17.07c.29,0,.53-.24.53-.53v-.02s.02-.03.02-.05c0-.04-.02-.07-.03-.11-.04-.25-.25-.44-.51-.44h-.3s-.06-.01-.1-.01c-.75,0-1.94-.06-2.75-.19-1.63-.25-2.13-1.25-2.25-2.81-.12-2.25-.12-4.44-.12-5.31v-4.25c0-1.75-.13-3.38.69-5.31,1-2.25,8.87-14.87,10.69-17,1.19-1.44,1.69-1.94,2.87-2.5.55-.25,1.18-.44,1.71-.54h1.2c.29,0,.53-.24.53-.53v-.09s0-.04-.01-.05c0-.01.01-.02.01-.04Z"/>
    <path class="cls-1" d="M228.9,222.74h-.85c-.43-.03-.89-.08-1.44-.16-1-.18-2.56-.85-4.69-5.51-3.5-7.82-12.68-28.91-14-31.76-.56-1.15-.81-1.64-1.63-1.64-.56,0-1,.61-1.62,2.06l-14.37,32.42c-1.13,2.61-2.06,4.18-4.56,4.55-.32,0-.68.02-1.03.04h-.66c-.15,0-.28.06-.38.16-.12.1-.18.24-.18.4,0,.13.04.23.1.3.09.16.26.27.45.27h13.29c.29,0,.53-.24.53-.53v-.09s-.01-.06-.02-.09c0-.03,0-.07-.02-.1-.08-.2-.27-.34-.49-.34h-1.6c-1.28-.1-1.68-.62-1.68-1.43,0-.61.25-1.88.81-3.15l2.94-6.91c.13-.3.19-.37.5-.37h12.93c.25,0,.44.06.56.37l4.25,10.36c.24.58-.09,1.04-.45,1.13h-.21c-.23,0-.42.15-.49.35,0,.02,0,.05-.01.07,0,.03-.02.07-.02.1v.09c0,.29.24.53.53.53h13.5c.25,0,.46-.19.51-.43,0,0,0-.02,0-.03,0-.02.01-.05.01-.07v-.09c0-.29-.24-.53-.53-.53ZM210.06,208.04h-10.62c-.19,0-.31-.12-.19-.36l5.31-13.03c.06-.18.13-.48.31-.48.12,0,.19.3.25.48l5.19,13.09c.06.18,0,.3-.25.3Z"/>
    <path class="cls-1" d="M260.39,215.23c-.44,0-.56.31-.62.81-.12,1-.69,2.5-1.37,3.19-1.38,1.44-3.5,1.5-6.44,1.5-4.25,0-6.37-.31-7.31-1.13-1.19-1-1.19-4.38-1.19-11.19v-9.37c0-8.06,0-9.56.12-11.25.12-1.88.56-2.63,2.06-2.88.62-.12,1.5-.19,2.12-.19.03,0,.05,0,.07,0h.4c.29,0,.53-.24.53-.53,0,0,0-.01,0-.02,0,0,0,0,0-.01,0-.02-.01-.04-.02-.06,0-.05-.02-.1-.04-.15,0-.01-.02-.03-.03-.04-.09-.15-.25-.25-.44-.25h-16.81c-.19,0-.34.1-.44.25-.01.01-.02.03-.03.05-.02.05-.04.1-.04.15,0,.02-.02.04-.02.06,0,0,0,0,0,.01,0,0,0,0,0,.02,0,.29.24.53.53.53h.34s.04,0,.07,0c.69,0,1.38.06,1.81.19,1.75.5,2.25,1.06,2.38,2.88.06,1.69.06,3.19.06,11.25v9.37c0,4.87,0,9.06-.25,11.31-.19,1.56-.5,2.56-1.63,2.81-.5.12-1.13.19-1.94.19-.04,0-.06.01-.1.01h-.27c-.29,0-.53.24-.53.53v.09c0,.29.24.53.53.53h17.37c2.14.06,4.53.09,7.31.09s3.13-.25,3.5-1.44c.44-1.56.81-5.5.81-6.12s-.12-1.19-.5-1.19Z"/>
    <path class="cls-1" d="M488.58,222.72h-.1s-.04-.01-.06-.01c-.45,0-.77,0-1.34-.13-.89-.19-2.87-.44-5.98-3.56-3.37-3.37-7.32-8.28-12.28-14.39,5.47-4.39,7.76-7.96,7.76-11.97,0-3.63-2.35-6.37-3.95-7.45-2.86-1.88-6.69-2.25-10.14-2.28-.01,0-.02,0-.03,0h-.43s-.02,0-.03,0c-.03,0-.07,0-.1,0h-15.36s-.05,0-.08,0c0,0,0,0,0,0h-.64c-.3,0-.54.24-.54.54s.24.54.54.54h.27s.03,0,.05,0c.83,0,.96.06,1.41.19,1.78.51,2.29,1.08,2.42,2.93.06,1.72.06,3.25.06,11.46v9.55c0,4.96,0,9.23-.25,11.52-.19,1.59-.51,2.61-1.66,2.86-.51.13-1.15.19-1.97.19-.04,0-.06,0-.09.01h-.25c-.23,0-.42.15-.5.35-.03.07-.05.14-.05.21,0,.02.01.03.01.05v.02c0,.3.24.54.54.54h16.72c.3,0,.54-.24.54-.54v-.04s0-.02,0-.03c0-.04-.02-.09-.03-.14-.06-.24-.26-.42-.51-.42h-.09s-.04-.01-.06-.01c-.7,0-1.91-.06-2.74-.19-1.72-.25-1.97-1.27-2.16-2.86-.25-2.29-.32-6.49-.32-11.52v-.76c0-.32.19-.45.45-.45l5.03.13c.38,0,.7.06,1.02.38.7.83,3.06,4.46,5.28,7.38,3.12,4.2,5.22,6.75,7.64,7.96,1.36.71,2.83,1.06,5.53,1.11.01,0,.02,0,.03,0h.38c.07,0,.13,0,.21,0h5.35s.03,0,.04,0h.46c.3,0,.54-.24.54-.54v-.09c0-.3-.24-.54-.54-.54ZM465.88,203.36c-.95.7-1.72.89-3.94.89-1.4,0-3.06-.13-4.27-.51-.38-.19-.51-.38-.51-.96v-16.1c0-.45.13-.64.51-.77.57-.13,1.91-.19,3.31-.19,3.31,0,8.53,1.97,8.53,9.61,0,4.46-1.91,6.81-3.63,8.02Z"/>
    <path class="cls-1" d="M362.93,215.48c-.37,0-.5.25-.62.81-.38,2.19-1,3.31-2.38,3.94-1.44.62-3.75.69-5.19.69-5.62,0-7.31-.81-7.44-4.44-.06-1.56,0-6.06,0-7.87v-4.25c0-.31.06-.56.31-.56,1.38,0,7.62.12,8.62.25,2.06.19,2.75,1,3.06,2.06.12.69.12,1.38.19,1.94,0,.25.12.44.5.44.5,0,.56-.75.56-1.19,0-.38.12-2.5.25-3.56.31-2.69.44-3.56.44-3.87s-.19-.56-.44-.56-.44.31-.87.69c-.5.56-1.31.69-2.63.81-1.25.13-8.37.13-9.62.13-.31,0-.38-.25-.38-.56v-13.12c0-.31.12-.5.38-.5,1.12,0,7.68.13,8.62.25,2.75.25,3.19,1,3.63,1.94.31.62.37,1.56.37,1.94,0,.44.06.69.44.69.44,0,.56-.62.63-.87.12-.62.25-2.94.31-3.5.12-2.44.44-3.06.44-3.44,0-.25-.06-.5-.37-.5-.25,0-.56.19-.88.25-.26.04-.68.12-1.17.19h-22.7s-.06,0-.09,0c-.01,0-.03,0-.04,0h-1.05c-.29,0-.53.24-.53.53s.24.53.53.53h.47s.03,0,.05,0c.4,0,.73.06,1.16.19,1.75.5,2.25,1.06,2.38,2.88.06,1.69.06,3.19.06,11.25v9.37c0,4.87,0,9.06-.25,11.31-.19,1.56-.5,2.56-1.63,2.81-.36.09-.79.15-1.31.17h-.98c-.29,0-.53.24-.53.53v.13c0,.29.24.53.53.53h16.86c2.06.05,4.41.08,7.11.08,2.06,0,2.56,0,2.94-1.38.31-1.06.75-4.69.75-5.87,0-.56-.06-1.25-.5-1.25Z"/>
    <path class="cls-1" d="M521.37,183.41c-.19,0-.63.13-1.5.25-.81.12-2,.25-3.75.25h-22.31c-1.81,0-3.87-.06-5.5-.25-1.38-.19-1.94-.62-2.38-.62-.31,0-.5.31-.62,1-.12.44-1.19,5.55-1.19,6.42,0,.56.13.87.5.87s.5-.25.62-.69c.13-.37.38-1.06.94-1.81.81-1.19,2.13-1.56,5.31-1.62l8.19-.19v21.45c0,4.86,0,9.04-.25,11.29-.19,1.56-.5,2.56-1.62,2.81-.32.09-.77.15-1.31.17h-.99c-.29,0-.53.24-.53.53v.08c0,.29.24.53.53.53h17.14c.29,0,.53-.24.53-.53v-.08c0-.29-.24-.53-.53-.53h-1.09c-.71-.02-1.52-.08-2.07-.17-1.63-.25-1.94-1.25-2.13-2.74-.25-2.31-.31-6.49-.31-11.35v-21.45l6.94.12c4.94.06,6.38,1.68,6.5,3.06l.06.56c.06.81.19,1.06.62,1.06.31,0,.44-.31.5-.87,0-1.37.13-5.3.13-6.42,0-.81-.06-1.12-.44-1.12Z"/>
    <path class="cls-1" d="M107.99,223.23c0-.14-.06-.24-.15-.33,0,0,0,0,0,0-.02-.02-.05-.04-.08-.05-.08-.06-.18-.1-.29-.1h-.11s-.07-.01-.11-.01c-.5,0-1.06-.06-1.75-.19-.94-.19-3.5-.63-7-4.25-3.69-3.87-8-9.43-13.56-16.43,6.31-5.12,8.25-9.37,8.25-14,0-4.19-2.5-7.37-4.25-8.56-3.08-2.11-6.83-2.6-10.46-2.67-.02,0-.05-.01-.07-.01h-18.41c-.29,0-.53.24-.53.53v.09c0,.29.24.53.53.53h.97c.34,0,.88.08,1.22.17,2.06.44,2.56,1.44,2.69,3.56.12,2,.12,3.75.12,13.25v11c0,5.75,0,10.69-.31,13.31-.25,1.81-.56,3.19-1.81,3.44-.56.12-1.49.25-2.42.25-.07,0-.11,0-.16.01h-.29c-.12,0-.23.05-.32.12,0,0,0,0,0,0-.03.02-.05.04-.07.07-.09.08-.15.18-.15.3,0,.02.01.03.01.05v.08c0,.29.24.53.53.53h18.41c.29,0,.53-.24.53-.53v-.09s0-.02,0-.02c0,0,0-.01,0-.02,0-.14-.06-.24-.15-.33,0,0,0,0,0,0-.02-.02-.05-.04-.08-.05-.08-.06-.18-.1-.29-.1h-.11s-.07-.01-.11-.01c-.75,0-2.12-.12-3.06-.25-1.88-.25-2.25-1.63-2.44-3.44-.31-2.62-.31-7.56-.31-13.37v-.88c0-.37.19-.5.5-.5l5.44.12c.44,0,.81.06,1.12.44.81.94,3.69,5.19,6.19,8.62,3.5,4.81,5.87,7.75,8.56,9.19,1.5.81,2.95,1.16,5.9,1.21,0,0,.15.01.22.01h7.16c.29,0,.53-.24.53-.53v-.09s0-.02,0-.02c0,0,0-.01,0-.02ZM82.12,200.36c-1.13.81-1.94,1.06-4.44,1.06-1.56,0-3.44-.19-4.75-.63-.44-.19-.56-.44-.56-1.12v-19c0-.5.12-.75.56-.87.63-.19,1.75-.25,3.31-.25,3.69,0,9.56,2.56,9.56,11.43,0,5.13-1.81,8-3.69,9.37Z"/>
    <path class="cls-1" d="M331.61,223.23c0-.14-.06-.24-.15-.33,0,0,0,0,0,0-.02-.02-.05-.04-.08-.05-.08-.06-.18-.1-.29-.1h-.11s-.07-.01-.11-.01c-.5,0-1.06-.06-1.75-.19-.94-.19-3.5-.63-7-4.25-3.69-3.87-8-9.43-13.56-16.43,6.31-5.12,8.25-9.37,8.25-14,0-4.19-2.5-7.37-4.25-8.56-3.08-2.11-6.83-2.6-10.46-2.67-.02,0-.05-.01-.07-.01h-18.41c-.29,0-.53.24-.53.53v.09c0,.29.24.53.53.53h.97c.34,0,.88.08,1.22.17,2.06.44,2.56,1.44,2.69,3.56.12,2,.12,3.75.12,13.25v11c0,5.75,0,10.69-.31,13.31-.25,1.81-.56,3.19-1.81,3.44-.56.12-1.49.25-2.42.25-.07,0-.11,0-.16.01h-.29c-.12,0-.23.05-.32.12,0,0,0,0,0,0-.03.02-.05.04-.07.07-.09.08-.15.18-.15.3,0,.02.01.03.01.05v.08c0,.29.24.53.53.53h18.41c.29,0,.53-.24.53-.53v-.09s0-.02,0-.02c0,0,0-.01,0-.02,0-.14-.06-.24-.15-.33,0,0,0,0,0,0-.02-.02-.05-.04-.08-.05-.08-.06-.18-.1-.29-.1h-.11s-.07-.01-.11-.01c-.75,0-2.12-.12-3.06-.25-1.88-.25-2.25-1.63-2.44-3.44-.31-2.62-.31-7.56-.31-13.37v-.88c0-.37.19-.5.5-.5l5.44.12c.44,0,.81.06,1.12.44.81.94,3.69,5.19,6.19,8.62,3.5,4.81,5.87,7.75,8.56,9.19,1.5.81,2.95,1.16,5.9,1.21,0,0,.15.01.22.01h7.16c.29,0,.53-.24.53-.53v-.09s0-.02,0-.02c0,0,0-.01,0-.02ZM305.74,200.36c-1.13.81-1.94,1.06-4.44,1.06-1.56,0-3.44-.19-4.75-.63-.44-.19-.56-.44-.56-1.12v-19c0-.5.12-.75.56-.87.63-.19,1.75-.25,3.31-.25,3.69,0,9.56,2.56,9.56,11.43,0,5.13-1.81,8-3.69,9.37Z"/>
    <path class="cls-1" d="M550.71,175.98c0-2.13-1.59-3.57-3.73-3.57s-3.72,1.44-3.72,3.57,1.59,3.62,3.77,3.62,3.68-1.54,3.68-3.62M542.42,176.03c0-2.53,1.94-4.37,4.57-4.37s4.57,1.84,4.57,4.37-1.94,4.32-4.57,4.32-4.57-1.89-4.57-4.32"/>
    <path class="cls-1" d="M549.65,178.26s0-.03-.02-.03c0,0,0,0,0,0,0,0,0,0,0,0,0,0-.02-.01-.03-.01h-.01s0,0-.01,0c-.05,0-.11,0-.18-.02-.1-.02-.37-.07-.74-.45-.39-.41-.84-.99-1.43-1.73.66-.54.87-.99.87-1.47,0-.44-.26-.78-.45-.9-.32-.22-.72-.27-1.1-.28,0,0,0,0,0,0h-1.94s-.06.03-.06.06h0s.03.06.06.06h.1s.09,0,.13.02c.22.05.27.15.28.37.01.21.01.39.01,1.39v1.16c0,.6,0,1.12-.03,1.4-.03.19-.06.34-.19.36-.06.01-.16.03-.25.03,0,0-.01,0-.02,0h-.03s-.02,0-.03.01c0,0,0,0,0,0,0,0,0,0,0,0,0,0-.02.02-.02.03,0,0,0,0,0,0h0s.03.06.06.06h1.94s.06-.03.06-.06h0s0-.01,0-.01c0,0,0,0,0,0,0-.01,0-.03-.02-.03,0,0,0,0,0,0,0,0,0,0,0,0,0,0-.02-.01-.03-.01h-.01s0,0-.01,0c-.08,0-.22-.01-.32-.03-.2-.03-.24-.17-.26-.36-.03-.28-.03-.8-.03-1.41v-.09s.02-.05.05-.05h.57s.09.02.12.06c.09.1.39.55.65.91.37.51.62.81.9.97.16.08.31.12.62.13,0,0,.02,0,.02,0h.75s.06-.03.06-.06h0s0-.01,0-.01c0,0,0,0,0,0ZM546.93,175.85c-.12.09-.2.11-.47.11-.16,0-.36-.02-.5-.07-.05-.02-.06-.05-.06-.12v-2c0-.05.01-.08.06-.09.07-.02.18-.03.35-.03.39,0,1.01.27,1.01,1.2,0,.54-.19.84-.39.99Z"/>
  </g>
</svg>