<svg width="105" height="26" fill="none" xmlns="http://www.w3.org/2000/svg"><path d="M104.15 7.712s-.06 0-.18-.16l-.16-.2c.14-.11.17-.19.17-.28 0-.09-.24-.26-.4-.26h-.37c.08 0 .11 0 .11.07v.72c0 .04 0 .06-.1.06h.38-.09v-.29h.17l.13.18c.14.19.21.18.33.18h.07s-.04-.02-.06-.02zm-.44-.42a.14.14 0 01-.09 0 .26.26 0 01-.14 0v-.37a.13.13 0 01.08 0 .217.217 0 01.169.057.24.24 0 01.053.074.227.227 0 01.018.089c0 .04-.04.09-.09.11v.04z" fill="#F2F2F2"/><path d="M103.63 6.452a.831.831 0 10.08 1.66.831.831 0 00-.08-1.66zm0 1.51a.682.682 0 01-.72-.69.71.71 0 11.72.69zm-66.78 4.26a1.82 1.82 0 01-1-.63c-.55-.56-1.18-1.38-2-2.41a2.58 2.58 0 001.22-2 1.57 1.57 0 00-.63-1.26 2.93 2.93 0 00-1.69-.4H30.2c-.14 0-.2 0-.2.09s.05.08.16.08a1.69 1.69 0 01.34.02c.31.06.38.21.4.52.02.31 0 .55 0 1.94v3.54c0 .43-.08.46-.27.5a1.34 1.34 0 01-.33 0c-.11 0-.14 0-.14.07s.06.09.18.09h2.47c.12 0 .18-.03.18-.09 0-.05 0-.07-.11-.07h-.45c-.27 0-.33-.24-.35-.5-.02-.26 0-1.12 0-2v-.1a.06.06 0 01.041-.068.06.06 0 01.029-.002h.8a.21.21 0 01.17.06c.12.14.54.76.91 1.27.32.531.745.99 1.25 1.35a1.88 1.88 0 001 .17h.87c.11 0 .17 0 .17-.09s0-.07-.11-.07l-.36-.01zm-3.43-3.26a.9.9 0 01-.65.16 2.63 2.63 0 01-.7-.09c-.06 0-.08-.07-.08-.17v-2.79c0-.07 0-.11.08-.13a1.87 1.87 0 01.49 0 1.47 1.47 0 011.4 1.68 1.6 1.6 0 01-.54 1.34z" fill="#F2F2F2"/><path d="M39.9 6.402a3.09 3.09 0 00-3.4 3.06 3 3 0 003.3 3.05 3.15 3.15 0 003.39-3.19c.02-1.79-1.25-2.92-3.29-2.92zm.25 5.69c-1.52 0-2.44-1.27-2.44-2.87 0-1.93 1.06-2.41 2-2.41 1.3 0 2.34 1.07 2.34 2.79-.04 2.22-1.33 2.49-1.9 2.49zm7.27.24s-.05-.08-.14-.08a2.81 2.81 0 01-.4 0c-.24 0-.32-.18-.33-.41-.01-.23 0-.66 0-.78v-.63a1.81 1.81 0 01.1-.78 24 24 0 011.57-2.49 1 1 0 01.77-.46c.09 0 .15 0 .15-.1s0-.06-.14-.06h-1.65c-.1 0-.14 0-.14.07s.07.08.14.1c.07.02.18.1.18.17a1 1 0 01-.12.41c-.12.24-1.1 1.91-1.2 2.1-.14-.22-1.2-2-1.34-2.29a.53.53 0 01-.1-.27c0-.06 0-.1.11-.12.11-.02.18 0 .18-.1s0-.07-.12-.07h-1.92c-.1 0-.15 0-.15.07s0 .09.12.09a.74.74 0 01.34.1c.212.143.39.33.52.55.28.41 1.39 2.13 1.44 2.25.133.249.195.529.18.81v1.43c0 .33-.09.37-.25.41a1.173 1.173 0 01-.29 0c-.09 0-.12 0-.12.08s.06.08.17.08h2.26c.11 0 .18-.03.18-.08zm.68-.09h-.24c-.06 0-.09 0-.09.08s0 .08.15.08h1.83c.08 0 .13 0 .13-.08s0-.08-.12-.08h-.12c-.25 0-.32-.09-.32-.22a1.44 1.44 0 01.12-.48l.43-1.05s0-.05.07-.05h1.9a.09.09 0 01.09.05l.62 1.57a.13.13 0 01-.025.15.13.13 0 01-.045.03c-.09 0-.1 0-.1.08s.09.05.24.06h1.55c.29 0 .34 0 .34-.08s0-.08-.11-.08h-.3c-.14 0-.37-.13-.69-.84-.51-1.18-1.86-4.37-2-4.81-.08-.17-.12-.24-.24-.24s-.15.09-.24.31l-2.11 4.91c-.22.39-.32.63-.72.69zm2.76-4.25v-.08.08l.77 2h-1.52v-.06l.75-1.94zm8.27 4.23c.06-.297.1-.598.12-.9 0-.09 0-.17-.07-.17s-.09 0-.1.11a.87.87 0 01-.2.47c-.2.21-.51.22-.94.22-.63 0-.94 0-1.08-.16-.14-.16-.17-.64-.17-1.65v-3.02c0-.24.08-.39.3-.43h.31c.1 0 .15-.03.15-.09 0-.05-.06-.07-.18-.07H55c-.12 0-.18 0-.18.07s0 .09.14.09h.27c.25.08.33.16.35.43v4.67c0 .33-.08.37-.24.41a1.084 1.084 0 01-.28 0c-.11 0-.13 0-.13.08s0 .08.15.08h3.55c.41.07.44.03.5-.14zm9.54.19h.83c.11 0 .17 0 .17-.09s0-.07-.11-.07h-.25a1.8 1.8 0 01-1-.63c-.54-.56-1.18-1.38-2-2.41a2.59 2.59 0 001.21-2 1.599 1.599 0 00-.62-1.26 3 3 0 00-1.69-.4h-2.56c-.13 0-.2 0-.2.09s.06.08.16.08c.12-.012.24-.012.36 0 .3.06.37.21.39.52.02.31 0 .55 0 1.94v1.53c0 .84 0 1.57-.05 2-.05.43-.08.46-.26.5a1.34 1.34 0 01-.33 0c-.11 0-.15 0-.15.07s.06.09.18.09h2.47c.12 0 .19 0 .19-.09s0-.07-.11-.07h-.45c-.28 0-.33-.24-.36-.5-.03-.26 0-1.12 0-2v-.1s0-.07.08-.07h.79a.21.21 0 01.17.06c.12.14.54.76.91 1.27.32.534.749.994 1.26 1.35.3.152.635.217.97.19zm-2.76-3.45a.9.9 0 01-.65.16 2.5 2.5 0 01-.69-.09c-.07 0-.09-.07-.09-.17v-2.79a.11.11 0 01.09-.13c.16-.022.32-.022.48 0a1.47 1.47 0 011.45 1.64 1.6 1.6 0 01-.59 1.38zm8.14 3.27c.062-.283.099-.57.11-.86 0-.09 0-.19-.07-.19s-.07 0-.09.12c-.06.32-.15.49-.35.58a2.208 2.208 0 01-.76.1c-.83 0-1.08-.12-1.09-.65v-1.86h1.27c.15 0 .4.15.45.31.05.16 0 .2 0 .28 0 .08 0 .06.07.06s.08-.11.08-.17v-.52c0-.4.06-.53.06-.57 0-.04 0-.09-.06-.09s-.07.05-.13.11-.19.1-.39.12h-1.3v-2.04h1.27c.4 0 .47.14.53.28a.66.66 0 010 .29c0 .06 0 .1.07.1s.08-.1.09-.13c.01-.03 0-.43 0-.52.004-.168.024-.336.06-.5v-.07h-.13c-.07 0-.2 0-.34.05h-3.32c-.12 0-.18 0-.18.07s0 .09.13.09h.32c.26.08.33.16.35.43.02.27 0 .46 0 1.65v3.04c0 .33-.08.37-.24.41a1.173 1.173 0 01-.29 0c-.1 0-.13 0-.13.08s.06.08.16.08h3.44c.28.12.36.12.41-.08zm1.36.08c.419.153.864.221 1.31.2.472.034.943-.078 1.35-.32a1.66 1.66 0 00.81-1.48c0-.7-.33-1.3-1.4-1.89l-.33-.11c-.72-.41-.85-.68-.85-1 0-.53.52-.84 1.1-.84a1.11 1.11 0 01.9.37.84.84 0 01.2.47c0 .09 0 .13.08.13s.11-.08.11-.24v-.94c0-.1 0-.08-.11-.1a4.47 4.47 0 00-1.08-.16c-1.12 0-2 .62-2 1.57 0 .69.31 1.21 1.26 1.77l.47.28c.72.42.8.76.8 1.1a1 1 0 01-1.12 1 1.24 1.24 0 01-1.28-.77 1.342 1.342 0 01-.08-.41s0-.12-.08-.12-.1.08-.1.2v1c-.12.2-.09.24.04.29zm7.69-5.91a3.09 3.09 0 00-3.38 3.06 3 3 0 003.3 3.05 3.149 3.149 0 003.39-3.19c0-1.79-1.27-2.92-3.31-2.92zm.25 5.69c-1.52 0-2.44-1.27-2.44-2.87 0-1.93 1.06-2.41 2-2.41 1.3 0 2.34 1.07 2.34 2.79-.04 2.22-1.33 2.49-1.9 2.49zm9.68.16a.68.68 0 01-.19 0 1.52 1.52 0 01-.86-.52c-.49-.48-1.06-1.19-1.78-2.07.79-.63 1.12-1.15 1.12-1.73a1.371 1.371 0 00-.57-1.07 2.84 2.84 0 00-1.53-.33h-2.36c-.12 0-.18 0-.18.07s0 .09.14.09h.32c.26.08.33.16.35.43.02.27 0 .46 0 1.65v3.04c0 .33-.07.37-.24.41a1.002 1.002 0 01-.28 0c-.1 0-.13 0-.13.08s0 .08.15.08h2.25c.1 0 .17 0 .17-.08a.09.09 0 00-.1-.08 2.67 2.67 0 01-.4 0c-.25 0-.28-.18-.31-.41-.03-.23 0-.94 0-1.67v-.11s0-.06.07-.06h.72a.21.21 0 01.15 0c.1.12.44.65.76 1.07.284.455.659.846 1.1 1.15.276.124.579.176.88.15h.78c.1 0 .15 0 .15-.08s-.11-.01-.18-.01zm-3.25-2.79a.83.83 0 01-.57.12 2 2 0 01-.61-.07c-.06 0-.08-.05-.08-.14v-2.32a.1.1 0 01.08-.11c.16-.014.32-.014.48 0a1.23 1.23 0 011.22 1.39 1.33 1.33 0 01-.52 1.13zm7.92-3h-.22a3.25 3.25 0 01-.55 0h-3.27a6.84 6.84 0 01-.81 0c-.2 0-.29-.09-.35-.09s-.07 0-.09.15a9.29 9.29 0 00-.18.94c0 .08 0 .13.08.13s.07 0 .09-.1a.858.858 0 01.14-.27c.11-.17.31-.23.78-.23h1.2v4.82c0 .33-.07.37-.24.41a1.002 1.002 0 01-.28 0c-.1 0-.13 0-.13.08s0 .08.16.08h2.35c.1 0 .16 0 .16-.08s0-.08-.13-.08a2.75 2.75 0 01-.41 0c-.24 0-.29-.18-.31-.4-.02-.22-.05-1-.05-1.68v-3.15h1c.72 0 .94.24.95.45v.08c0 .12 0 .15.1.15s.06 0 .07-.12c.01-.12 0-.78 0-.95 0-.17 0-.14-.06-.14zm2.98 2.38l-.33-.18c-.73-.41-.85-.68-.85-1 0-.53.52-.84 1.1-.84a1.112 1.112 0 01.9.37.898.898 0 01.21.52c0 .09 0 .13.08.13s.1-.08.1-.24v-.94c0-.1 0-.08-.11-.1a4.57 4.57 0 00-1.15-.13c-1.12 0-2 .62-2 1.57 0 .69.32 1.21 1.27 1.77l.47.28c.71.42.8.76.8 1.1a.994.994 0 01-.334.753 1.004 1.004 0 01-.786.247 1.25 1.25 0 01-1.29-.77 1.682 1.682 0 01-.07-.41s0-.12-.08-.12-.11.08-.11.2v1c0 .18 0 .22.15.27a3.4 3.4 0 001.32.2 2.33 2.33 0 001.35-.32 1.67 1.67 0 00.8-1.46c-.05-.71-.38-1.31-1.44-1.9zm-50.55 6.58l-.48.42a1.111 1.111 0 00-.94-.4 1.3 1.3 0 00-1.3 1.21.94.94 0 00.3.72c.34.35.69.48 1 .78a.9.9 0 01.27.65.869.869 0 01-.9.84c-.68 0-1.06-.9-1-1.77h-.12l-.46 1.84h.12l.55-.46a1.29 1.29 0 001 .49 1.4 1.4 0 001.48-1.33 1.29 1.29 0 00-.39-.87c-.33-.34-.7-.44-1.06-.79a.71.71 0 01-.23-.52.76.76 0 01.79-.71c.62 0 1 .58 1 1.5h.09l.35-1.61-.07.01zm1.71 3.29c-.14.47-.5 1-.7 1a.18.18 0 01-.18-.18c0-.42.6-1.36.6-1.86s-.2-.62-.45-.62-.71.33-.92 1h.12c.15-.5.47-.9.73-.9a.17.17 0 01.14.18c0 .36-.6 1.33-.6 1.84s.2.61.48.61c.28 0 .73-.58.89-1.07h-.11zm-.15-3.27a.38.38 0 00-.35.41.29.29 0 00.27.31.39.39 0 00.36-.4.3.3 0 00-.28-.32zm2.94 1.21c-.22 0-.35.21-.41.43a.88.88 0 00-.45-.11 1.13 1.13 0 00-1.12 1 .86.86 0 00.42.78c-.62.18-.87.44-.87.76s.15.41.47.47c-.63.18-.82.44-.82.67 0 .23.52.54 1.11.54 1 0 1.48-.34 1.48-.93 0-.43-.32-.76-.93-.76h-.45c-.24 0-.53-.07-.53-.27s.33-.35.69-.44c.1.013.2.013.3 0a1.11 1.11 0 001.11-1 .77.77 0 00-.32-.66c0-.09.06-.16.11-.16s.12.14.26.14.18-.12.18-.26a.21.21 0 00-.23-.2zm-1.42 3.37h.29c.48 0 .7.19.7.42 0 .47-.64.62-1.15.62-.51 0-.86-.14-.86-.5s.39-.54 1.02-.54zm.29-1.31a.42.42 0 01-.43-.46c0-.08.11-1.22.72-1.22.29 0 .42.18.42.51-.01.07-.06 1.17-.71 1.17zm4.07.91c-.07 0-.12 0-.12-.16.048-.284.135-.56.26-.82a3.33 3.33 0 00.25-1c0-.39-.19-.69-.52-.69-.51 0-.87.65-1.12 1.09.038-.184.062-.372.07-.56 0-.33-.13-.53-.39-.53-.45 0-.8.7-1 1.19h.13c.2-.56.51-1 .74-1 .23 0 .12.07.12.16a.82.82 0 010 .21l-.62 2.2h.48c.46-1.64 1.11-2.6 1.51-2.6.1 0 .21.06.21.25-.04.309-.128.609-.26.89a2.72 2.72 0 00-.27 1c0 .29.14.51.37.51.47 0 .8-.46 1-1h-.1c-.26.66-.63.86-.74.86zm3.38 0c-.08 0-.12-.06-.12-.17a.64.64 0 010-.22l.6-2.21h-.41l-.17.5c-.06-.34-.21-.53-.52-.53a2.17 2.17 0 00-1.55 2 .73.73 0 00.67.79 1.27 1.27 0 001-.79 1.002 1.002 0 000 .28c0 .32.15.51.4.51.4 0 .7-.43.85-1h-.11c-.09.4-.44.84-.64.84zm-.88-.26a.89.89 0 01-.49.28c-.15 0-.28-.1-.28-.4.094-.715.35-1.4.75-2a.52.52 0 01.36-.16c.18 0 .38.18.38.5a3.33 3.33 0 01-.72 1.78zm3.32-3.31h-.47l-.29 1h-.49v.17h.49l-.51 1.82a.89.89 0 000 .22.41.41 0 00.43.45c.52 0 .85-.56 1-.94h-.11c-.22.52-.59.82-.77.82-.18 0-.14-.07-.14-.17a.295.295 0 010-.09l.57-2.11h.4v-.17h-.4l.29-1zm2.79 3.57c-.1 0-.14-.06-.14-.16a.926.926 0 010-.25l.59-2.18h-.46c-.61 2.26-1.34 2.62-1.52 2.62-.18 0-.2-.11-.2-.27a2.77 2.77 0 01.26-.87c.144-.316.232-.654.26-1 0-.33-.14-.49-.38-.49-.39 0-.81.46-1 1.06h.13c.18-.63.59-.9.71-.9s.12.07.12.17a2.93 2.93 0 01-.26.81c-.14.3-.228.62-.26.95 0 .38.18.67.54.67.36 0 .85-.55 1.13-1.13a3.01 3.01 0 00-.08.57c0 .4.15.56.39.56.45 0 .74-.54 1-1.15h-.12c-.2.61-.52.99-.71.99zm3.07-2.65c-.35 0-.61.63-.81 1.1a4 4 0 00.06-.55c0-.31-.14-.54-.4-.54s-.62.48-.82 1h.13c.18-.58.45-.91.61-.91.16 0 .14.05.14.2a1.938 1.938 0 01-.08.42l-.58 2.02h.44c.49-1.43.91-2.59 1.17-2.59 0 0 .06 0 .06.07s-.08.12-.08.26a.23.23 0 00.23.24c.16 0 .26-.2.26-.37a.33.33 0 00-.33-.35zm2.5.47a.48.48 0 00-.51-.46 2.18 2.18 0 00-1.64 2 .69.69 0 00.71.78 1.55 1.55 0 001.3-.9h-.11a1.45 1.45 0 01-1 .78c-.2 0-.34-.14-.34-.43.014-.26.064-.515.15-.76.8-.26 1.44-.47 1.44-1.01zm-.57-.35c.14 0 .25.11.25.3a.91.91 0 01-.26.54 2 2 0 01-.88.41c.21-.75.5-1.25.89-1.25zm5.68-1.23a1 1 0 00-.84-.42 2.74 2.74 0 00-2.41 2.74 1.479 1.479 0 001.61 1.53 1.74 1.74 0 001.57-1h-.12a1.55 1.55 0 01-1.33.9c-.55 0-.93-.38-.93-1.13a4.62 4.62 0 01.89-2.66 1 1 0 01.75-.32c.53 0 .9.49 1 1.57h.09l.27-1.66-.55.45zm1.02-.28h.2a.259.259 0 01.27.29.994.994 0 010 .16l-.77 3c-.01.06-.01.12 0 .18a.46.46 0 00.46.5c.37 0 .69-.45.87-1h-.11c-.1.39-.4.87-.65.87-.09 0-.12-.08-.12-.21a1.4 1.4 0 010-.27l.92-3.56v-.06h-1l-.07.1zm3.69 4.04c-.1 0-.13-.06-.13-.16a1.41 1.41 0 010-.25l.6-2.18h-.47c-.6 2.26-1.34 2.62-1.52 2.62-.18 0-.2-.11-.2-.27a2.58 2.58 0 01.27-.87c.144-.316.232-.654.26-1 0-.33-.14-.49-.39-.49s-.81.46-1 1.06h.13c.19-.63.59-.9.71-.9s.12.07.12.17c-.047.28-.131.552-.25.81-.14.3-.228.62-.26.95 0 .38.18.67.54.67.36 0 .84-.55 1.13-1.13a3.222 3.222 0 00-.09.57c0 .4.16.56.39.56.45 0 .74-.54 1-1.15h-.11c-.22.61-.54.99-.73.99zm2.93-2.63c-.29 0-.56.19-.83.6l.59-2.1h-1v.09h.09c.24 0 .36.11.36.28.005.05.005.1 0 .15l-.86 2.7a1.002 1.002 0 000 .28.769.769 0 00.8.81c.91 0 1.56-1.08 1.56-1.81s-.38-1-.71-1zm-.42 2.48a.64.64 0 01-.44.19.38.38 0 01-.38-.43 3.76 3.76 0 01.74-1.88.82.82 0 01.49-.26c.18 0 .31.14.31.39a4.47 4.47 0 01-.76 1.99h.04zm-73.29-8.57l-3.72 1.81h5.64l-1.92-1.81zm2.12 7.65v-5.64l-1.82 1.92 1.82 3.72zm-3.42-2.42l1.34-1.34-.75-.37-.59 1.71zm1.71-6.25l-1.71-.59 1.34 1.35.37-.76zm5.13-.59l-1.35 1.35.76.36.59-1.71zm-3.42-2.42v5.64l1.81-1.92-1.81-3.72zm1.7 8.67l1.72.59-1.35-1.34-.37.75z" fill="#F2F2F2"/><path d="M24.63 12.862a1.91 1.91 0 00-.34-3 1.81 1.81 0 01-.57-1.77 1.89 1.89 0 00-.11-1.7 1.91 1.91 0 00-1.44-.94 1.81 1.81 0 01-1.24-1.38 1.92 1.92 0 00-2.43-1.82 1.8 1.8 0 01-1.69-.75 1.9 1.9 0 00-1.35-1.06h-.09a1.84 1.84 0 00-1.54.46 1.86 1.86 0 01-1.86 0 1.92 1.92 0 00-3 .65 1.83 1.83 0 01-1.7.75 1.91 1.91 0 00-1.59.23l-.07.05a1.9 1.9 0 00-.78 1.53 1.82 1.82 0 01-1.33 1.36 1.92 1.92 0 00-1.42.95 1.88 1.88 0 00-.1 1.71 1.8 1.8 0 01-.57 1.76 1.91 1.91 0 00-.91 1.45v.09a1.87 1.87 0 00.62 1.49 1.84 1.84 0 01.19 1.84 1.88 1.88 0 00-.24 1.69 1.85 1.85 0 001.21 1.26 1.84 1.84 0 01.92 1.61 1.88 1.88 0 00.39 1.56l.06.06a1.89 1.89 0 001.6.62 1.83 1.83 0 011.5 1.09 1.87 1.87 0 001.09 1.31 1.91 1.91 0 001.71-.08 1.82 1.82 0 011.81.38 1.89 1.89 0 001.54.76h.11a1.92 1.92 0 001.42-.77 1.84 1.84 0 011.81-.39 1.851 1.851 0 001.7.07 1.88 1.88 0 001.09-1.33 1.82 1.82 0 011.47-1.09 1.9 1.9 0 001.51-.55l.06-.06a1.88 1.88 0 00.46-1.66 1.83 1.83 0 01.92-1.6 1.881 1.881 0 001.19-1.22 1.85 1.85 0 00-.21-1.71 1.82 1.82 0 01.2-1.85zm-1.6 0a1.31 1.31 0 00-.14 1.33 1.84 1.84 0 01.23 1.52 1.81 1.81 0 01-1.12 1.17 1.33 1.33 0 00-.67 1.14 1.82 1.82 0 01-.44 1.58h-.05a1.84 1.84 0 01-1.29.54h-.15a1.29 1.29 0 00-1.08.77 1.84 1.84 0 01-1.81 1.443c-.28 0-.557-.062-.81-.183a1.32 1.32 0 00-1.3.27 1.832 1.832 0 01-1.36.72h-.12a1.84 1.84 0 01-1.44-.7 1.31 1.31 0 00-1.3-.28 1.84 1.84 0 01-2.68-1.11 1.33 1.33 0 00-1.07-.79 1.79 1.79 0 01-1.52-.6l-.07-.08a1.84 1.84 0 01-.38-1.47 1.3 1.3 0 00-.65-1.15 1.83 1.83 0 01-.92-2.77 1.34 1.34 0 00-.14-1.33 1.84 1.84 0 01-.58-1.42v-.1a1.84 1.84 0 01.86-1.38 1.32 1.32 0 00.39-1.27 1.87 1.87 0 01.1-1.63 1.84 1.84 0 011.34-.9 1.31 1.31 0 00.89-1 1.8 1.8 0 01.75-1.41h.06a1.84 1.84 0 011.5-.23h.12a1.32 1.32 0 001.1-.54 1.84 1.84 0 012.11-.984c.271.068.524.196.74.374a1.32 1.32 0 001.33 0 1.82 1.82 0 011.47-.42h.09a1.83 1.83 0 011.3 1 1.29 1.29 0 001.21.55 1.84 1.84 0 012.36 1.69 1.33 1.33 0 00.9 1 1.84 1.84 0 011.47 2.51 1.3 1.3 0 00.41 1.27 1.839 1.839 0 01.32 2.89l.04-.02z" fill="#F2F2F2"/><path d="M22.5 10.282a1.78 1.78 0 01-.55-1.7 1.37 1.37 0 00-.08-1.26 1.4 1.4 0 00-1.06-.69 1.76 1.76 0 01-1.31-1.41 1.42 1.42 0 00-1.83-1.32h-.05a1.73 1.73 0 01-1.62-.72 1.37 1.37 0 00-1-.78h-.3a1.4 1.4 0 00-.93.35 1.75 1.75 0 01-1.78 0 1.42 1.42 0 00-2.21.48 1.71 1.71 0 01-1.45.73H8a1.38 1.38 0 00-1.17.17h-.05a1.4 1.4 0 00-.6 1.14v.05A1.75 1.75 0 015 6.642h-.05a1.4 1.4 0 00-1 .69 1.42 1.42 0 00-.07 1.27 1.75 1.75 0 01-.54 1.69 1.37 1.37 0 00-.67 1.06v.08a1.38 1.38 0 00.45 1.1 1.75 1.75 0 01.19 1.77 1.42 1.42 0 00.71 2.15 1.73 1.73 0 01.89 1.54 1.41 1.41 0 00.29 1.15 1.44 1.44 0 001.19.47 1.79 1.79 0 011.44 1v.05a1.41 1.41 0 002.07.94c.185-.058.377-.088.57-.09a1.81 1.81 0 011.17.45 1.4 1.4 0 001.11.56h.09a1.37 1.37 0 001.06-.56 1.74 1.74 0 011.74-.38 1.431 1.431 0 002.07-.93v-.05a1.78 1.78 0 011.44-1h.05a1.43 1.43 0 001.3-.19 1.41 1.41 0 00.35-1.24v-.05a1.73 1.73 0 01.89-1.54 1.39 1.39 0 00.88-.9 1.42 1.42 0 00-.12-1.31 1.75 1.75 0 01.19-1.77 1.402 1.402 0 00.43-1.18 1.38 1.38 0 00-.62-1.14zm-5.39 3.43l-1.2.58.2.57.53 1.54-1.54-.49-.6-.2-.58 1.19-1 2.13-1-2.13-.63-1.19-.58.19-1.54.53.53-1.54.2-.57-1.2-.61-2.12-1 2.12-1 1.2-.58-.2-.57-.53-1.54 1.54.53.58.19.58-1.19 1-2.13 1 2.13.63 1.16.57-.19 1.54-.53-.53 1.54-.2.57 1.2.58 2.13 1-2.1 1.03z" fill="#F2F2F2"/><path d="M15.03 14.522l3.72-1.81h-5.64l1.92 1.81z" fill="#F2F2F2"/></svg>