<svg width="22" height="21" viewBox="0 0 22 21" fill="none" xmlns="http://www.w3.org/2000/svg">
    <g id="Vector">
        <path d="M19.2861 2.40823C19.1458 2.44426 19.0138 2.47669 18.8835 2.51271C17.5584 2.87749 16.2332 3.24498 14.9071 3.60705C14.7934 3.63768 14.7503 3.67821 14.7512 3.8034C14.7585 5.00763 14.7604 6.21275 14.7576 7.41697C14.7576 7.86642 14.4935 8.17085 14.0515 8.25912C13.6048 8.34739 13.1812 8.16275 13.0326 7.78536C12.973 7.63314 12.9574 7.4566 12.9565 7.29088C12.9519 6.10107 12.9537 4.91215 12.9601 3.72234C12.9601 3.59715 12.9189 3.55031 12.7997 3.51788C11.8138 3.25218 10.8307 2.98107 9.84667 2.71087C9.41014 2.59107 8.97362 2.46858 8.53709 2.34789C8.50132 2.33798 8.46556 2.33258 8.42154 2.32357C8.41787 2.3614 8.4142 2.38752 8.4142 2.41274C8.41787 4.03758 8.42337 5.66243 8.42429 7.28728C8.42612 9.94431 8.42521 12.6013 8.42521 15.2584C8.42521 15.3638 8.42337 15.4682 8.41695 15.5736C8.41328 15.6367 8.43438 15.6664 8.49857 15.6853C8.82047 15.779 9.14052 15.8781 9.4615 15.9744C9.93104 16.1158 10.2135 16.4752 10.1979 16.9139C10.1832 17.3291 9.89711 17.6767 9.48901 17.756C9.39731 17.774 9.28909 17.7641 9.20013 17.7344C8.68749 17.5642 8.17943 17.3795 7.66678 17.2102C7.57966 17.1814 7.4687 17.176 7.38066 17.2012C6.45808 17.466 5.53917 17.7389 4.61842 18.0091C3.6289 18.3 2.63754 18.5873 1.64893 18.881C1.20965 19.0116 0.719019 18.8927 0.463155 18.5882C0.31734 18.4144 0.280657 18.2108 0.27974 17.9992C0.276071 17.3309 0.278822 16.6635 0.278822 15.9952C0.278822 11.6754 0.278822 7.35573 0.278822 3.03692C0.278822 2.54784 0.58696 2.18756 1.13445 2.03355C2.12031 1.75703 3.10708 1.47962 4.09294 1.20311C5.13749 0.909485 6.18112 0.613158 7.2275 0.325837C7.46503 0.260087 7.70805 0.267292 7.95016 0.338447C9.65959 0.840132 11.3709 1.33821 13.0803 1.8372C13.2958 1.90024 13.5086 1.9741 13.7259 2.02904C13.8094 2.04976 13.9093 2.05336 13.9919 2.02904C14.632 1.8453 15.2703 1.65255 15.9085 1.46341C16.7009 1.22833 17.4923 0.993249 18.2847 0.760871C18.8001 0.609555 19.3127 0.448331 19.8336 0.320433C20.1895 0.233066 20.5398 0.267292 20.825 0.543804C21.0011 0.714936 21.0772 0.923896 21.0845 1.16078C21.0891 1.28868 21.0864 1.41567 21.0864 1.54357C21.0873 3.78359 21.0891 6.02451 21.09 8.26452C21.09 8.72117 20.8644 9.02831 20.449 9.13639C19.9253 9.2733 19.4246 9.00489 19.3136 8.51942C19.2871 8.40413 19.2834 8.28164 19.2834 8.16185C19.2834 6.31543 19.2843 4.46901 19.2861 2.6226C19.2861 2.55685 19.2861 2.4902 19.2861 2.40823ZM6.62132 2.41454C6.58005 2.42174 6.55437 2.42445 6.52961 2.43075C6.10684 2.54604 5.68498 2.66133 5.26221 2.77662C4.24517 3.05583 3.22814 3.33595 2.2111 3.61246C2.11756 3.63768 2.07721 3.6746 2.07904 3.77999C2.08821 4.28978 2.08913 4.80047 2.08913 5.31026C2.0873 9.1445 2.08454 12.9787 2.08271 16.8139C2.08271 16.8391 2.0873 16.8634 2.09096 16.8976C2.13498 16.8886 2.17258 16.8841 2.20835 16.8742C2.91633 16.6779 3.6234 16.4788 4.33138 16.2843C5.0577 16.0843 5.78586 15.8871 6.5131 15.6916C6.59105 15.6709 6.63049 15.6412 6.6204 15.5538C6.6094 15.4646 6.6149 15.3737 6.6149 15.2836C6.61673 11.0323 6.61765 6.78199 6.61948 2.53073C6.61948 2.4947 6.61948 2.45867 6.61948 2.41274L6.62132 2.41454Z"
              fill="#180B01"/>
        <path d="M21.9998 15.3674C21.9998 16.831 22.0016 18.2946 21.9961 19.7582C21.9961 19.9087 21.9759 20.069 21.92 20.2086C21.7714 20.5806 21.4578 20.7202 21.0717 20.7211C19.9327 20.7238 18.7946 20.7211 17.6556 20.7211C15.8141 20.7211 13.9726 20.7211 12.1302 20.722C11.9413 20.722 11.7569 20.7076 11.5864 20.6157C11.2764 20.4482 11.1526 20.1771 11.1379 19.8447C11.137 19.8186 11.137 19.7925 11.137 19.7663C11.137 16.8319 11.137 13.8974 11.137 10.9621C11.137 10.5054 11.3736 10.1866 11.79 10.0866C11.889 10.0632 11.9935 10.0515 12.0953 10.0515C15.0795 10.0497 18.0637 10.0488 21.0478 10.0515C21.4101 10.0515 21.7201 10.1677 21.8888 10.509C21.9392 10.6108 21.964 10.7297 21.9787 10.8432C21.9961 10.9837 21.9952 11.1278 21.9952 11.2701C21.9961 12.6365 21.9952 14.0019 21.9952 15.3683H21.997L21.9998 15.3674ZM17.474 14.1487C17.6079 14.0262 17.7188 13.9119 17.8417 13.8137C18.1178 13.593 18.4259 13.5408 18.7506 13.6984C19.077 13.8569 19.2605 14.1163 19.2788 14.4811C19.2935 14.7693 19.1449 14.9819 18.9514 15.1728C18.4525 15.6646 17.9555 16.1582 17.4501 16.6427C17.2933 16.7941 17.1145 16.9238 16.9393 17.0562C16.7944 17.166 16.6248 17.1823 16.4487 17.1543C16.2323 17.1192 16.0589 17.0093 15.9067 16.8607C15.5197 16.4824 15.1299 16.1059 14.7448 15.7258C14.5137 15.4971 14.2697 15.2764 14.0634 15.0269C13.6709 14.5522 13.8671 13.8884 14.4504 13.6705C14.8319 13.5273 15.152 13.6444 15.428 13.9173C15.4986 13.9875 15.572 14.0542 15.6554 14.1334C15.6609 14.0875 15.6664 14.0587 15.6664 14.0298C15.6646 13.3435 15.6582 12.6563 15.6618 11.97C15.6618 11.8511 15.6233 11.8286 15.5124 11.8286C14.6989 11.8322 13.8846 11.8304 13.0711 11.8304C13.0344 11.8304 12.9968 11.834 12.9455 11.8367C12.9455 11.9177 12.9455 11.9916 12.9455 12.0663C12.9455 14.3064 12.9464 16.5464 12.9473 18.7864C12.9473 18.953 12.9198 18.9449 13.1041 18.9449C15.3922 18.9449 17.6812 18.9458 19.9694 18.9467C20.04 18.9467 20.1106 18.9467 20.1876 18.9467C20.1876 18.89 20.1876 18.8521 20.1876 18.8152C20.1876 16.523 20.1867 14.2298 20.1895 11.9375C20.1895 11.8358 20.1427 11.8304 20.0647 11.8304C19.2394 11.8313 18.414 11.8304 17.5886 11.8304C17.5519 11.8304 17.5143 11.834 17.4722 11.8367V14.1487H17.474Z"
              fill="#180B01"/>
        <path d="M6.62132 2.41454C6.62132 2.46047 6.62132 2.4965 6.62132 2.53253C6.61948 6.78379 6.61857 11.0341 6.61673 15.2854C6.61673 15.3755 6.61123 15.4664 6.62223 15.5556C6.63232 15.643 6.59381 15.6727 6.51494 15.6934C5.78678 15.8889 5.05954 16.0861 4.33321 16.2861C3.62523 16.4806 2.91725 16.6797 2.21018 16.876C2.17442 16.8859 2.13682 16.8904 2.0928 16.8994C2.08913 16.8652 2.08454 16.84 2.08454 16.8157C2.08638 12.9814 2.08913 9.1472 2.09096 5.31206C2.09096 4.80227 2.09005 4.29158 2.08088 3.78179C2.07904 3.67641 2.11939 3.63948 2.21294 3.61426C3.23089 3.33685 4.24701 3.05763 5.26405 2.77842C5.6859 2.66223 6.10867 2.54784 6.53144 2.43255C6.55621 2.42625 6.58188 2.42355 6.62315 2.41634L6.62132 2.41454Z"
              fill="white"/>
    </g>
</svg>
