<svg xmlns="http://www.w3.org/2000/svg" width="24" height="25" viewBox="0 0 24 25" fill="currentColor">
    <path
            d="M13.975 22.075C13.675 22.375 13.3125 22.525 12.8875 22.525C12.4625 22.525 12.1 22.375 11.8 22.075L2.425 12.7C2.25833 12.5333 2.14583 12.3583 2.0875 12.175C2.02917 11.9917 2 11.8 2 11.6V4C2 3.56667 2.14167 3.20833 2.425 2.925C2.70833 2.64167 3.06667 2.5 3.5 2.5H11.1C11.3 2.5 11.5 2.52917 11.7 2.5875C11.9 2.64583 12.0833 2.75833 12.25 2.925L21.575 12.25C21.8917 12.5667 22.05 12.9375 22.05 13.3625C22.05 13.7875 21.8917 14.1583 21.575 14.475L13.975 22.075ZM12.95 21.05L20.55 13.45L11.1 4H3.5V11.6L12.95 21.05ZM6.125 7.9C6.475 7.9 6.77917 7.77083 7.0375 7.5125C7.29583 7.25417 7.425 6.95 7.425 6.6C7.425 6.25 7.29583 5.94583 7.0375 5.6875C6.77917 5.42917 6.475 5.3 6.125 5.3C5.775 5.3 5.47083 5.42917 5.2125 5.6875C4.95417 5.94583 4.825 6.25 4.825 6.6C4.825 6.95 4.95417 7.25417 5.2125 7.5125C5.47083 7.77083 5.775 7.9 6.125 7.9Z"/>
</svg>