<svg width="23" height="23" viewBox="0 0 23 23" fill="none" xmlns="http://www.w3.org/2000/svg">
    <g clip-path="url(#clip0_4692_3850)">
        <path d="M11.4906 17.6125C7.13781 17.6508 3.21072 14.011 3.21727 9.17341C3.22382 4.41053 7.05573 0.729843 11.5317 0.745411C15.9871 0.760978 19.788 4.447 19.7827 9.19342C19.7775 14.0297 15.8461 17.6637 11.4906 17.6125ZM15.5954 9.1992C15.6007 6.88715 13.7664 4.99944 11.5103 4.99499C9.26029 4.99054 7.41464 6.86136 7.40504 9.15606C7.39543 11.4712 9.22362 13.3594 11.4788 13.3634C13.7559 13.3674 15.5897 11.5117 15.595 9.19876L15.5954 9.1992ZM12.4975 2.86308C12.4949 2.24927 12.1045 1.84673 11.5063 1.84183C10.8994 1.83694 10.5025 2.24393 10.5021 2.87109C10.5021 3.50048 10.8924 3.90168 11.5037 3.8999C12.1137 3.89813 12.4997 3.49514 12.4975 2.86308Z" fill="#180B01"/>
        <path d="M11.4933 22.2539C9.44422 22.2539 7.39553 22.2552 5.3464 22.253C4.76306 22.2526 4.34564 21.9261 4.22993 21.3919C4.16662 21.0996 4.22294 20.8248 4.40022 20.5935C4.89623 19.9458 5.40666 19.3098 5.9053 18.6639C6.01184 18.5261 6.10353 18.5647 6.22011 18.6364C7.29772 19.2938 8.45655 19.7341 9.69441 19.9423C12.171 20.3577 14.5092 19.9676 16.6731 18.6399C16.8351 18.5407 16.9211 18.5648 17.0347 18.7035C17.5132 19.2893 17.9975 19.8707 18.4874 20.4467C18.7869 20.7985 18.8899 21.1855 18.6974 21.6156C18.5031 22.0497 18.1442 22.2521 17.6831 22.2526C15.6195 22.2557 13.556 22.2539 11.4925 22.2543L11.4933 22.2539Z" fill="#180B01"/>
        <path d="M11.4976 11.516C10.0751 11.5174 9.04504 9.94732 9.55415 8.55741C9.6048 8.41901 9.64541 8.37862 9.77989 8.48299C10.0375 8.68265 10.2816 8.66178 10.5121 8.45032C10.7313 8.24975 10.806 7.91169 10.6894 7.64668C10.5711 7.37759 10.5724 7.37442 10.8448 7.29274C11.9408 6.9633 13.0516 7.50102 13.4454 8.55151C13.9808 9.97999 12.9726 11.5147 11.4976 11.516Z" fill="#180B01"/>
    </g>
    <defs>
        <clipPath id="clip0_4692_3850">
            <rect width="16.5655" height="21.5089" fill="white" transform="translate(3.21727 0.745361)"/>
        </clipPath>
    </defs>
</svg>
